<svg id="Layer_1" data-name="Layer 1" xmlns="http://www.w3.org/2000/svg" viewBox="0 0 200.93 56.35"><path d="M54.65,45.37h0A10.74,10.74,0,0,1,43.91,56.11h0v.24h11v-11Z" transform="translate(0.37)" fill="#333"/><path d="M10.68,28.72A16.59,16.59,0,0,0,27.26,45.29V56.35A27.66,27.66,0,0,1-.37,28.72" transform="translate(0.37)" fill="#1c34c4"/><polygon points="55.26 0 55.26 28.72 44.21 28.72 44.21 11.05 26.54 11.05 26.54 0 55.26 0" fill="#1c34c4"/><path d="M74.19,45.19c0-3.91,3-6.71,7-6.71a6.68,6.68,0,0,1,5.34,2.3l-1.93,1.78a4.16,4.16,0,1,0,0,5.24l1.93,1.78a6.66,6.66,0,0,1-5.36,2.31C77.19,51.89,74.19,49.1,74.19,45.19Z" transform="translate(0.37)" fill="#1c34c4"/><path d="M87.49,45.19c0-3.86,3-6.71,7.1-6.71s7.09,2.84,7.09,6.71-3,6.7-7.09,6.7S87.49,49,87.49,45.19Zm11.16,0a4.06,4.06,0,1,0-4.06,4.15,4,4,0,0,0,4.06-3.85Z" transform="translate(0.37)" fill="#1c34c4"/><path d="M115.84,38.7v13h-2.47l-6.46-7.87v7.87h-3v-13h2.49l6.44,7.88V38.7Z" transform="translate(0.37)" fill="#1c34c4"/><path d="M117.89,50.39l1-2.26a7.71,7.71,0,0,0,4.28,1.36c1.78,0,2.5-.6,2.5-1.39,0-2.43-7.54-.76-7.54-5.58,0-2.21,1.78-4,5.47-4a8.75,8.75,0,0,1,4.5,1.15l-.93,2.28a7.21,7.21,0,0,0-3.59-1c-1.78,0-2.46.67-2.46,1.48,0,2.39,7.54.74,7.54,5.5,0,2.17-1.8,4-5.51,4A9.17,9.17,0,0,1,117.89,50.39Z" transform="translate(0.37)" fill="#1c34c4"/><path d="M130.62,46V38.7h3v7.16c0,2.46,1.08,3.48,2.89,3.48s2.89-1,2.89-3.48V38.7h3V46c0,3.81-2.19,5.92-5.88,5.92S130.62,49.78,130.62,46Z" transform="translate(0.37)" fill="#1c34c4"/><path d="M145.33,38.7h3V49.23h6.5v2.44h-9.5Z" transform="translate(0.37)" fill="#1c34c4"/><path d="M158,41.15h-4.15V38.7h11.3v2.45H161V51.67h-3Z" transform="translate(0.37)" fill="#1c34c4"/><path d="M166.76,38.7h3v13h-3Z" transform="translate(0.37)" fill="#1c34c4"/><path d="M184.73,38.7v13h-2.46L175.8,43.8v7.87h-3v-13h2.48l6.45,7.88V38.7Z" transform="translate(0.37)" fill="#1c34c4"/><path d="M196.57,45h2.74v5.27a8.92,8.92,0,0,1-5.24,1.64c-4.08,0-7.08-2.79-7.08-6.7s3-6.71,7.13-6.71a6.91,6.91,0,0,1,5.43,2.24l-1.92,1.78A4.4,4.4,0,0,0,194.27,41a4.15,4.15,0,1,0-.18,8.3h.15a4.86,4.86,0,0,0,2.33-.56Z" transform="translate(0.37)" fill="#1c34c4"/><path d="M73.47,23.79l2.85-3.43a5.1,5.1,0,0,0,4.12,2.44c2.06,0,3.14-1.23,3.14-3.67V8.58h-7.8V4.46h12.9V18.84c0,5.48-2.76,8.18-8,8.18A9,9,0,0,1,73.47,23.79Z" transform="translate(0.37)" fill="#333"/><path d="M107.87,21.88H97.58l-2,4.76H90.35l9.89-22.18h5.07l9.91,22.18h-5.38ZM106.26,18,102.74,9.5,99.22,18Z" transform="translate(0.37)" fill="#333"/><path d="M117.53,4.46H127.6c7.26,0,12.23,4.37,12.23,11.09s-5,11.09-12.23,11.09H117.53Zm9.82,18c4.4,0,7.29-2.63,7.29-6.87s-2.89-6.88-7.29-6.88h-4.69V22.42Z" transform="translate(0.37)" fill="#333"/><path d="M176.48,4.46l-7.25,22.18h-5.51l-4.88-15-5,15h-5.48L141,4.46h5.33l5,15.59,5.23-15.59h4.75l5.07,15.71,5.16-15.71Z" transform="translate(0.37)" fill="#333"/><path d="M193.21,21.88h-10.3l-2,4.76h-5.26l9.88-22.18h5.07l9.91,22.18h-5.38ZM191.59,18,188.07,9.5,184.56,18Z" transform="translate(0.37)" fill="#333"/></svg>