<svg id="Layer_1" data-name="Layer 1" xmlns="http://www.w3.org/2000/svg" viewBox="0 0 55.79 25.87"><defs><style>.cls-1{fill:#333;}.cls-2{fill:#1c34c4;}</style></defs><title>jadwa-logo</title><path class="cls-1" d="M15.28,20.83h0c0,2.72-1.34,4.93-3,4.93h0v.11h3v-5Z" transform="translate(0)"/><path class="cls-2" d="M3.07,13.19c0,4.2,2.06,7.6,4.6,7.6v5.08C3.44,25.86,0,20.19,0,13.19" transform="translate(0)"/><polygon class="cls-2" points="15.35 0 15.35 13.19 12.28 13.19 12.28 5.07 7.37 5.07 7.37 0 15.35 0"/><path class="cls-2" d="M20.71,20.74c0-1.79.83-3.08,1.95-3.08a1.66,1.66,0,0,1,1.48,1.06l-.53.82a1.07,1.07,0,0,0-.91-.7c-.64,0-1.15.85-1.15,1.91s.52,1.9,1.15,1.9a1.09,1.09,0,0,0,.91-.71l.53.82a1.65,1.65,0,0,1-1.49,1.06C21.54,23.82,20.71,22.54,20.71,20.74Z" transform="translate(0)"/><path class="cls-2" d="M24.4,20.74c0-1.77.83-3.08,2-3.08s2,1.31,2,3.08-.84,3.08-2,3.08S24.4,22.51,24.4,20.74Zm3.1,0c0-1-.53-1.84-1.16-1.82s-1.11.88-1.1,1.91.52,1.82,1.13,1.82,1.11-.77,1.13-1.77Z" transform="translate(0)"/><path class="cls-2" d="M32.27,17.77v5.95h-.68l-1.8-3.61v3.61H29V17.77h.69l1.79,3.61V17.77Z" transform="translate(0)"/><path class="cls-2" d="M32.84,23.13l.28-1a1.65,1.65,0,0,0,1.19.62c.5,0,.7-.28.7-.64,0-1.11-2.1-.35-2.1-2.56,0-1,.5-1.86,1.52-1.86a1.75,1.75,0,0,1,1.25.53l-.26,1a1.46,1.46,0,0,0-1-.47.62.62,0,0,0-.68.68c0,1.1,2.09.34,2.09,2.53,0,1-.49,1.84-1.52,1.84A1.92,1.92,0,0,1,32.84,23.13Z" transform="translate(0)"/><path class="cls-2" d="M36.37,21.1V17.77h.84v3.28c0,1.13.3,1.6.8,1.6s.8-.47.8-1.6V17.77h.83V21.1c0,1.75-.61,2.72-1.64,2.72S36.37,22.85,36.37,21.1Z" transform="translate(0)"/><path class="cls-2" d="M40.46,17.77h.83V22.6H43.1v1.12H40.46Z" transform="translate(0)"/><path class="cls-2" d="M44,18.89H42.82V17.77H46v1.12H44.81v4.83H44Z" transform="translate(0)"/><path class="cls-2" d="M46.41,17.77h.83v5.95h-.83Z" transform="translate(0)"/><path class="cls-2" d="M51.4,17.77v5.95h-.68l-1.8-3.61v3.61H48.1V17.77h.69l1.79,3.61V17.77Z" transform="translate(0)"/><path class="cls-2" d="M54.69,20.65h.76v2.42a1.93,1.93,0,0,1-1.46.75c-1.13,0-2-1.28-2-3.08s.83-3.08,2-3.08a1.7,1.7,0,0,1,1.51,1l-.54.82a1.09,1.09,0,0,0-.93-.67c-.64,0-1.16.81-1.18,1.86s.49,1.93,1.13,1.95h0a.92.92,0,0,0,.65-.26Z" transform="translate(0)"/><path class="cls-1" d="M20.5,10.92l.8-1.57c.33.74.7,1.12,1.14,1.12s.87-.57.87-1.69V3.94H21.15V2.05h3.58v6.6c0,2.52-.77,3.75-2.22,3.75A2.26,2.26,0,0,1,20.5,10.92Z" transform="translate(0)"/><path class="cls-1" d="M30.06,10.05H27.2l-.55,2.18H25.19L27.94,2.05h1.4L32.1,12.23H30.6Zm-.45-1.79-1-3.9-1,3.9Z" transform="translate(0)"/><path class="cls-1" d="M32.74,2.05h2.8c2,0,3.39,2,3.39,5.09s-1.38,5.09-3.39,5.09h-2.8Zm2.73,8.24c1.22,0,2-1.2,2-3.15S36.69,4,35.47,4H34.16v6.31Z" transform="translate(0)"/><path class="cls-1" d="M49.11,2.05l-2,10.18H45.56l-1.35-6.9-1.4,6.9H41.29l-2-10.18h1.47L42.13,9.2l1.45-7.15H44.9l1.41,7.21,1.44-7.21Z" transform="translate(0)"/><path class="cls-1" d="M53.75,10.05H50.89l-.54,2.18H48.89L51.63,2.05H53l2.75,10.18H54.3ZM53.3,8.26l-1-3.9-1,3.9Z" transform="translate(0)"/></svg>