<?xml version="1.0" encoding="utf-8"?>
<!-- Generator: Adobe Illustrator 25.0.0, SVG Export Plug-In . SVG Version: 6.00 Build 0)  -->
<svg version="1.1" id="Layer_1" xmlns="http://www.w3.org/2000/svg" xmlns:xlink="http://www.w3.org/1999/xlink" x="0px" y="0px"
	 viewBox="0 0 283.5 283.5" style="enable-background:new 0 0 283.5 283.5;" xml:space="preserve">
<style type="text/css">
	.st0{fill:#4D5361;}
	.st1{fill:#7A8591;}
	.st2{fill:#FFB553;}
	.st3{fill:#F33E6F;}
	.st4{fill:#2D91EA;}
</style>
<g>
	<g id="_x23_4d5361ff_1_">
		<path class="st0" d="M107.1,157.3c2.2-0.5,5.2-0.1,6.2,2.2c1,2.3,0.8,5.7-1.7,6.9c-2.3,1.1-6,0.9-7.2-1.8
			C103.3,162.1,104,158,107.1,157.3z"/>
		<path class="st0" d="M198.7,157.3c2.2-0.5,5.2-0.1,6.3,2.2c1,2.3,0.8,5.8-1.8,7c-2.3,1.1-5.8,0.9-7.1-1.6
			C194.9,162.2,195.6,158.1,198.7,157.3z"/>
		<path class="st0" d="M54.7,157.9c5.2-0.1,10.4-0.1,15.5,0c3.9,13.3,7.7,26.7,11.6,40.1c0.7,2.6,1.6,5.1,2.1,7.7
			c-3.3,0.1-6.7,0.1-10,0c-1.2-4.5-2.4-9.1-3.7-13.6c-5.2,0-10.4,0-15.6,0c-1.4,4.5-2.4,9.1-3.8,13.6c-3.2,0-6.5,0.1-9.7,0
			c1.3-5,2.8-10,4.2-14.9C48.4,179.7,51.5,168.8,54.7,157.9 M61.6,165.9c-1.6,5.8-3.2,11.6-4.7,17.5c3.6,0.1,7.3,0.1,10.9,0
			c-1.4-5.8-3-11.6-4.6-17.4C62.7,165.9,62.1,165.9,61.6,165.9z"/>
		<path class="st0" d="M86.7,157.9c2.9,0,5.7,0,8.6,0c0.2,4.9,0,9.7,0.1,14.5c0,7.7,0,15.3,0,23c0.1,1.2,0.1,2.8,1.4,3.4
			c1.3,0.4,2.8,0.1,4.2,0c0,2.4,0.1,4.8,0,7.1c-3,0.6-6.2,0.8-9.2-0.1c-1.8-0.6-3.3-1.9-4.1-3.7c-1-2.3-1.1-4.8-1-7.3
			C86.7,182.5,86.6,170.2,86.7,157.9z"/>
		<path class="st0" d="M159,157.9c2.9,0,5.8,0,8.6,0c0.2,5.1,0,10.3,0.1,15.4c2-1,4.1-2.1,6.4-2.3c2.7-0.3,5.5-0.3,8.1,0.6
			c2.4,0.9,4.5,2.7,5.5,5.1c1.2,2.6,1.1,5.5,1.1,8.3c0,6.9,0.1,13.7-0.1,20.6c-2.9,0.1-5.8,0.1-8.7,0c-0.1-6.8,0-13.5,0-20.3
			c-0.1-1.7-0.1-3.5-1.3-4.9c-1.3-1.4-3.3-1.7-5.1-1.6c-2.1,0-4.1,0.8-5.9,1.8c-0.2,8.3,0.1,16.7-0.1,25c-2.9,0.1-5.8,0.1-8.6,0
			c-0.1-8.1,0-16.2-0.1-24.3C158.9,173.5,158.8,165.7,159,157.9z"/>
		<path class="st0" d="M118.5,175.3c2.3-1.7,4.8-3.2,7.2-4.7c1.5,1.5,2.5,3.4,3.4,5.3c1.8-2.3,4.1-4.2,6.9-4.7
			c3.6-0.7,7.5-0.5,10.7,1.4c2.8,1.6,4.7,4.5,5.6,7.5c1.2,3.5,1.1,7.3,1,11c-0.3,4.7-1.9,9.6-5.7,12.6c-3.3,2.7-8,3.2-12.1,2.4
			c-1.9-0.4-3.5-1.5-5-2.6c0,5.2,0.1,10.5,0,15.7c-2.9,0.1-5.8,0.1-8.7,0c-0.2-9.8,0-19.5-0.1-29.3c-0.1-3.3,0.3-6.6-0.7-9.8
			C120.6,178.3,119.5,176.9,118.5,175.3 M135.8,178.5c-3.4,0.9-5.1,4.7-5.2,7.9c0,3.3-0.5,7,1.6,9.8c1.9,2.9,6.1,3.5,9,1.8
			c2.3-1.5,3-4.4,3.2-7c0.1-2.7,0.2-5.5-0.6-8.1c-0.6-1.9-1.8-3.7-3.7-4.3C138.8,178.1,137.2,178.2,135.8,178.5z"/>
		<path class="st0" d="M213.8,171.9c4.9-1,9.9-1.5,14.9-0.9c3,0.4,6.2,1.4,8.3,3.7c1.9,2.1,2.5,5,2.5,7.8c0,3.5,0,7.1,0,10.6
			c0,2,0.2,4,0.8,5.9c0.5,1.5,1.3,2.8,2.1,4.2c-2.5,1.3-5,2.6-7.6,3.8c-1.1-1.6-2-3.3-2.6-5.1c-1.2,1.4-2.5,2.8-4.2,3.5
			c-2.5,1.1-5.4,1.3-8.2,1s-5.5-1.4-7.3-3.6c-1.9-2.3-2.4-5.5-2.1-8.4c0.2-2.5,1-5.1,2.9-6.8c2-1.8,4.7-2.7,7.4-3.2
			c3.3-0.6,6.8-0.7,10.2-0.8c0-1.1,0-2.2-0.6-3.1c-0.8-1.2-2.3-1.6-3.6-1.9c-4.3-0.6-8.6,0.1-12.9,0.6
			C213.8,176.7,213.7,174.3,213.8,171.9 M223.1,190.7c-1.3,0.4-2.8,0.9-3.5,2.2c-0.6,1.3-0.8,2.9-0.1,4.2c0.6,1.3,2.1,1.8,3.5,2
			c2.4,0.2,5.1-0.5,6.6-2.5c1.4-1.9,1.4-4.3,1.3-6.5C228.3,190,225.7,190,223.1,190.7z"/>
		<path class="st0" d="M100.7,171.5c4.4-0.1,8.8-0.1,13.1,0c0,11.4,0,22.7,0,34.1c-2.9,0.1-5.8,0.1-8.7,0c-0.1-8.9,0-17.8-0.1-26.7
			c-1.4,0-2.9,0-4.3-0.1C100.6,176.4,100.6,174,100.7,171.5z"/>
		<path class="st0" d="M192.3,171.5c4.4-0.1,8.8-0.1,13.1,0c0,11.4,0.1,22.8,0,34.1c-2.9,0.1-5.8,0.1-8.7,0
			c-0.1-8.9,0-17.8-0.1-26.7c-1.4,0-2.9,0-4.3-0.1C192.2,176.4,192.2,174,192.3,171.5z"/>
	</g>
	<g>
		<g id="_x23_7a8591ff_1_">
			<path class="st1" d="M112.5,64.2c13.4,0,26.7,0,40.1,0c0.5,0,1,0,1.3,0.4c5.2,6,10.4,11.9,15.5,17.9c0.5,0.6,1.1,1.1,1.4,1.8
				c0.1,0.8,0.1,1.7,0.1,2.5c0,15.4,0,30.7,0,46.1c-19.5,0-38.9,0-58.4,0C112.5,110,112.5,87.1,112.5,64.2 M116.4,68.1
				c0,9.5,0,19,0,28.4c0,10.9,0,21.7,0,32.5c16.9,0,33.7,0,50.6,0c0.1-14.2,0-28.3,0-42.4c0-0.9-0.5-1.9-1.3-2.3
				c-1.1-0.2-2.3-0.1-3.4-0.1c-3,0-6,0-9,0c-0.1-4.5,0-9,0-13.6c0-1-0.7-1.8-1.5-2.4c-0.8-0.3-1.6-0.1-2.4-0.2
				C138.4,68.1,127.4,68,116.4,68.1z"/>
		</g>
		<g id="_x23_ffb553ff_1_">
			<path class="st2" d="M137.2,89.8c-0.1,3.5-0.3,6.8-0.6,10.1c-5.6,0-11.2,0-16.8,0c0-3.4,0-6.7,0-10.1
				C125.6,89.8,131.4,89.8,137.2,89.8z"/>
			<path class="st2" d="M163.6,99.9c-6.5,0-13,0-19.5,0c0.1-3.4,0.2-6.8,0.2-10.1c4.6-0.1,9.2,0,13.9,0c1.8,0,3.6,0,5.4,0
				C163.6,93.2,163.6,96.5,163.6,99.9z"/>
		</g>
		<g id="_x23_f33e6fff_1_">
			<path class="st3" d="M163.6,112.6c-2.5,0-5,0-7.6,0c0.1-0.3,0.3-0.5,0.4-0.8c0.4-0.7,0.2-1.6-0.4-2c0,0-0.1-0.1-0.1-0.1
				c-0.3-0.4-0.9-1.1-2.1-1.1c-0.1,0-0.1,0-0.2,0c-0.4,0-0.8,0.2-1.1,0.5c-0.4,0.4-0.7,0.8-1.1,1.3c-0.3,0.4-0.6,0.7-0.8,1l0,0
				c-0.5,0.5-1,0.9-1.6,1.3c-0.1,0-0.1,0-0.1,0c-5.8-0.1-11.5,0-17.3,0c-0.2-0.2-0.4-0.4-0.6-0.6c-0.4-0.4-0.7-0.7-1.1-1.1
				c-0.3-0.3-0.7-0.4-1.2-0.4c0,0-0.1,0-0.1,0c-0.5,0-0.9,0.2-1.2,0.6c-0.3,0.4-0.6,0.7-0.9,1c-0.1,0.1-0.2,0.3-0.3,0.5
				c-0.3,0-0.5,0-0.7,0c-1.9-0.1-3.9,0-5.8,0c0-3.4,0-6.7,0-10.1c5.5,0,11,0,16.6,0c-0.1,1.1-0.2,2.1-0.3,3.2
				c-0.1,1.3,0.6,2.2,1.1,2.7l0.1,0.1c0,0.1,0.1,0.1,0.1,0.1c0.2,0.2,0.4,0.5,0.6,0.7c0.7,0.9,1.7,2.1,3.4,2.4c0.1,0,0.2,0,0.3,0
				c0.4,0,0.7-0.1,1-0.4c0.4-0.3,0.6-0.7,0.7-1.2c0.3-2.6,0.4-5.2,0.6-7.8c6.5,0,13,0,19.6,0C163.6,105.9,163.6,109.3,163.6,112.6z"
				/>
		</g>
		<path class="st4" d="M163.6,125.6c-14.6,0-29.1,0-43.7,0c0-3.4,0-6.7,0-10.1c2.1-0.1,4.2,0,6.2,0c0.4,0,0.8,0,1.1,0
			c2.1,3.4,5.5,5.8,9.1,6.6c1.2,0.3,2.5,0.4,3.7,0.4c3,0,6-0.8,8.7-2.2c2.1-1.1,3.9-2.8,5.5-4.8c3.1,0,6.3,0,9.4,0
			C163.6,118.8,163.6,122.2,163.6,125.6z"/>
		<g>
			<path class="st0" d="M154.8,111.1c-1.5,3.1-3.9,5.9-6.9,7.6c-2.4,1.3-5.1,2-7.8,2c-1.1,0-2.3-0.1-3.4-0.4c-3.8-0.8-7-3.6-8.7-7.1
				c0.3-0.4,0.6-0.7,0.9-1c1,0.9,1.8,1.9,2.8,2.7c2.4,1.6,5.3,2.4,8.1,2.4c0.2,0,0.3,0,0.5,0c4.2-0.1,8.4-1.8,11.4-4.8
				c0.7-0.7,1.2-1.6,1.9-2.3h0C154.3,110.3,154.5,110.8,154.8,111.1z"/>
		</g>
		<path class="st0" d="M142.6,87.9c-0.1,7.4-0.1,14.9-0.9,22.3c-1.4-0.3-2.2-1.7-3.1-2.7c-0.4-0.4-0.8-0.9-0.7-1.6
			c0.6-7.7,1.2-15.4,1.1-23.2c0.1-2.4-0.1-4.8-0.3-7.2c0.2-0.1,0.5-0.2,0.7-0.3c1.4,1.5,2.8,3.2,3,5.4
			C142.6,83,142.6,85.4,142.6,87.9z"/>
	</g>
</g>
</svg>
