<?xml version="1.0" encoding="utf-8"?>
<!-- Generator: Adobe Illustrator 25.0.0, SVG Export Plug-In . SVG Version: 6.00 Build 0)  -->
<svg version="1.1" id="Layer_1" xmlns="http://www.w3.org/2000/svg" xmlns:xlink="http://www.w3.org/1999/xlink" x="0px" y="0px"
	 viewBox="0 0 283.46 283.46" style="enable-background:new 0 0 283.46 283.46;" xml:space="preserve">
<style type="text/css">
	.st0{fill:#2E9C30;}
	.st1{fill:#CA3332;}
</style>
<g>
	<g>
		<path class="st0" d="M108.84,66.58c0,0,16.52,53.75,5.45,92.96C114.29,159.54,142.27,127.29,108.84,66.58z"/>
		<path class="st0" d="M149.86,75.36c0,0-21.11,4.03-21.11,48.38C128.76,123.73,135.87,92.19,149.86,75.36z"/>
		<path class="st0" d="M91.05,82.47c0,0,15.18,31.78,16.6,49.8C107.65,132.27,116.66,112.35,91.05,82.47z"/>
		<path class="st0" d="M83.7,106.9c0,0,22.77,16.36,23.24,61.66C106.94,168.56,118.56,129.66,83.7,106.9z"/>
		<path class="st0" d="M141.64,118.75c0,0-17.23,10.28-13.12,38.89C128.52,157.65,133.42,136.46,141.64,118.75z"/>
		<path class="st0" d="M146.54,137.29c0,0-12.96,2.61-11.7,21.34C134.84,158.63,140.06,145.83,146.54,137.29z"/>
		<path d="M175,116.15c0,0-0.95,36.76-46.24,62.37C128.76,178.52,224.33,161.92,175,116.15z"/>
		<path class="st1" d="M90.1,216.93c0,0,2.86-19.99,48.11-34.18c5.44-1.71,10.83-3.57,16.12-5.7c15.03-6.03,40.77-17.52,41.77-25.81
			c0,0,20.51,22.77-41.03,44.82C155.08,196.06,115.4,210.45,90.1,216.93z"/>
	</g>
	<g>
		<path d="M34.09,135.81c0.88,0.09,1.73,0.02,2.55-0.22c0.82-0.24,1.63-0.63,2.41-1.19c0.47-0.37,0.84-0.69,1.11-0.96
			c0.14-0.15,0.31-0.34,0.51-0.58c0.18-0.2,0.49-0.57,0.92-1.12l-0.53-0.43c-0.9,0.66-1.56,1.11-2.01,1.35
			c-0.48,0.27-1.02,0.5-1.62,0.7c-1.09,0.38-2.13,0.52-3.12,0.42c-1.07-0.11-2.08-0.46-3.04-1.06c-0.95-0.6-1.95-1.53-3-2.8
			l-0.52,0.55c0.3,0.58,0.52,1,0.66,1.26c0.15,0.26,0.28,0.48,0.41,0.67c0.28,0.42,0.6,0.81,0.96,1.18c0.66,0.7,1.32,1.22,1.99,1.57
			C32.48,135.51,33.24,135.73,34.09,135.81z"/>
		<path d="M44.01,127.71c-0.14-0.59-0.6-1.32-1.4-2.17c-0.8-0.86-1.78-1.48-2.94-1.87c-1.2-0.41-2.07-0.5-2.6-0.26
			c-0.78,0.39-1.53,0.28-2.26-0.32c0.35,1.65,0.81,2.59,1.4,2.82c0.67,0.27,1.25,0.3,1.75,0.09c0.48-0.23,0.89-0.51,1.23-0.83
			c0.08-0.06,0.2-0.07,0.34-0.04c0.4,0.3,0.75,0.64,1.06,1.03c0.44,0.56,0.75,1.08,0.95,1.57c0.19,0.48,0.34,0.91,0.44,1.28
			c0.1,0.37,0.14,0.79,0.13,1.25c-0.01,0.46-0.05,0.87-0.1,1.24c-0.06,0.36-0.23,1.05-0.5,2.06c0.12-0.08,0.36-0.51,0.71-1.29
			c0.36-0.78,0.74-1.62,1.16-2.5C43.77,128.87,43.99,128.19,44.01,127.71z"/>
		<path d="M38.48,121.43l1.71,0.41c0.75,0.24,1.19,0.08,1.32-0.48l1.01-4.22c-0.31-0.26-0.76-0.53-1.33-0.79s-0.95-0.43-1.13-0.49
			c-0.18-0.06-0.41-0.13-0.71-0.19c-0.29-0.06-0.91-0.07-1.86-0.03c-0.97,0.17-1.83,0.5-2.58,0.98c-0.63,0.51-0.99,0.9-1.08,1.17
			c-0.09,0.27,0.11,0.58,0.61,0.93c0.5,0.35,1.03,0.57,1.6,0.67c0.07-0.34,0.21-0.66,0.41-0.95c0.2-0.29,0.53-0.57,0.96-0.85
			c0.44-0.28,0.84-0.47,1.21-0.58c0.37-0.11,0.75-0.16,1.13-0.15l-0.95,3.98C38.78,120.98,38.67,121.18,38.48,121.43z"/>
		<path d="M41.38,114.11c1.14,0.06,1.95-0.41,2.45-1.41l0,0l0.01-0.04c0.04-0.08,0.08-0.16,0.12-0.25l0.17-0.55l1.58-4.44l1.75-4.28
			l2.16-4.69l0.82-1.55c0.48-0.91,0.39-1.71-0.28-2.4c0.6,0.14,1.03,0.1,1.32-0.13c0.28-0.23,0.53-0.52,0.74-0.87
			c0.07-0.13,0.15-0.26,0.22-0.39l0.02,0.01l1.16-1.92c0.53-0.87,1.26-1.17,2.18-0.89c-0.47-0.32-0.9-0.75-1.3-1.29
			c-0.15-0.23-0.46-0.61-0.94-1.15c-0.48-0.54-0.87-0.91-1.18-1.11c-0.3-0.2-0.67-0.37-1.1-0.51c-0.43-0.13-0.89-0.22-1.38-0.24
			c-0.49-0.03-1.13,0.03-1.93,0.18l1.31,2.15c1.05-0.16,1.98-0.12,2.78,0.13l-1.62,2.67l-0.05-0.02l-0.23,0.43
			c-0.2,0.37-0.45,0.68-0.74,0.91c-0.3,0.24-0.56,0.31-0.78,0.22c-0.22-0.09-0.45-0.2-0.69-0.36c-0.24-0.15-0.42-0.19-0.55-0.12
			c-0.12,0.07-0.14,0.24-0.05,0.51c0.09,0.27,0.27,0.58,0.53,0.91c0.26,0.34,0.4,0.62,0.41,0.86c0.01,0.23-0.12,0.67-0.39,1.32
			l-1.04,1.97l0.07,0.04l-1.54,3.35l-0.04-0.02l-0.37,0.9l-0.39,0.85l0.04,0.02l-1.06,2.61l-0.04-0.02l-0.34,0.94l-0.35,0.86
			l0.04,0.02l-1.18,3.31l-0.06-0.02c-0.16,0.68-0.39,1.15-0.69,1.4c-0.29,0.25-0.71,0.37-1.25,0.36c-0.54-0.01-3.22-0.56-8.04-1.64
			l1.88,1.89C37.95,113.63,40.56,114.12,41.38,114.11z"/>
		<path d="M52.07,100.32c0.91-0.07,1.64-0.36,2.17-0.89l-0.55-2.14c-0.72,0.36-1.44,0.63-2.14,0.81L52.07,100.32z"/>
		<path d="M56.95,91.1c-0.8,0.41-1.56,0.7-2.29,0.86L55,94.3c0.09,0,0.17-0.02,0.26-0.03c-0.71,0.35-1.41,0.62-2.1,0.8l0.52,2.22
			c0.91-0.07,1.64-0.36,2.17-0.89l-0.55-2.13c0.8-0.09,1.48-0.38,2.03-0.91L56.95,91.1z"/>
		<path d="M50.35,81.02c1.11,0.17,2.11,0.55,3,1.16c0.81,0.56,1.51,1.34,2.1,2.33c0.32,0.54,0.58,1.07,0.78,1.58
			c0.18,0.47,0.39,1.25,0.64,2.34l0.69,0.01c0.02-0.7,0.03-1.18,0.02-1.45c0-0.31,0-0.57-0.01-0.77c-0.03-0.39-0.11-0.86-0.23-1.44
			c-0.23-0.94-0.59-1.77-1.06-2.48c-0.47-0.71-1.07-1.32-1.8-1.82c-0.7-0.49-1.42-0.81-2.16-0.98c-0.74-0.17-1.58-0.2-2.54-0.09
			c-0.51,0.05-1.01,0.14-1.5,0.28c-0.22,0.06-0.47,0.14-0.75,0.24c-0.28,0.1-0.72,0.27-1.32,0.52l0.03,0.76
			C47.86,80.92,49.23,80.85,50.35,81.02z"/>
		<path d="M56.26,69.46l-0.06-2.21c-0.79,0.19-1.54,0.29-2.27,0.31l0.01,2.28C54.85,69.97,55.62,69.85,56.26,69.46z"/>
		<path d="M54,72.06l-0.06-2.21c-0.79,0.19-1.54,0.29-2.27,0.31l0.01,2.28C52.59,72.57,53.37,72.45,54,72.06z"/>
		<path d="M82.19,64.02c-0.81,0.02-1.57-0.04-2.28-0.18l-0.47,2.23c0.86,0.33,1.64,0.37,2.34,0.12L82.19,64.02z"/>
		<path d="M84.54,64.12l0.41-2.17c-0.81,0.02-1.57-0.04-2.28-0.18L82.2,64C83.05,64.33,83.83,64.37,84.54,64.12z"/>
		<path d="M90.48,45.77l0.75-2.08c-0.8-0.11-1.54-0.29-2.23-0.54l-0.82,2.12C88.98,45.74,89.74,45.9,90.48,45.77z"/>
		<path d="M99.2,50.37c0.94-0.42,1.36-1.1,1.26-2.06c0.38,0.48,0.75,0.72,1.11,0.71c0.36,0,0.74-0.08,1.12-0.23
			c0.17-0.07,0.35-0.15,0.53-0.22l0.01,0.03l0.96-0.36c0.95-0.36,1.71-0.15,2.27,0.64c-0.17-0.54-0.25-1.15-0.23-1.81
			c0.02-0.24-0.02-0.65-0.11-1.23l-0.01-0.13l-0.15-1.01l-0.41-1.02l-0.22-0.5l-0.44-1.01l-0.87-2l0.33-2.31
			c-1.12-0.27-1.76-0.43-1.92-0.48c-0.16-0.05-0.31-0.1-0.45-0.16c-0.14-0.06-0.29-0.17-0.47-0.34c-0.17-0.17-0.29-0.32-0.36-0.46
			c-0.07-0.14-0.14-0.2-0.23-0.16l-0.16,1.38c-0.04,0.65-0.03,1.07,0.01,1.25c0.05,0.18,0.14,0.31,0.27,0.4
			c0.13,0.09,0.25,0.17,0.35,0.22c0.1,0.06,0.25,0.16,0.43,0.31c0.2,0.27,0.36,0.53,0.48,0.78l2.36,4.51l-1.94,0.73l-0.02-0.04
			l-0.44,0.2c-0.39,0.17-0.77,0.26-1.15,0.26c-0.38,0-0.63-0.1-0.75-0.3c-0.12-0.2-0.23-0.44-0.32-0.71
			c-0.1-0.27-0.21-0.41-0.36-0.43c-0.14-0.02-0.26,0.11-0.35,0.38c-0.09,0.27-0.14,0.62-0.15,1.05c0,0.43-0.07,0.73-0.21,0.92
			c-0.14,0.19-0.51,0.45-1.12,0.79l-1.68,0.75l0,0l-0.03,0.02l-0.31,0.14l0.01,0.02l-0.12,0.06c-0.37,0.19-0.75,0.31-1.13,0.33
			c-0.38,0.03-0.63-0.06-0.77-0.25c-0.13-0.2-0.26-0.42-0.37-0.69c-0.11-0.26-0.24-0.4-0.38-0.41c-0.14-0.01-0.25,0.12-0.33,0.4
			c-0.08,0.28-0.1,0.63-0.08,1.05c0.02,0.43-0.03,0.74-0.15,0.94c-0.12,0.2-0.48,0.49-1.07,0.86l-0.97,0.51l-0.05-0.08l-0.9,0.57
			c-0.16,0.15-0.5,0.2-1.01,0.15c-0.51-0.05-0.93-0.19-1.25-0.4c-0.32-0.22-0.67-0.47-1.04-0.77s-0.63-0.47-0.78-0.51
			c-0.15-0.04-0.31-0.02-0.48,0.06c-0.17,0.08-0.35,0.23-0.53,0.43c-0.18,0.21-0.33,0.51-0.46,0.9c-0.13,0.39-0.23,0.86-0.3,1.39
			c-0.07,0.54-0.11,1.01-0.11,1.43c-0.01,0.41-0.06,0.73-0.17,0.95c-0.1,0.22-0.32,0.43-0.65,0.64l-1.42,0.89l0.04,0.06
			c-0.31,0.22-0.64,0.38-0.97,0.46c-0.37,0.09-0.64,0.04-0.8-0.13c-0.16-0.17-0.32-0.38-0.47-0.62c-0.15-0.24-0.3-0.35-0.45-0.34
			c-0.14,0.01-0.23,0.16-0.26,0.45c-0.03,0.29,0,0.64,0.09,1.05c0.09,0.42,0.09,0.73,0,0.95c-0.09,0.22-0.39,0.56-0.91,1.02
			l-1.78,1.33l0.05,0.07l-2.82,2.37l-0.03-0.03l-0.73,0.67l-0.7,0.59l0.03,0.03l-2.08,1.91l-0.03-0.03l-0.7,0.7l-0.68,0.63
			l0.03,0.03l-2.52,2.53l-0.11-0.1c-0.18,0.21-0.5,0.51-0.95,0.9c-0.45,0.39-0.98,0.51-1.57,0.36c-0.59-0.15-1.43-0.56-2.51-1.24
			c-1.08-0.67-2.1-1.31-3.07-1.9L58,70.97l0.72,0.49l-1.5,4.82c0.75,0.6,1.31,1.41,1.68,2.42c2.06-1.14,3.27-2.28,3.61-3.42
			c-0.09-0.45-0.29-1.03-0.58-1.74c1.56,1,2.78,1.27,3.66,0.8c0.42-0.23,0.77-0.44,1.05-0.66l0.07,0.07l3.96-3.98l3.39-3.11
			l3.98-3.34l1.39-1.04c0.83-0.62,1.08-1.38,0.77-2.29c0.48,0.38,0.89,0.53,1.24,0.45c0.35-0.08,0.7-0.24,1.04-0.48
			c0.34-0.23,0.69-0.48,1.04-0.74l0,0l0.86-0.54c0.51-0.54,0.66-1.39,0.45-2.53c1.22,0.18,2.15,0.27,2.81,0.27
			c0.66,0,1.06-0.05,1.21-0.14c0.15-0.09,0.21-0.56,0.19-1.39c0.68,0.14,1.34,0,1.98-0.4l0.27-0.17l0.02,0.04l1.63-0.85
			c0.91-0.48,1.29-1.19,1.12-2.14c0.41,0.45,0.79,0.67,1.16,0.64c0.36-0.03,0.73-0.13,1.1-0.3c0.32-0.15,0.64-0.31,0.97-0.48
			L99.2,50.37z M60.67,73.84c-0.35,0.49-0.93,1.04-1.73,1.66c0.64-1.49,0.85-2.61,0.64-3.37l1.45,0.81
			C61.14,73.06,61.02,73.36,60.67,73.84z M84.75,53.36c0.04-0.3,0.12-0.53,0.25-0.69c0.12-0.16,0.26-0.23,0.42-0.2
			c0.15,0.03,0.3,0.1,0.44,0.21c0.14,0.11,0.48,0.4,1.01,0.85C85.93,53.57,85.22,53.51,84.75,53.36z"/>
		<path d="M98.39,43.17l0.89-2.02c-0.79-0.16-1.52-0.39-2.19-0.68l-0.96,2.07C96.9,43.04,97.65,43.25,98.39,43.17z"/>
		<path d="M95.24,44.57l0.89-2.02c-0.79-0.16-1.52-0.39-2.19-0.68l-0.96,2.07C93.75,44.43,94.5,44.65,95.24,44.57z"/>
		<path d="M109.75,44.69c0.03-0.35-0.02-0.83-0.15-1.43c-0.09-0.39-0.26-0.89-0.5-1.5l-0.26-0.56l-0.34-0.81l-0.74-1.72l-1.23-2.43
			l-0.87-1.59l-0.07,0.32l-0.04,0.47c-0.05,0.32-0.07,0.63-0.08,0.93l-0.02,0.72c-0.02,0.69-0.01,1.11,0.05,1.25l3.94,8.05
			c0.08-0.28,0.14-0.54,0.19-0.79C109.68,45.34,109.72,45.04,109.75,44.69z"/>
		<path d="M114.87,48.52c1.12-0.32,1.78-1.5,2-3.54c0.17-1.46,0.01-2.92-0.48-4.37c-0.16-0.65-0.57-1.36-1.23-2.12
			c-0.42-0.4-0.24-0.96,0.52-1.71c-1.01-0.07-1.87,0.14-2.59,0.65c-0.67,0.58-1.08,1.37-1.23,2.38c-0.13,0.94-0.14,1.72-0.04,2.32
			c0.2,0.76,0.41,1.25,0.63,1.46c0.46,0.34,0.89,0.49,1.31,0.45c0.41-0.04,0.71-0.13,0.88-0.26c0.17-0.13,0.31-0.26,0.42-0.38
			c0.11-0.12,0.2-0.3,0.28-0.53c0.08-0.23,0.1-0.65,0.06-1.28c0.07,0.09,0.13,0.21,0.18,0.35c0.17,0.66,0.09,1.54-0.24,2.63
			c-0.34,1.08-0.97,2-1.87,2.75c-0.85,0.66-2.14,1.21-3.88,1.65c0.4,0.14,1.24,0.15,2.53,0.02
			C113.39,48.88,114.31,48.72,114.87,48.52z M114.02,41.34c-0.18,0.11-0.41,0.17-0.69,0.18c-0.28,0.01-0.54-0.06-0.77-0.21
			c-0.02-0.15,0.04-0.34,0.19-0.59c0.15-0.24,0.33-0.41,0.53-0.48c0.25-0.04,0.51,0,0.76,0.12c0.25,0.12,0.44,0.27,0.56,0.45
			C114.39,41.06,114.2,41.23,114.02,41.34z"/>
		<path d="M121.76,30.66c-0.73-0.36-1.37-0.76-1.94-1.21l-1.45,1.76c0.61,0.69,1.28,1.08,2.02,1.19L121.76,30.66z"/>
		<path d="M125.16,30.11c-0.73-0.36-1.37-0.76-1.94-1.21l-1.45,1.76c0.61,0.69,1.28,1.08,2.02,1.19L125.16,30.11z"/>
		<path d="M141.08,33.87l0.93,0l-0.62,0.68c-0.17,0.23-0.27,0.47-0.32,0.71c0.45-0.46,0.87-0.84,1.27-1.14
			c0.1-0.1,0.2-0.17,0.29-0.2c0.09-0.03,0.19-0.07,0.3-0.13c0.2-0.1,0.41-0.17,0.63-0.23l0.17-0.03c0.05-0.16,0.1-0.3,0.14-0.4
			c0.05-0.1,0.08-0.19,0.11-0.26c0.01-0.02,0.01-0.05,0.01-0.08l-0.05,0l-0.08,0.03l-0.05-0.01l-1.2,0.14
			c-0.7,0.05-1.24-0.06-1.62-0.35c0.09-0.18,0.2-0.32,0.34-0.42c0.51-0.32,0.95-0.28,1.3,0.12c0.21-0.24,0.3-0.53,0.29-0.85
			c-0.04-0.15-0.11-0.25-0.21-0.31c-0.1-0.06-0.21-0.09-0.32-0.1c-0.11-0.01-0.19,0-0.25,0.01c-0.3,0.07-0.55,0.19-0.77,0.37
			c-0.21,0.17-0.39,0.4-0.54,0.69c-0.15,0.29-0.24,0.56-0.28,0.8c-0.05,0.23-0.04,0.45,0.02,0.69
			C140.64,33.78,140.81,33.86,141.08,33.87z"/>
		<path d="M147.54,42.73l-1.81,1.38c0.43,0.81,1,1.35,1.7,1.62l1.73-1.38C148.53,43.84,147.99,43.3,147.54,42.73z"/>
		<path d="M152.59,44.59c-0.63-0.51-1.16-1.06-1.61-1.63l-1.81,1.38c0.43,0.81,1,1.35,1.7,1.62L152.59,44.59z"/>
		<path d="M154.52,46.04l1.81-1.26c-0.65-0.56-1.19-1.14-1.6-1.74l-1.9,1.26C153.23,45.14,153.79,45.72,154.52,46.04z"/>
		<path d="M167.55,43.84c0.15-0.19,0.36-0.55,0.61-1.08l0.07-0.12l0.45-0.92l0.23-1.07l0.1-0.53l0.21-1.08l0.42-2.14l1.58-1.72
			c-0.77-0.85-1.21-1.35-1.32-1.48c-0.11-0.13-0.2-0.26-0.28-0.39c-0.08-0.13-0.14-0.31-0.19-0.54c-0.05-0.24-0.06-0.43-0.04-0.58
			c0.02-0.15-0.01-0.24-0.1-0.26l-0.92,1.05c-0.4,0.52-0.63,0.86-0.7,1.04c-0.06,0.17-0.06,0.33-0.01,0.48
			c0.05,0.15,0.11,0.28,0.16,0.38c0.05,0.11,0.11,0.27,0.18,0.5c0.01,0.34,0,0.64-0.04,0.91l-0.6,5.06l-1.99-0.48l0-0.02
			c-0.12-0.02-0.23-0.04-0.33-0.06l-0.2-0.05l0,0.01c-0.43-0.1-0.77-0.25-1.02-0.45c-0.34-0.28-0.5-0.68-0.49-1.2
			c0.02-0.52,0.33-3.3,0.92-8.33l-1.87,2.04c-0.31,3.47-0.47,5.38-0.49,5.74c-0.02,0.36-0.11,0.72-0.27,1.08
			c-0.15,0.33-0.87,0.36-2.14,0.09l0-0.02l-0.3-0.04c-0.02,0-0.03-0.01-0.04-0.01l0,0l-0.17-0.02c-0.42-0.06-0.79-0.18-1.11-0.38
			c-0.33-0.2-0.49-0.41-0.48-0.65c0-0.24,0.03-0.49,0.09-0.77c0.06-0.28,0.03-0.46-0.08-0.56c-0.11-0.09-0.28-0.05-0.5,0.14
			c-0.22,0.18-0.45,0.46-0.67,0.82c-0.23,0.36-0.45,0.59-0.66,0.68c-0.22,0.09-0.67,0.12-1.37,0.09l-0.77-0.1l0-0.04l-0.48-0.03
			c-0.42-0.03-0.8-0.13-1.13-0.31c-0.34-0.18-0.51-0.38-0.52-0.62c-0.01-0.24,0-0.5,0.04-0.78c0.04-0.28,0-0.46-0.11-0.55
			c-0.12-0.08-0.28-0.03-0.49,0.17c-0.21,0.2-0.42,0.48-0.62,0.86c-0.2,0.37-0.41,0.61-0.62,0.72c-0.21,0.1-0.66,0.16-1.36,0.18
			l-1.93-0.13l0-0.01l-0.17,0l-0.13-0.01l0,0.01l-0.19,0c-0.42,0-0.81-0.08-1.15-0.23c-0.35-0.15-0.53-0.35-0.56-0.58
			c-0.03-0.23-0.03-0.49-0.01-0.78c0.02-0.28-0.03-0.46-0.15-0.54c-0.12-0.08-0.28-0.01-0.48,0.2c-0.2,0.21-0.38,0.51-0.56,0.89
			c-0.18,0.39-0.37,0.64-0.57,0.76c-0.2,0.12-0.65,0.21-1.35,0.26l-2.22-0.01l0,0.1l-3.22,0.17l0-0.05l-1.16,0.11l-0.75,0.04l0,0.03
			l-3.55,0.33l-0.02-0.15c-0.27,0.04-0.71,0.07-1.3,0.08c-0.6,0.01-1.08-0.23-1.44-0.73c-0.36-0.5-0.74-1.35-1.14-2.56
			c-0.4-1.21-0.78-2.35-1.14-3.43l-0.78,1.86l0.24,0.83l-4.24,2.74c0.19,0.94,0.1,1.92-0.26,2.94c2.32,0.44,3.97,0.34,4.97-0.32
			c0.22-0.41,0.44-0.97,0.67-1.7c0.56,1.77,1.33,2.75,2.3,2.95c0.47,0.1,0.88,0.15,1.23,0.17l0.01,0.1l5.41-0.51l5.16-0.27
			l1.49,0.01c1.03,0,1.7-0.45,1.99-1.37c0.15,0.59,0.39,0.96,0.72,1.11c0.33,0.14,0.7,0.23,1.12,0.25c0.27,0.01,0.56,0.02,0.84,0.02
			l2.39,0.16c1.03,0.07,1.72-0.34,2.08-1.23c0.11,0.6,0.33,0.98,0.65,1.15c0.32,0.17,0.69,0.27,1.1,0.32
			c0.08,0.01,0.17,0.01,0.25,0.02l0,0l1.82,0.24c1.02,0.14,1.74-0.23,2.15-1.1c0.07,0.61,0.27,1,0.58,1.19
			c0.31,0.19,0.67,0.32,1.08,0.39c0.24,0.04,0.5,0.08,0.75,0.12l0,0c1.02,0.2,1.75,0.26,2.17,0.17c0.42-0.08,0.79-0.6,1.1-1.56
			c0.06,1.24,0.72,2.04,1.95,2.39l0.35,0.07l0,0l1,0.24c0.99,0.24,1.49,0.85,1.51,1.81C166.87,44.92,167.15,44.38,167.55,43.84z
			 M124.37,38.04c-0.58,0.15-1.38,0.21-2.4,0.17c1.44-0.74,2.33-1.46,2.65-2.18l0.6,1.55C125.24,37.73,124.95,37.89,124.37,38.04z"
			/>
		<path d="M169.8,47.13c-0.35-0.11-1-0.38-1.96-0.81c0.06,0.13,0.45,0.43,1.17,0.9c0.72,0.47,1.48,0.98,2.3,1.52
			c0.81,0.54,1.45,0.86,1.92,0.95c0.61-0.04,1.39-0.39,2.36-1.05c0.97-0.66,1.73-1.53,2.3-2.62c0.59-1.12,0.81-1.97,0.66-2.53
			c-0.27-0.83-0.04-1.55,0.67-2.18c-1.68,0.09-2.68,0.41-3,0.95c-0.37,0.62-0.49,1.19-0.36,1.71c0.16,0.51,0.37,0.96,0.64,1.34
			c0.05,0.09,0.04,0.21-0.02,0.34c-0.35,0.35-0.75,0.64-1.18,0.89c-0.62,0.35-1.19,0.58-1.69,0.7c-0.51,0.12-0.95,0.2-1.33,0.24
			c-0.38,0.04-0.8,0.02-1.26-0.06C170.55,47.34,170.15,47.24,169.8,47.13z"/>
		<path d="M179.89,48.21l4.02,1.64c0.31-0.27,0.64-0.67,0.98-1.2c0.35-0.53,0.57-0.88,0.66-1.04c0.09-0.17,0.19-0.39,0.3-0.67
			c0.11-0.28,0.21-0.89,0.31-1.83c-0.02-0.98-0.21-1.88-0.57-2.7c-0.41-0.7-0.74-1.11-0.99-1.24c-0.25-0.13-0.59,0.02-1.01,0.46
			c-0.42,0.44-0.72,0.93-0.9,1.48c0.33,0.12,0.62,0.3,0.87,0.55c0.25,0.25,0.49,0.61,0.69,1.08c0.2,0.48,0.33,0.9,0.39,1.29
			c0.05,0.38,0.05,0.76-0.02,1.14l-3.79-1.55c-0.15-0.06-0.33-0.2-0.55-0.42l-0.66,1.63C179.26,47.53,179.35,47.99,179.89,48.21z"/>
		<path d="M188.09,51.81L188.09,51.81l0.04,0.03c0.08,0.05,0.15,0.11,0.23,0.15l0.52,0.25l4.13,2.23l3.96,2.37l3.86,2.56l3.72,2.71
			l3.62,2.89l3.89,3.4l1.25,1.22c0.74,0.72,1.53,0.86,2.38,0.41c-0.3,0.53-0.39,0.96-0.25,1.3c0.14,0.33,0.35,0.65,0.63,0.95
			c0.1,0.11,0.22,0.22,0.33,0.34l-0.02,0.02l1.51,1.66c0.69,0.75,0.77,1.53,0.24,2.34c0.44-0.36,0.97-0.65,1.6-0.88
			c0.26-0.08,0.71-0.27,1.37-0.58c0.65-0.31,1.12-0.58,1.4-0.82c0.28-0.24,0.55-0.54,0.8-0.91c0.25-0.37,0.46-0.79,0.62-1.26
			c0.16-0.46,0.29-1.1,0.37-1.9l-2.43,0.65c-0.14,1.05-0.44,1.93-0.91,2.63l-2.12-2.33l0.03-0.04l-0.35-0.34
			c-0.3-0.29-0.52-0.62-0.67-0.97c-0.14-0.35-0.14-0.62,0-0.81c0.14-0.19,0.32-0.38,0.54-0.56c0.21-0.19,0.3-0.35,0.27-0.49
			c-0.03-0.14-0.19-0.2-0.48-0.19c-0.29,0.01-0.63,0.1-1.03,0.25c-0.4,0.15-0.71,0.2-0.94,0.15c-0.23-0.06-0.61-0.3-1.15-0.75
			l-1.59-1.55l-0.06,0.06l-2.76-2.41l0.03-0.03l-0.78-0.63l-0.69-0.6l-0.03,0.03l-2.2-1.76l0.03-0.04l-0.8-0.58l-0.73-0.58
			l-0.03,0.03l-2.28-1.66l0.02-0.04l-0.83-0.55l-0.74-0.54l-0.02,0.03l-2.35-1.55l0.02-0.04l-0.86-0.52l-0.76-0.51l-0.02,0.03
			l-2.42-1.45l0.02-0.04l-0.87-0.47l-0.8-0.48l-0.02,0.04l-3.09-1.67l0.03-0.06c-0.65-0.27-1.08-0.56-1.28-0.89
			c-0.2-0.33-0.26-0.76-0.16-1.29c0.1-0.53,1.05-3.09,2.85-7.69l-2.16,1.57c-1.65,4.2-2.54,6.71-2.65,7.51
			C186.85,50.29,187.19,51.17,188.09,51.81z"/>
		<path d="M214.5,75.03c-0.14-0.8-0.2-1.56-0.18-2.28l-2.27-0.12c-0.19,0.9-0.11,1.67,0.24,2.33L214.5,75.03z"/>
		<path d="M209.58,70.22c-0.19,0.9-0.11,1.67,0.24,2.33l2.21,0.07c-0.14-0.8-0.2-1.56-0.18-2.28L209.58,70.22z"/>
		<path d="M217.07,77.51c-0.17-0.88-0.23-1.69-0.18-2.44l-2.34-0.33c-0.22,0.91-0.14,1.74,0.25,2.5L217.07,77.51z"/>
		<path d="M233.66,74.09c-0.02-0.81,0.04-1.57,0.18-2.28l-2.23-0.48c-0.33,0.86-0.37,1.64-0.13,2.34L233.66,74.09z"/>
		<path d="M233.55,76.44l2.17,0.42c-0.02-0.81,0.04-1.57,0.18-2.28l-2.23-0.48C233.35,74.95,233.3,75.73,233.55,76.44z"/>
		<path d="M226.52,81.28c0.46,0.01,1.07-0.06,1.82-0.19c-1.31,1.31-1.84,2.45-1.57,3.4c0.13,0.46,0.27,0.85,0.41,1.17l-0.09,0.06
			l3.03,4.71l2.32,3.99l2.4,4.59l0.72,1.59c0.43,0.94,1.12,1.35,2.07,1.24c-0.48,0.38-0.71,0.76-0.7,1.12
			c0.01,0.36,0.09,0.73,0.24,1.12c0.15,0.38,0.32,0.77,0.5,1.17l0.01,0l0.82,2.29c0.12,0.33,0.32,0.63,0.6,0.92
			c0.28,0.29,0.62,0.49,1.01,0.62c-0.24,0.34-0.38,0.68-0.43,1.02c-0.05,0.34-0.01,0.69,0.11,1.05l1.08,3.01l0.45-0.16l0.12,0.66
			c0.32,0.67,1.05,1.12,2.19,1.35c-0.62,1.06-1.04,1.9-1.29,2.52c-0.24,0.61-0.35,1.01-0.32,1.18s0.44,0.4,1.23,0.69
			c-0.38,0.58-0.47,1.36-0.29,2.35l0.76,4.1c0.18,0.99,0.61,1.87,1.27,2.65c0.66,0.77,1.07,1.4,1.22,1.88
			c0.53,0.97,0.86,2.32,0.97,4.05l2.39,0.86c-0.06-0.32-0.13-0.97-0.22-1.95c-0.09-0.97,0.14-2.29,0.68-3.96
			c0.54-1.66,0.79-3.04,0.74-4.12c-0.09-0.86-0.55-1.46-1.38-1.78c-0.82-0.32-1.55-0.48-2.19-0.46c0.89,1.82,1,3.68,0.34,5.57
			c-0.3-0.4-0.61-1.12-0.93-2.17l-0.79-4.22c-0.25-1.09-0.25-1.86-0.01-2.32c0.24-0.45,0.52-0.79,0.84-1.01
			c0.32-0.22,0.68-0.45,1.1-0.68c0.41-0.24,0.67-0.41,0.76-0.54c0.09-0.12,0.14-0.28,0.12-0.47c-0.01-0.19-0.08-0.41-0.21-0.65
			c-0.13-0.24-0.35-0.5-0.66-0.76s-0.71-0.53-1.19-0.79c-0.47-0.26-0.9-0.47-1.29-0.63c-0.38-0.16-0.66-0.33-0.82-0.5
			c-0.16-0.18-0.28-0.46-0.35-0.84l-0.3-1.6l-0.64,0.12l-0.77-2.15c0.47,0.13,0.94,0.2,1.39,0.21c0.77,0.04,1.28-0.23,1.54-0.81
			c0.26-0.58,0.3-1.26,0.13-2.04c-0.18-0.78-0.41-1.4-0.69-1.84c-0.28-0.45-0.57-0.8-0.88-1.06c-1.55-0.02-2.36-0.01-2.41,0.03
			c-0.06,0.04-0.04,0.12,0.07,0.26c0.1,0.14,0.18,0.35,0.23,0.64c0.05,0.29,0.05,0.57-0.01,0.87c-0.06,0.29-0.2,0.56-0.42,0.8
			l-1.37-3.81l-0.06,0.02c-0.16-0.36-0.24-0.73-0.25-1.09c-0.01-0.38,0.09-0.63,0.3-0.75c0.2-0.12,0.44-0.23,0.71-0.33
			c0.27-0.1,0.41-0.22,0.43-0.36c0.02-0.14-0.11-0.26-0.38-0.35c-0.27-0.09-0.62-0.14-1.05-0.14c-0.43,0-0.73-0.07-0.93-0.2
			c-0.19-0.13-0.46-0.51-0.8-1.11l-0.92-2.03l-0.07,0.03l-1.7-3.25l0.04-0.02l-0.51-0.87l-0.43-0.82l-0.04,0.02l-1.41-2.43
			l0.04-0.02l-0.53-0.83l-0.47-0.8l-0.04,0.02l-1.93-3.01l0.12-0.09c-0.16-0.22-0.39-0.59-0.67-1.12c-0.29-0.53-0.29-1.06-0.01-1.61
			c0.28-0.55,0.86-1.28,1.75-2.19c0.89-0.91,1.73-1.77,2.52-2.59l-2.01,0.16l-0.63,0.59l-4.39-2.5c-0.75,0.6-1.66,0.97-2.73,1.12
			C224.62,79.28,225.48,80.7,226.52,81.28z M246.27,116.96c0.26,0.15,0.45,0.31,0.55,0.48s0.11,0.33,0.03,0.46
			c-0.08,0.13-0.2,0.24-0.36,0.33c-0.16,0.09-0.54,0.3-1.16,0.63C245.64,117.98,245.96,117.34,246.27,116.96z M230.21,79.1
			l-1.1,1.25c-0.13,0.08-0.4-0.1-0.79-0.54c-0.4-0.44-0.82-1.13-1.25-2.05C228.38,78.69,229.43,79.15,230.21,79.1z"/>
		<path d="M234.71,106.07c0.16-0.79,0.38-1.52,0.66-2.19l-2.07-0.94c-0.5,0.76-0.71,1.52-0.62,2.26L234.71,106.07z"/>
		<path d="M231.87,99.8c-0.5,0.76-0.71,1.52-0.62,2.26l2.03,0.87c0.16-0.79,0.38-1.53,0.67-2.19L231.87,99.8z"/>
		<path d="M239.94,129.26l1.77,1.33c0.33-0.79,0.71-1.48,1.15-2.06l-1.79-1.41C240.4,127.75,240.02,128.46,239.94,129.26z"/>
		<path d="M41.92,150.64c0.48-0.66,0.69-1.54,0.65-2.66l-0.19-4.76l-10.83,0.43l0.2,4.91c0.05,1.17,0.34,2.07,0.89,2.7
			c0.55,0.63,1.28,0.93,2.21,0.9c0.67-0.03,1.23-0.22,1.67-0.58c0.44-0.36,0.74-0.85,0.9-1.49c0.21,0.52,0.54,0.92,0.97,1.2
			c0.43,0.28,0.93,0.41,1.5,0.39C40.76,151.65,41.44,151.3,41.92,150.64z M36.13,149.74c-0.25,0.34-0.65,0.52-1.21,0.54
			c-0.55,0.02-0.95-0.13-1.22-0.45c-0.27-0.32-0.41-0.83-0.44-1.54l-0.11-2.78l3.21-0.13l0.11,2.78
			C36.49,148.87,36.38,149.4,36.13,149.74z M40.71,149.27c-0.24,0.35-0.61,0.53-1.12,0.55c-1.01,0.04-1.55-0.62-1.6-1.98l-0.1-2.52
			l3.04-0.12l0.1,2.52C41.06,148.41,40.95,148.93,40.71,149.27z"/>
		<path d="M33,161.84l7.62-0.97l-0.24-1.86l-1.15,0.14c0.39-0.29,0.68-0.66,0.86-1.12c0.18-0.46,0.24-0.97,0.17-1.52
			c-0.08-0.65-0.33-1.22-0.73-1.69c-0.4-0.47-0.93-0.81-1.57-1.02c-0.65-0.21-1.36-0.27-2.15-0.17c-0.78,0.1-1.46,0.33-2.01,0.69
			c-0.56,0.36-0.97,0.81-1.22,1.37c-0.26,0.55-0.34,1.16-0.26,1.83c0.07,0.55,0.25,1.03,0.54,1.43c0.29,0.4,0.66,0.69,1.12,0.87
			l-1.22,0.15L33,161.84z M33.88,157.85c-0.08-0.63,0.07-1.15,0.45-1.55c0.38-0.4,0.96-0.65,1.75-0.75c0.8-0.1,1.44-0.01,1.93,0.28
			c0.49,0.29,0.78,0.75,0.86,1.37c0.08,0.63-0.07,1.15-0.46,1.55c-0.39,0.4-0.99,0.65-1.79,0.75c-0.78,0.1-1.42,0.01-1.89-0.28
			C34.23,158.93,33.96,158.47,33.88,157.85z"/>
		<path d="M42.12,168.1l-5.87-1.04l4.94-3.32l-0.42-1.95l-6.57,4.68l-0.6-0.12c-0.52-0.12-0.94-0.32-1.26-0.62
			c-0.32-0.3-0.63-0.79-0.94-1.45L30.04,165c0.33,0.87,0.78,1.57,1.34,2.09c0.56,0.52,1.35,0.88,2.36,1.08l8.77,1.77L42.12,168.1z"
			/>
		<path d="M44.32,175.92l-1.11,0.34c0.34-0.35,0.56-0.76,0.66-1.25c0.1-0.49,0.07-1-0.09-1.53c-0.19-0.63-0.53-1.14-1-1.54
			c-0.48-0.4-1.05-0.64-1.72-0.74c-0.67-0.1-1.39-0.03-2.14,0.2c-0.76,0.23-1.38,0.57-1.87,1.02c-0.49,0.45-0.81,0.96-0.97,1.55
			c-0.16,0.59-0.14,1.2,0.05,1.85c0.16,0.53,0.42,0.97,0.78,1.32c0.36,0.35,0.77,0.57,1.25,0.67l-1.18,0.36l0.55,1.79l7.35-2.24
			L44.32,175.92z M42.31,175.99c-0.32,0.46-0.86,0.8-1.64,1.04c-0.76,0.23-1.4,0.24-1.91,0.04c-0.52-0.2-0.87-0.61-1.05-1.21
			c-0.19-0.61-0.13-1.15,0.18-1.61c0.31-0.46,0.84-0.8,1.59-1.03c0.77-0.23,1.42-0.25,1.95-0.04c0.53,0.2,0.89,0.6,1.08,1.21
			C42.69,175,42.62,175.54,42.31,175.99z"/>
		<path d="M50.84,183.29l-4.28,1.75c0.3-0.37,0.47-0.8,0.52-1.29c0.05-0.49-0.03-0.98-0.24-1.49c-0.25-0.62-0.63-1.11-1.13-1.46
			c-0.5-0.35-1.08-0.55-1.74-0.59c-0.66-0.04-1.36,0.09-2.09,0.39c-0.73,0.3-1.33,0.7-1.79,1.2c-0.46,0.5-0.75,1.05-0.86,1.66
			c-0.11,0.61-0.05,1.21,0.2,1.82c0.21,0.52,0.51,0.93,0.89,1.25c0.39,0.31,0.82,0.5,1.3,0.55l-1.14,0.47l0.71,1.73l10.37-4.23
			L50.84,183.29z M45.6,184.91c-0.27,0.48-0.78,0.88-1.52,1.18c-0.74,0.3-1.38,0.37-1.92,0.21c-0.54-0.16-0.92-0.53-1.16-1.11
			c-0.24-0.58-0.22-1.12,0.07-1.61c0.28-0.49,0.79-0.89,1.53-1.19c0.73-0.3,1.36-0.37,1.9-0.21c0.53,0.16,0.92,0.54,1.16,1.13
			C45.89,183.89,45.88,184.42,45.6,184.91z"/>
		<path d="M45.19,194.34c-0.33-0.65-0.41-1.23-0.23-1.74c0.18-0.51,0.62-0.97,1.34-1.38l2.41,4.71l0.26-0.13
			c1.06-0.55,1.76-1.25,2.09-2.11c0.33-0.86,0.25-1.76-0.23-2.7c-0.33-0.64-0.77-1.14-1.33-1.49c-0.56-0.35-1.19-0.53-1.87-0.53
			c-0.68,0-1.38,0.17-2.07,0.53c-1.1,0.56-1.8,1.33-2.11,2.29c-0.3,0.96-0.17,2.01,0.41,3.13c0.25,0.49,0.57,0.93,0.98,1.32
			c0.4,0.39,0.81,0.69,1.24,0.88l0.92-1.08C46.17,195.66,45.57,195.09,45.19,194.34z M48.67,190.77c0.41,0.15,0.73,0.45,0.96,0.9
			c0.23,0.45,0.28,0.87,0.15,1.26c-0.13,0.39-0.44,0.75-0.93,1.06l-1.63-3.18C47.78,190.64,48.26,190.62,48.67,190.77z"/>
		<path d="M53.76,199.56c0.18,0.3,0.29,0.62,0.35,0.96l1.49-0.88c-0.04-0.22-0.14-0.46-0.29-0.71c-0.27-0.45-0.63-0.79-1.07-1.01
			c-0.44-0.22-0.92-0.28-1.45-0.19l1.08-0.83l-0.92-1.52c-0.51,0.4-1.11,0.81-1.8,1.23l-4.72,2.84l0.97,1.62l3.56-2.15
			c0.53-0.32,1.04-0.43,1.54-0.33C53.01,198.68,53.43,199,53.76,199.56z"/>
		<path d="M59.76,208.06l1.15-0.85l-1.02-1.38l0.53-0.39c0.73-0.54,1.33-0.48,1.82,0.18c0.13,0.17,0.25,0.39,0.36,0.66l1.21-0.9
			c-0.1-0.33-0.29-0.69-0.57-1.07c-0.51-0.69-1.11-1.08-1.78-1.15c-0.67-0.08-1.37,0.16-2.1,0.7l-0.6,0.44l-0.87-1.17l-1.15,0.85
			l0.87,1.17l-5.02,3.73l1.13,1.53l5.02-3.73L59.76,208.06z"/>
		<path d="M64.89,214.58c0.25-0.63,0.31-1.28,0.17-1.94c-0.14-0.66-0.45-1.28-0.96-1.87c-0.51-0.59-1.08-1.01-1.71-1.25
			c-0.63-0.24-1.28-0.29-1.95-0.14c-0.67,0.15-1.31,0.49-1.92,1.01c-0.62,0.53-1.05,1.11-1.3,1.74c-0.25,0.64-0.31,1.28-0.17,1.95
			c0.14,0.66,0.46,1.29,0.97,1.88c0.5,0.59,1.07,1,1.7,1.23c0.63,0.24,1.28,0.28,1.94,0.13c0.67-0.15,1.31-0.49,1.93-1.02
			C64.2,215.8,64.64,215.22,64.89,214.58z M63.44,213.26c-0.1,0.54-0.47,1.08-1.09,1.61c-0.63,0.54-1.22,0.82-1.76,0.83
			c-0.54,0.01-1.02-0.22-1.44-0.72c-0.42-0.49-0.57-0.99-0.47-1.53c0.1-0.53,0.47-1.07,1.1-1.61c0.62-0.53,1.21-0.81,1.77-0.83
			c0.55-0.02,1.03,0.22,1.45,0.7C63.39,212.21,63.55,212.72,63.44,213.26z"/>
		<path d="M70.64,217.79c-0.37-0.38-0.8-0.62-1.28-0.73c-0.48-0.11-0.96-0.06-1.45,0.15l0.86-1.06l-1.25-1.27
			c-0.4,0.51-0.89,1.05-1.46,1.62l-3.92,3.87l1.33,1.34l2.96-2.92c0.44-0.44,0.91-0.66,1.42-0.69c0.51-0.02,0.99,0.2,1.44,0.66
			c0.24,0.25,0.43,0.53,0.56,0.85l1.25-1.21C70.99,218.2,70.84,217.99,70.64,217.79z"/>
		<polygon points="74.56,225.5 78.45,228.65 79.43,227.44 75.54,224.3 77.42,221.96 81.56,225.31 82.54,224.11 76.91,219.55 
			70.09,227.98 75.73,232.53 76.7,231.33 72.56,227.98 		"/>
		<path d="M85.59,229.77c-0.47-0.32-0.96-0.5-1.48-0.54c-0.52-0.04-1.01,0.06-1.49,0.3l0.59-1.12l-1.48-0.99
			c-0.29,0.58-0.66,1.2-1.11,1.87l-3.08,4.57l1.57,1.05l2.43-3.61c0.34-0.5,0.76-0.81,1.26-0.92c0.5-0.11,0.99,0,1.47,0.32
			c0.4,0.27,0.62,0.59,0.66,0.95c0.04,0.36-0.11,0.8-0.45,1.3l-2.58,3.84l1.58,1.06l2.63-3.91
			C87.29,232.18,87.12,230.8,85.59,229.77z"/>
		<polygon points="89.48,238.82 90.23,232.93 88.49,231.96 87.65,240.28 89.1,241.08 95.77,236.02 94.13,235.11 		"/>
		<rect x="92.92" y="241.35" transform="matrix(0.4404 -0.8978 0.8978 0.4404 -165.0469 220.0327)" width="2.13" height="2.13"/>
		<path d="M107.15,242.18l-1.49-0.61c-0.45,1-1.04,1.82-1.76,2.46l-1.15-2.87c0.84-0.12,1.49-0.32,1.95-0.62
			c0.46-0.29,0.8-0.69,1.01-1.2c0.27-0.66,0.26-1.28-0.03-1.85c-0.29-0.58-0.81-1.02-1.56-1.33c-0.82-0.33-1.57-0.39-2.25-0.16
			c-0.68,0.23-1.17,0.69-1.46,1.4c-0.15,0.37-0.21,0.76-0.18,1.17c0.03,0.42,0.14,0.91,0.35,1.47c-0.91,0.11-1.63,0.33-2.16,0.66
			c-0.53,0.33-0.92,0.8-1.17,1.41c-0.22,0.53-0.27,1.07-0.15,1.6c0.12,0.53,0.39,1.02,0.82,1.46c0.43,0.44,0.98,0.8,1.66,1.08
			c1.14,0.46,2.3,0.47,3.5,0.03c0.37,0.76,0.9,1.45,1.59,2.06l1.37-0.86c-0.68-0.57-1.19-1.23-1.53-1.97
			C105.6,244.73,106.48,243.62,107.15,242.18z M102.01,238.05c0.14-0.35,0.36-0.58,0.66-0.7c0.3-0.12,0.62-0.11,0.96,0.03
			c0.31,0.13,0.52,0.32,0.63,0.59c0.11,0.26,0.1,0.55-0.02,0.86c-0.12,0.29-0.33,0.52-0.63,0.67c-0.3,0.16-0.76,0.28-1.37,0.37
			c-0.17-0.49-0.28-0.86-0.31-1.11C101.9,238.5,101.92,238.26,102.01,238.05z M100.18,244.91c-0.55-0.22-0.92-0.53-1.14-0.92
			c-0.21-0.39-0.23-0.82-0.04-1.27c0.16-0.39,0.4-0.69,0.73-0.9c0.33-0.22,0.78-0.37,1.34-0.47l1.43,3.56
			C101.69,245.21,100.92,245.21,100.18,244.91z"/>
		<path d="M117.79,240.79l-3.87-0.94l-2.57,10.53l3.87,0.95c1.72,0.42,3.17,0.29,4.35-0.4c1.18-0.69,1.97-1.87,2.38-3.55
			c0.41-1.66,0.25-3.07-0.48-4.22C120.74,241.99,119.51,241.21,117.79,240.79z M120.02,246.9c-0.61,2.48-2.12,3.43-4.55,2.84
			l-1.85-0.45l1.81-7.42l1.85,0.45C119.71,242.9,120.62,244.43,120.02,246.9z"/>
		<path d="M127.53,245.7c-0.71-0.1-1.37-0.03-1.99,0.23c-0.61,0.26-1.12,0.66-1.51,1.22c-0.4,0.56-0.65,1.22-0.76,2
			c-0.18,1.23,0.04,2.24,0.65,3.05c0.61,0.81,1.54,1.3,2.79,1.48c0.54,0.08,1.09,0.07,1.64-0.03c0.55-0.1,1.03-0.27,1.43-0.51
			l-0.36-1.37c-0.79,0.44-1.6,0.6-2.44,0.48c-0.72-0.1-1.24-0.38-1.55-0.81c-0.31-0.44-0.43-1.07-0.35-1.89l5.24,0.75l0.04-0.29
			c0.17-1.18,0-2.16-0.51-2.92C129.35,246.31,128.57,245.85,127.53,245.7z M125.29,248.53c0.17-0.55,0.44-0.95,0.8-1.2
			c0.36-0.25,0.79-0.34,1.29-0.27c0.5,0.07,0.88,0.27,1.12,0.61c0.24,0.33,0.36,0.79,0.33,1.37L125.29,248.53z"/>
		<polygon points="135.06,252.22 133.21,246.58 131.22,246.45 134.04,254.32 135.69,254.43 139.54,246.99 137.66,246.87 		"/>
		<rect x="139.61" y="252.47" transform="matrix(0.012 -0.9999 0.9999 0.012 -114.5237 391.1583)" width="2.13" height="2.13"/>
		<path d="M151.26,243.36l-3.8,11.27l1.97-0.2l0.84-2.64l5.27-0.52l1.33,2.42l1.95-0.19l-5.96-10.3L151.26,243.36z M150.76,250.21
			l1.53-4.81l2.44,4.42L150.76,250.21z"/>
		<path d="M164.96,248.59c-0.41-0.29-1.01-0.45-1.79-0.47l-1.34-0.04c-0.37-0.02-0.63-0.09-0.8-0.19c-0.17-0.1-0.27-0.26-0.32-0.48
			c-0.05-0.28,0.02-0.52,0.23-0.73c0.21-0.21,0.53-0.35,0.96-0.43c0.8-0.15,1.63-0.02,2.49,0.39l0.31-1.38
			c-0.44-0.24-0.92-0.39-1.45-0.46c-0.53-0.07-1.06-0.05-1.6,0.05c-0.62,0.12-1.14,0.32-1.57,0.61c-0.43,0.29-0.74,0.64-0.93,1.04
			c-0.19,0.4-0.24,0.83-0.16,1.29c0.21,1.11,1.03,1.68,2.47,1.71l1.31,0.04c0.43,0.02,0.74,0.08,0.93,0.19
			c0.19,0.1,0.31,0.27,0.36,0.5c0.05,0.27-0.03,0.5-0.25,0.7c-0.22,0.2-0.55,0.34-1,0.42c-1.04,0.2-2.01,0.08-2.94-0.37l-0.27,1.42
			c0.93,0.48,2.08,0.59,3.44,0.33c0.97-0.18,1.69-0.53,2.17-1.05c0.48-0.51,0.65-1.12,0.52-1.82
			C165.63,249.3,165.37,248.87,164.96,248.59z"/>
		<path d="M172.57,246.63c-0.43-0.26-1.04-0.37-1.82-0.34l-1.34,0.06c-0.37,0-0.64-0.04-0.81-0.13c-0.18-0.09-0.29-0.24-0.35-0.46
			c-0.07-0.27-0.01-0.52,0.18-0.74c0.19-0.22,0.5-0.39,0.92-0.5c0.78-0.21,1.62-0.14,2.51,0.21l0.21-1.4
			c-0.45-0.2-0.95-0.32-1.48-0.35c-0.53-0.03-1.06,0.03-1.59,0.17c-0.61,0.16-1.11,0.41-1.52,0.73c-0.41,0.32-0.69,0.69-0.85,1.1
			c-0.16,0.42-0.18,0.85-0.06,1.3c0.29,1.09,1.16,1.6,2.59,1.53l1.31-0.05c0.43-0.01,0.74,0.03,0.95,0.12
			c0.2,0.09,0.33,0.24,0.4,0.47c0.07,0.26,0.01,0.5-0.19,0.71c-0.2,0.21-0.52,0.38-0.96,0.49c-1.02,0.27-2,0.22-2.96-0.15
			l-0.17,1.43c0.96,0.41,2.11,0.44,3.46,0.08c0.95-0.26,1.64-0.66,2.09-1.21c0.44-0.55,0.57-1.17,0.38-1.85
			C173.3,247.3,173.01,246.89,172.57,246.63z"/>
		<path d="M180.55,241.36c-0.5-0.46-1.09-0.74-1.75-0.85c-0.66-0.11-1.36-0.03-2.08,0.23c-0.74,0.26-1.33,0.65-1.78,1.15
			c-0.45,0.51-0.72,1.1-0.82,1.77c-0.1,0.68-0.01,1.4,0.26,2.16s0.66,1.38,1.17,1.84c0.5,0.46,1.09,0.74,1.76,0.85
			c0.67,0.11,1.37,0.03,2.11-0.24c0.73-0.26,1.31-0.64,1.76-1.15c0.44-0.5,0.72-1.09,0.81-1.77c0.1-0.68,0.01-1.4-0.26-2.16
			C181.44,242.43,181.05,241.82,180.55,241.36z M180.08,245.78c-0.18,0.51-0.57,0.88-1.18,1.09c-0.6,0.21-1.13,0.18-1.6-0.1
			c-0.46-0.28-0.83-0.81-1.11-1.6c-0.28-0.77-0.33-1.42-0.15-1.94c0.18-0.52,0.57-0.89,1.17-1.11c0.59-0.21,1.12-0.17,1.59,0.12
			c0.47,0.29,0.84,0.82,1.12,1.59C180.2,244.62,180.25,245.27,180.08,245.78z"/>
		<path d="M188.75,242.57c-0.27,0.28-0.57,0.49-0.9,0.64c-0.64,0.29-1.22,0.32-1.74,0.09c-0.52-0.23-0.95-0.72-1.29-1.46
			c-0.33-0.74-0.42-1.39-0.24-1.94c0.17-0.55,0.57-0.97,1.2-1.25c0.32-0.15,0.68-0.23,1.07-0.26s0.79,0.01,1.19,0.12l-0.07-1.44
			c-0.4-0.15-0.87-0.2-1.41-0.15c-0.54,0.05-1.06,0.19-1.56,0.42c-0.72,0.33-1.29,0.77-1.7,1.33s-0.64,1.18-0.69,1.87
			c-0.05,0.69,0.09,1.4,0.42,2.13c0.33,0.73,0.76,1.3,1.29,1.71c0.53,0.41,1.13,0.64,1.8,0.7c0.67,0.05,1.37-0.09,2.1-0.42
			c0.52-0.23,0.98-0.54,1.38-0.91c0.4-0.37,0.69-0.76,0.86-1.17l-1.04-1C189.25,241.96,189.02,242.29,188.75,242.57z"/>
		<rect x="190.4" y="234.89" transform="matrix(0.8865 -0.4627 0.4627 0.8865 -88.7457 115.6206)" width="1.89" height="7.69"/>
		<rect x="187.32" y="232.13" transform="matrix(0.8863 -0.463 0.463 0.8863 -86.5087 113.7147)" width="2.12" height="1.87"/>
		<path d="M196.88,231.14l0.6,0.99c-0.42-0.24-0.88-0.35-1.38-0.33c-0.5,0.02-0.98,0.18-1.46,0.47c-0.56,0.34-0.98,0.79-1.24,1.35
			c-0.27,0.56-0.36,1.18-0.29,1.85c0.07,0.68,0.31,1.35,0.72,2.03c0.41,0.68,0.89,1.2,1.45,1.56c0.55,0.36,1.13,0.55,1.75,0.56
			c0.61,0.01,1.2-0.16,1.77-0.51c0.48-0.29,0.84-0.65,1.09-1.08c0.25-0.43,0.36-0.89,0.34-1.37l0.64,1.05l1.6-0.97l-3.99-6.57
			L196.88,231.14z M199.37,236.24c-0.07,0.55-0.37,0.99-0.91,1.32c-0.55,0.33-1.08,0.41-1.6,0.22c-0.52-0.18-0.99-0.61-1.4-1.29
			c-0.42-0.69-0.59-1.31-0.53-1.88c0.07-0.57,0.37-1.01,0.9-1.34c0.55-0.33,1.08-0.4,1.6-0.21c0.52,0.19,0.99,0.64,1.41,1.33
			C199.27,235.08,199.44,235.69,199.37,236.24z"/>
		<path d="M206.71,231.95c-0.69,0.49-1.29,0.37-1.81-0.37l-1.99-2.8l1.66-1.18l-0.83-1.17l-1.66,1.18l-1.46-2.05l-1.18,1.62
			l1.09,1.52l-1.2,0.86l0.83,1.17l1.2-0.86l2.05,2.88c0.53,0.74,1.12,1.18,1.79,1.31c0.66,0.13,1.35-0.06,2.06-0.57
			c0.39-0.28,0.68-0.56,0.89-0.86l-0.87-1.23C207.09,231.63,206.9,231.81,206.71,231.95z"/>
		<rect x="206.9" y="224.24" transform="matrix(0.7866 -0.6175 0.6175 0.7866 -96.4766 177.0116)" width="1.89" height="7.68"/>
		<rect x="202.83" y="222.12" transform="matrix(0.7866 -0.6174 0.6174 0.7866 -94.2144 173.473)" width="2.12" height="1.87"/>
		<path d="M215.84,221.18c-0.54-0.61-1.13-1.03-1.77-1.27c-0.64-0.24-1.29-0.28-1.94-0.13c-0.66,0.15-1.27,0.48-1.85,0.99
			c-0.58,0.52-0.99,1.1-1.22,1.73c-0.23,0.64-0.26,1.29-0.1,1.95c0.16,0.66,0.51,1.3,1.05,1.9c0.54,0.61,1.13,1.03,1.77,1.27
			c0.64,0.24,1.29,0.28,1.95,0.13c0.66-0.15,1.28-0.49,1.86-1.01c0.57-0.51,0.97-1.09,1.2-1.72c0.22-0.63,0.25-1.28,0.09-1.95
			C216.73,222.42,216.38,221.79,215.84,221.18z M214.6,225.65c-0.48,0.43-0.98,0.59-1.52,0.5c-0.53-0.09-1.08-0.44-1.63-1.06
			c-0.55-0.61-0.83-1.2-0.86-1.75c-0.03-0.55,0.19-1.04,0.67-1.46c0.47-0.42,0.98-0.58,1.52-0.49c0.54,0.09,1.09,0.45,1.64,1.06
			c0.55,0.62,0.84,1.2,0.87,1.74C215.32,224.73,215.09,225.21,214.6,225.65z"/>
		<path d="M217.29,213.91c-0.39,0.41-0.65,0.87-0.77,1.37c-0.13,0.5-0.11,1.01,0.05,1.52l-1.01-0.77l-1.22,1.3
			c0.52,0.38,1.08,0.85,1.67,1.4l4.01,3.78l1.29-1.37l-3.17-2.99c-0.44-0.42-0.68-0.88-0.7-1.4c-0.03-0.51,0.16-0.98,0.56-1.4
			c0.33-0.35,0.68-0.52,1.05-0.5c0.36,0.02,0.77,0.24,1.21,0.66l3.37,3.17l1.31-1.38l-3.43-3.24
			C219.95,212.63,218.55,212.57,217.29,213.91z"/>
		<path d="M227.56,207.54c-0.87-0.65-1.65-1.38-2.36-2.18c-0.71-0.8-1.43-1.83-2.17-3.09l-0.94,1.24c0.52,1.23,1.13,2.29,1.82,3.18
			c0.69,0.89,1.51,1.7,2.46,2.41c0.95,0.71,1.94,1.28,2.97,1.7c1.03,0.42,2.24,0.72,3.61,0.9l0.92-1.21
			c-1.42-0.4-2.61-0.82-3.57-1.29C229.33,208.75,228.42,208.19,227.56,207.54z"/>
		<path d="M235.1,198.28c-0.56-0.36-1.13-0.52-1.7-0.48c-0.57,0.04-1.1,0.27-1.59,0.71c0.12-0.55,0.09-1.06-0.1-1.54
			c-0.19-0.48-0.53-0.87-1.01-1.18c-0.74-0.48-1.5-0.58-2.27-0.31c-0.77,0.27-1.45,0.87-2.05,1.81l-2.57,4.01l9.12,5.85l2.65-4.14
			c0.63-0.98,0.9-1.89,0.82-2.72C236.3,199.44,235.87,198.78,235.1,198.28z M226.12,200.49l1.36-2.13c0.37-0.58,0.76-0.94,1.15-1.09
			c0.39-0.14,0.81-0.08,1.23,0.19c0.85,0.55,0.91,1.39,0.18,2.54l-1.36,2.13L226.12,200.49z M234.18,202.36l-1.5,2.34l-2.7-1.73
			l1.5-2.34c0.38-0.6,0.78-0.96,1.17-1.1c0.4-0.13,0.84-0.05,1.3,0.25c0.46,0.3,0.71,0.65,0.75,1.07
			C234.74,201.25,234.56,201.76,234.18,202.36z"/>
		<path d="M234.39,189.41l1.03,0.53c-0.48,0.01-0.93,0.16-1.34,0.44c-0.41,0.28-0.75,0.67-1,1.16c-0.3,0.59-0.42,1.19-0.35,1.8
			c0.07,0.61,0.31,1.19,0.72,1.73c0.41,0.54,0.97,0.99,1.68,1.35c0.7,0.36,1.39,0.55,2.05,0.57c0.66,0.02,1.26-0.13,1.78-0.44
			c0.52-0.31,0.94-0.77,1.25-1.36c0.25-0.5,0.38-0.99,0.36-1.49c-0.01-0.5-0.16-0.95-0.43-1.35l1.1,0.56l0.85-1.67l-6.84-3.51
			L234.39,189.41z M237.79,191.15c0.7,0.36,1.17,0.79,1.4,1.3c0.23,0.51,0.2,1.04-0.08,1.6c-0.29,0.57-0.71,0.91-1.25,1.03
			c-0.54,0.12-1.16-0.01-1.86-0.37c-0.71-0.37-1.19-0.81-1.43-1.33c-0.24-0.52-0.22-1.06,0.07-1.62c0.29-0.57,0.71-0.91,1.26-1.01
			C236.44,190.65,237.07,190.78,237.79,191.15z"/>
		<path d="M245.05,185.61l-6.23-6.42l-0.72,1.75l4.26,4.18l-5.95-0.05l-0.76,1.84l8.07-0.15l0.43,0.44c0.37,0.39,0.6,0.8,0.69,1.23
			c0.09,0.43,0.08,1-0.04,1.73l1.51,0.16c0.22-0.91,0.24-1.74,0.08-2.48C246.23,187.09,245.78,186.35,245.05,185.61z"/>
		<path d="M240.69,173.25l1.1,0.35c-0.48,0.09-0.89,0.32-1.25,0.66c-0.36,0.34-0.62,0.78-0.79,1.32c-0.2,0.63-0.21,1.24-0.04,1.84
			c0.17,0.6,0.5,1.12,1,1.58c0.5,0.46,1.13,0.81,1.88,1.05c0.75,0.24,1.46,0.31,2.12,0.22c0.66-0.09,1.22-0.34,1.68-0.73
			s0.8-0.91,1-1.55c0.17-0.53,0.2-1.04,0.11-1.53c-0.1-0.49-0.31-0.91-0.65-1.26l1.18,0.37l0.56-1.79l-7.33-2.3L240.69,173.25z
			 M244.34,174.39c0.75,0.24,1.29,0.59,1.6,1.05c0.31,0.46,0.38,0.99,0.19,1.59c-0.19,0.61-0.54,1.02-1.05,1.22
			c-0.51,0.21-1.14,0.19-1.9-0.05c-0.76-0.24-1.31-0.59-1.64-1.06c-0.33-0.47-0.4-1-0.21-1.6c0.19-0.61,0.55-1.01,1.07-1.21
			C242.92,174.13,243.56,174.15,244.34,174.39z"/>
		<path d="M239.48,163.47l4.52,0.98c-0.46,0.14-0.84,0.4-1.16,0.77c-0.31,0.37-0.53,0.83-0.64,1.36c-0.14,0.65-0.11,1.27,0.11,1.84
			c0.21,0.58,0.58,1.07,1.11,1.47c0.52,0.4,1.17,0.69,1.95,0.86c0.77,0.17,1.49,0.17,2.15,0.02c0.66-0.15,1.21-0.45,1.65-0.88
			c0.44-0.44,0.72-0.97,0.86-1.62c0.12-0.55,0.11-1.06-0.03-1.53c-0.14-0.48-0.4-0.87-0.76-1.19l1.21,0.26l0.39-1.83l-10.95-2.36
			L239.48,163.47z M244.72,165.1c0.5-0.24,1.14-0.28,1.92-0.11c0.78,0.17,1.35,0.47,1.7,0.9c0.35,0.43,0.46,0.96,0.33,1.57
			c-0.13,0.62-0.45,1.05-0.96,1.29c-0.51,0.25-1.16,0.29-1.94,0.12c-0.77-0.17-1.33-0.47-1.68-0.9c-0.35-0.43-0.45-0.96-0.32-1.59
			C243.9,165.78,244.22,165.35,244.72,165.1z"/>
		<path d="M251.24,154.73l-1.37,0.38c0.45,0.78,0.62,1.59,0.52,2.43c-0.09,0.72-0.35,1.25-0.79,1.56c-0.43,0.32-1.06,0.44-1.88,0.38
			l0.67-5.25l-0.29-0.04c-1.19-0.15-2.16,0.03-2.92,0.56c-0.76,0.52-1.2,1.31-1.34,2.35c-0.09,0.71,0,1.37,0.26,1.98
			c0.26,0.61,0.68,1.1,1.24,1.49c0.56,0.39,1.23,0.63,2.01,0.73c1.23,0.16,2.24-0.08,3.03-0.7c0.8-0.62,1.27-1.56,1.43-2.81
			c0.07-0.54,0.05-1.09-0.06-1.64S251.48,155.13,251.24,154.73z M246.71,159.3c-0.55-0.16-0.96-0.42-1.21-0.78
			c-0.26-0.35-0.35-0.78-0.29-1.29c0.06-0.5,0.26-0.88,0.59-1.13c0.33-0.25,0.78-0.37,1.36-0.36L246.71,159.3z"/>
		<path d="M246.74,149.93c-0.35-0.36-0.51-0.87-0.48-1.51c0.02-0.34,0.11-0.67,0.26-0.99l-1.73-0.12c-0.09,0.21-0.15,0.46-0.17,0.75
			c-0.03,0.53,0.07,1.01,0.31,1.44c0.24,0.43,0.6,0.76,1.09,0.98l-1.36,0.07l-0.1,1.78c0.64-0.04,1.37-0.04,2.18,0.01l5.5,0.32
			l0.11-1.88l-4.15-0.24C247.58,150.49,247.09,150.29,246.74,149.93z"/>
		<path d="M251.87,143.75c-1.08-0.3-2.21-0.45-3.39-0.45c-1.19,0-2.33,0.14-3.42,0.44c-1.09,0.3-2.22,0.78-3.37,1.45l0,1.52
			c1.35-0.54,2.55-0.92,3.59-1.13c1.05-0.21,2.11-0.31,3.2-0.31c1.08,0,2.14,0.11,3.19,0.33c1.05,0.22,2.26,0.59,3.63,1.13l0-1.52
			C254.1,144.53,252.95,144.05,251.87,143.75z"/>
	</g>
</g>
</svg>
