<?xml version="1.0" encoding="utf-8"?>
<!-- Generator: Adobe Illustrator 25.0.0, SVG Export Plug-In . SVG Version: 6.00 Build 0)  -->
<svg version="1.1" id="Layer_1" xmlns="http://www.w3.org/2000/svg" xmlns:xlink="http://www.w3.org/1999/xlink" x="0px" y="0px"
	 viewBox="0 0 283.46 283.46" style="enable-background:new 0 0 283.46 283.46;" xml:space="preserve">
<style type="text/css">
	.st0{fill:#86298A;}
	.st1{fill:#D4AD69;}
</style>
<g>
	<path class="st0" d="M218.4,84.84c-0.97-4.97-2.41-9.78-4.4-14.43c-0.03-0.08-0.07-0.15-0.1-0.22l-0.48-1.1h-1.44
		c-0.41,0-0.81,0-1.22,0c-27.62,0.04-55.25,0.03-82.87,0.03c-4.73,0-9.25,0.98-13.41,3.2c-9.52,5.09-15.14,12.71-15.16,23.83h0v1.33
		l1.35-0.01h0c12.09-0.03,24.18-0.02,36.28-0.02c8.33,0,16.67,0.01,25-0.01c0.67,0,1.34,0,2.01-0.01l2.33-0.01
		c0.08,0,0.15,0,0.21,0.01h0.77v0.7c0,0.07,0,0.15,0,0.24c-0.06,1.43-0.01,2.87-0.02,4.3c0,0.03,0,0.06,0,0.08
		c-0.1,5.78-4.57,10.18-10.36,10.18c-17.96,0-35.92,0-53.88,0c-6.17,0-12.34-0.01-18.5,0c-0.12,0-0.23,0-0.34-0.01l-0.57-0.01
		c-0.01-0.35-0.05-0.69-0.12-1.03c-0.08-0.41-0.16-0.83-0.24-1.23c-0.01-0.03-0.01-0.07-0.02-0.1c-0.29-1.59-0.5-3.15-0.65-4.65
		c-0.01-0.18-0.02-0.36-0.02-0.53c-0.09-3.73-0.01-7.46-0.09-11.19c-0.01-0.41-0.01-0.82,0.01-1.22c0-0.01,0-0.01,0-0.02
		c0.05-1.17,0.2-2.32,0.41-3.46c0-0.02,0.01-0.03,0.01-0.04c0-0.01,0.01-0.03,0.01-0.04c0.01-0.03,0.01-0.05,0.01-0.07
		c0.01-0.05,0.01-0.07,0.01-0.07l0,0c0.27-1.38,0.64-2.74,1.05-4.1c1.55-5.21,3.99-9.99,7.24-14.34c2.47-3.3,5.31-6.22,8.56-8.75
		c3.78-2.95,7.9-5.27,12.39-6.95c4.71-1.76,9.57-2.87,14.57-2.88c24.27-0.07,48.54-0.03,72.81-0.03h1.7l-0.64-0.55
		c-0.02-0.02-0.04-0.03-0.06-0.05l-0.06-0.06c-1.48-1.4-3.01-2.73-4.61-3.99c-5.59-4.4-11.71-7.82-18.41-10.21
		c-4.02-1.44-8.15-2.44-12.38-3.07c-2.66-0.4-5.34-0.69-8.01-0.74c-6.22-0.13-12.45-0.07-18.68-0.03
		c-5.38,0.03-10.77-0.2-16.14,0.36c-2.79,0.29-5.56,0.68-8.28,1.31c-6.03,1.41-11.77,3.58-17.18,6.63
		c-4.49,2.53-8.64,5.52-12.44,8.99c-4.17,3.81-7.64,8.21-10.63,13c-5.98,9.55-9.85,19.76-9.9,31.19c-0.01,2.95-0.12,5.92,0.11,8.86
		c0.32,4.19,0.96,8.35,1.94,12.45c1.16,4.86,2.68,9.6,4.71,14.17c0.27,0.6,0.61,0.81,1.29,0.81c28.75-0.02,57.49-0.02,86.24-0.03
		c2.16,0,4.28-0.38,6.34-0.98c5.95-1.74,10.91-4.99,14.8-9.83c4.03-5,6.15-10.75,6.35-17.14c0.11-3.48,0.08-6.97,0.06-10.46
		c-0.01-0.58-0.01-1.15-0.01-1.73c-0.01-0.9-0.01-1.8-0.01-2.7c0-0.12,0-0.23,0.01-0.33v-0.57h0.6c0.05,0,0.1-0.01,0.16-0.01
		c0.42,0,0.84,0.01,1.26,0.01c1.11,0.01,2.21,0.01,3.32,0.01c3.04,0.01,6.07,0,9.11-0.01c0.53,0,0.77,0.2,0.89,0.71
		c0.48,2.09,0.9,4.22,0.99,6.34c0.16,4.01,0.2,8.04,0.02,12.04c-0.15,3.2-1.15,6.28-2.25,9.29c-2.88,7.91-7.62,14.52-14.07,19.9
		c-3.25,2.71-6.83,4.9-10.72,6.61c-5.77,2.53-11.77,3.93-18.06,3.93c-23.84,0.02-47.68,0.01-71.53,0.01c-0.34,0-0.69-0.01-1.03,0
		h-1.07l0.5,0.44v0l0.16,0.14c0.02,0.02,0.04,0.03,0.06,0.04c0.02,0.02,0.05,0.04,0.07,0.05c0.86,0.72,1.63,1.52,2.48,2.25
		c3.83,3.32,8.02,6.11,12.5,8.45c5.28,2.76,10.86,4.71,16.71,5.92c3.48,0.72,6.99,1.23,10.53,1.3c5.16,0.1,10.33,0.1,15.49,0.06
		c6.48-0.04,12.96,0.24,19.44-0.2c3.68-0.25,7.3-0.93,10.88-1.83c6.55-1.65,12.7-4.25,18.39-7.89c6.83-4.36,12.72-9.75,17.61-16.21
		c3.2-4.22,5.9-8.73,7.75-13.71c1.19-3.21,1.91-6.53,2.58-9.87c0.78-3.85,1.22-7.76,1.43-11.66
		C220.19,97.33,219.61,91.06,218.4,84.84z M141.97,38.58c2.77,0.01,4.92,2.25,4.89,5.11c-0.02,2.73-2.26,4.89-5.04,4.88
		c-2.79-0.01-4.96-2.24-4.94-5.07C136.9,40.68,139.09,38.57,141.97,38.58z M149.28,158.9h-8.17c-2.7,0-5.39,0-8.09,0
		c-1.77,0-3.09-1.32-3.09-3.09c0-1.8,1.29-3.12,3.05-3.12c5.45,0,10.9,0,16.35,0c1.75,0,3.06,1.35,3.06,3.13
		C152.38,157.54,151.01,158.9,149.28,158.9z"/>
	<g>
		<path class="st1" d="M50.79,216.23c-0.2-0.2-0.44-0.36-0.7-0.47c-0.26-0.11-0.55-0.17-0.85-0.17c-0.3,0-0.58,0.06-0.85,0.17
			c-0.26,0.11-0.5,0.27-0.7,0.47c-0.2,0.2-0.36,0.44-0.47,0.7c-0.11,0.26-0.17,0.55-0.17,0.85c0,0.3,0.06,0.58,0.17,0.85
			c0.11,0.26,0.27,0.49,0.47,0.69c0.2,0.2,0.44,0.35,0.7,0.46c0.26,0.11,0.55,0.17,0.85,0.17c0.3,0,0.58-0.06,0.85-0.17
			c0.26-0.11,0.5-0.27,0.7-0.46c0.2-0.2,0.36-0.43,0.47-0.69c0.11-0.26,0.17-0.55,0.17-0.85c0-0.3-0.06-0.58-0.17-0.85
			C51.15,216.67,50.99,216.43,50.79,216.23z"/>
		<path class="st1" d="M53.53,204.4c0,0.39-0.07,0.75-0.21,1.08c-0.14,0.33-0.34,0.62-0.59,0.87c-0.25,0.25-0.54,0.44-0.87,0.59
			c-0.33,0.14-0.69,0.21-1.06,0.21h-2.71h-1.88h-2.49v-26.12h-4.29V210c0,0.95-0.2,1.78-0.6,2.5c-0.4,0.72-0.92,1.31-1.57,1.79
			c-0.65,0.47-1.39,0.83-2.21,1.06c-0.83,0.23-1.67,0.35-2.53,0.35c-0.87,0-1.72-0.12-2.55-0.35c-0.83-0.23-1.57-0.59-2.21-1.06
			c-0.65-0.47-1.17-1.07-1.57-1.78c-0.4-0.72-0.6-1.55-0.6-2.5v-16.45h-4.29v16.45c0,1.67,0.32,3.13,0.96,4.37
			c0.64,1.24,1.49,2.28,2.54,3.11c1.05,0.83,2.26,1.45,3.6,1.87c1.35,0.41,2.72,0.62,4.12,0.62c1.28,0,2.55-0.18,3.8-0.54
			c1.25-0.36,2.38-0.9,3.4-1.62c1.02-0.72,1.88-1.6,2.58-2.67c0.7-1.06,1.15-2.3,1.34-3.72h2.58h1.88h2.71
			c0.96,0,1.87-0.18,2.73-0.55c0.85-0.37,1.6-0.87,2.23-1.5c0.64-0.63,1.14-1.37,1.51-2.23c0.37-0.85,0.56-1.77,0.56-2.75v-14.87
			h-4.29V204.4z"/>
		<path class="st1" d="M57.19,216.23c-0.2-0.2-0.43-0.36-0.69-0.47c-0.26-0.11-0.55-0.17-0.85-0.17c-0.3,0-0.59,0.06-0.85,0.17
			c-0.27,0.11-0.5,0.27-0.7,0.47c-0.2,0.2-0.36,0.44-0.48,0.7c-0.11,0.26-0.17,0.55-0.17,0.85c0,0.3,0.06,0.58,0.17,0.85
			c0.11,0.26,0.27,0.49,0.48,0.69c0.2,0.2,0.44,0.35,0.7,0.46c0.26,0.11,0.55,0.17,0.85,0.17c0.61,0,1.12-0.21,1.54-0.63
			c0.42-0.42,0.64-0.93,0.64-1.54c0-0.3-0.06-0.58-0.17-0.85C57.54,216.67,57.39,216.43,57.19,216.23z"/>
		<path class="st1" d="M77.01,204.4c0,0.39-0.07,0.75-0.21,1.08c-0.14,0.33-0.34,0.62-0.59,0.87c-0.25,0.25-0.54,0.44-0.87,0.59
			c-0.33,0.14-0.69,0.21-1.06,0.21h-2.69h-1.9h-0.11c-0.38,0-0.73-0.07-1.06-0.21c-0.33-0.14-0.62-0.34-0.87-0.59
			c-0.25-0.25-0.44-0.54-0.59-0.87c-0.14-0.33-0.21-0.69-0.21-1.06v-23.39h-4.29v23.39c0,0.96,0.18,1.87,0.55,2.72
			c0.37,0.85,0.87,1.59,1.51,2.23c0.64,0.63,1.39,1.13,2.24,1.5c0.85,0.37,1.76,0.55,2.72,0.55h0.11h1.9h2.69
			c0.96,0,1.87-0.18,2.73-0.55c0.85-0.37,1.6-0.87,2.23-1.5c0.64-0.63,1.14-1.37,1.51-2.23c0.37-0.85,0.56-1.77,0.56-2.75v-14.87
			h-4.29V204.4z"/>
		<path class="st1" d="M79.1,215.54c-0.3,0-0.59,0.06-0.85,0.17c-0.27,0.11-0.5,0.27-0.7,0.46c-0.2,0.2-0.36,0.43-0.48,0.69
			c-0.11,0.26-0.17,0.55-0.17,0.85c0,0.3,0.06,0.58,0.17,0.85c0.11,0.26,0.27,0.5,0.48,0.7c0.2,0.2,0.44,0.36,0.7,0.47
			c0.26,0.11,0.55,0.17,0.85,0.17c0.3,0,0.59-0.06,0.85-0.17c0.26-0.11,0.5-0.27,0.69-0.47c0.2-0.2,0.35-0.44,0.47-0.7
			c0.11-0.26,0.17-0.55,0.17-0.85c0-0.6-0.21-1.11-0.64-1.54C80.22,215.75,79.71,215.54,79.1,215.54z"/>
		<path class="st1" d="M129.36,192.56c-0.89-0.92-1.93-1.65-3.13-2.19c-1.19-0.54-2.46-0.81-3.8-0.81c-1.36,0-2.63,0.26-3.82,0.79
			c-1.19,0.53-2.22,1.24-3.11,2.14c-0.89,0.9-1.59,1.96-2.11,3.17c-0.51,1.21-0.77,2.5-0.77,3.87v4.87c0,0.48,0.03,0.95,0.09,1.41
			c0.06,0.46,0.15,0.91,0.27,1.34h-2.82h-1.9h-2.46v-7.6c0-0.89-0.12-1.75-0.35-2.6c-0.23-0.84-0.56-1.63-0.99-2.37
			c-0.43-0.74-0.95-1.41-1.56-2.03c-0.61-0.62-1.28-1.15-2.01-1.59c-0.73-0.44-1.52-0.79-2.37-1.04c-0.85-0.25-1.73-0.37-2.63-0.37
			c-1.36,0-2.63,0.27-3.83,0.8c-1.2,0.53-2.24,1.26-3.13,2.17c-0.89,0.91-1.59,1.98-2.11,3.21c-0.52,1.23-0.78,2.54-0.78,3.94v4.83
			c0,0.96,0.18,1.87,0.54,2.71c0.36,0.84,0.86,1.58,1.49,2.2c0.63,0.62,1.37,1.12,2.21,1.48c0.84,0.36,1.74,0.54,2.69,0.54h8.38
			c-0.15,0.62-0.4,1.18-0.73,1.69c-0.34,0.51-0.75,0.96-1.22,1.33c-0.47,0.38-1.01,0.67-1.6,0.88c-0.6,0.21-1.22,0.32-1.86,0.32
			h-6.73v4.27h6.73c1.25,0,2.43-0.22,3.55-0.66c1.11-0.44,2.1-1.04,2.97-1.8c0.87-0.76,1.59-1.66,2.16-2.69
			c0.57-1.03,0.94-2.15,1.11-3.36h2.55h1.9h5.29c0.89,0.95,1.93,1.69,3.11,2.21c1.18,0.53,2.48,0.79,3.88,0.79
			c1.34,0,2.61-0.27,3.8-0.81c1.19-0.54,2.23-1.27,3.12-2.18c0.89-0.91,1.59-1.97,2.1-3.17c0.51-1.2,0.77-2.48,0.77-3.82v-4.92
			c0-1.32-0.26-2.59-0.77-3.79C130.95,194.54,130.25,193.48,129.36,192.56z M101.5,207.16h-8.52c-0.36,0-0.7-0.07-1.03-0.21
			c-0.32-0.14-0.61-0.34-0.85-0.58c-0.24-0.24-0.43-0.52-0.57-0.85c-0.14-0.32-0.21-0.67-0.21-1.03v-4.84
			c0-0.81,0.15-1.57,0.44-2.28c0.29-0.71,0.69-1.33,1.19-1.85c0.5-0.53,1.09-0.94,1.77-1.24c0.68-0.3,1.4-0.45,2.16-0.45
			c0.78,0,1.51,0.15,2.2,0.46c0.68,0.31,1.28,0.72,1.78,1.24s0.9,1.13,1.2,1.82c0.29,0.69,0.44,1.42,0.44,2.19V207.16z
			 M127.94,204.46c0,0.77-0.14,1.5-0.43,2.19c-0.29,0.69-0.68,1.3-1.19,1.82c-0.5,0.52-1.09,0.93-1.76,1.23
			c-0.67,0.3-1.38,0.45-2.14,0.45c-0.77,0-1.49-0.15-2.16-0.45c-0.67-0.3-1.25-0.71-1.75-1.23c-0.5-0.52-0.89-1.13-1.17-1.82
			c-0.29-0.69-0.43-1.44-0.43-2.24v-4.89c0-0.78,0.14-1.52,0.43-2.22c0.29-0.69,0.68-1.3,1.17-1.81c0.5-0.51,1.08-0.92,1.75-1.22
			c0.67-0.3,1.39-0.45,2.16-0.45c0.75,0,1.46,0.15,2.14,0.46c0.67,0.31,1.26,0.72,1.76,1.24c0.5,0.52,0.9,1.12,1.19,1.81
			c0.29,0.69,0.43,1.41,0.43,2.18V204.46z"/>
		<path class="st1" d="M153.3,184.77c0.2,0.2,0.44,0.35,0.7,0.46c0.26,0.11,0.55,0.17,0.85,0.17c0.3,0,0.58-0.06,0.85-0.17
			c0.26-0.11,0.5-0.27,0.7-0.46c0.2-0.2,0.36-0.43,0.47-0.69c0.11-0.26,0.17-0.55,0.17-0.85c0-0.3-0.06-0.58-0.17-0.85
			c-0.11-0.26-0.27-0.5-0.47-0.7c-0.2-0.2-0.44-0.36-0.7-0.47c-0.26-0.11-0.55-0.17-0.85-0.17c-0.3,0-0.58,0.06-0.85,0.17
			c-0.26,0.11-0.5,0.27-0.7,0.47c-0.2,0.2-0.36,0.44-0.47,0.7c-0.11,0.26-0.17,0.55-0.17,0.85c0,0.3,0.06,0.58,0.17,0.85
			C152.94,184.34,153.1,184.57,153.3,184.77z"/>
		<path class="st1" d="M159.7,184.77c0.2,0.2,0.44,0.35,0.7,0.46c0.26,0.11,0.55,0.17,0.85,0.17c0.6,0,1.11-0.21,1.54-0.63
			c0.42-0.42,0.63-0.93,0.63-1.54c0-0.3-0.06-0.58-0.17-0.85c-0.11-0.26-0.27-0.5-0.46-0.7c-0.2-0.2-0.43-0.36-0.69-0.47
			c-0.26-0.11-0.55-0.17-0.85-0.17c-0.3,0-0.58,0.06-0.85,0.17c-0.26,0.11-0.5,0.27-0.7,0.47c-0.2,0.2-0.36,0.44-0.47,0.7
			c-0.11,0.26-0.17,0.55-0.17,0.85c0,0.3,0.06,0.58,0.17,0.85C159.33,184.34,159.49,184.57,159.7,184.77z"/>
		<path class="st1" d="M167.46,204.4c0,0.39-0.07,0.75-0.21,1.08c-0.14,0.33-0.34,0.62-0.58,0.87c-0.24,0.25-0.53,0.44-0.86,0.59
			c-0.33,0.14-0.69,0.21-1.06,0.21h-10.46c-0.8,0-1.54-0.15-2.23-0.44c-0.69-0.29-1.28-0.7-1.8-1.21c-0.51-0.51-0.92-1.11-1.21-1.8
			c-0.29-0.69-0.44-1.42-0.44-2.2v-7.98h-4.29v7.98c0,1.37,0.26,2.66,0.78,3.86c0.52,1.21,1.23,2.26,2.14,3.15
			c0.9,0.9,1.96,1.6,3.17,2.12c1.21,0.52,2.5,0.78,3.89,0.78h10.47c0.96,0,1.87-0.18,2.72-0.55c0.85-0.37,1.59-0.87,2.23-1.5
			c0.63-0.63,1.13-1.37,1.49-2.23c0.36-0.85,0.54-1.77,0.54-2.75v-14.87h-4.29V204.4z"/>
		<path class="st1" d="M180.25,209.24c-0.02,0.86-0.23,1.7-0.63,2.53c-0.18,0.36-0.41,0.73-0.68,1.12
			c-0.27,0.38-0.62,0.77-1.04,1.16c-0.42,0.39-0.92,0.77-1.48,1.14c-0.56,0.37-1.23,0.71-2,1.03l1.65,3.95
			c1.11-0.47,2.09-0.99,2.91-1.56c0.83-0.57,1.55-1.16,2.16-1.77c0.61-0.61,1.11-1.23,1.51-1.85c0.4-0.63,0.73-1.22,0.98-1.8
			c0.59-1.36,0.89-2.73,0.9-4.13v-19.52h-4.29V209.24z"/>
		<path class="st1" d="M258.18,189.53v14.96c0,0.36-0.07,0.7-0.21,1.03c-0.14,0.32-0.34,0.61-0.6,0.85
			c-0.25,0.24-0.55,0.43-0.89,0.58c-0.34,0.14-0.69,0.21-1.07,0.21h-2.7v-17.62h-4.29v17.62h-5.47v-17.62h-4.29v17.62h-6.1h-1.9
			h-2.85c0.12-0.42,0.22-0.86,0.29-1.31c0.08-0.45,0.11-0.92,0.09-1.4v-4.92c0-1.32-0.26-2.59-0.77-3.79
			c-0.51-1.2-1.22-2.26-2.12-3.18c-0.9-0.92-1.94-1.65-3.13-2.19c-1.19-0.54-2.46-0.81-3.8-0.81c-1.34,0-2.61,0.26-3.8,0.79
			c-1.19,0.53-2.23,1.24-3.11,2.14c-0.88,0.9-1.58,1.96-2.09,3.17c-0.51,1.21-0.77,2.5-0.77,3.87v4.87c0,0.48,0.03,0.95,0.09,1.41
			c0.06,0.46,0.15,0.91,0.27,1.34h-2.82h-1.9h-5.9h-1.9h-0.11c-0.38,0-0.73-0.07-1.06-0.21c-0.33-0.14-0.62-0.34-0.87-0.59
			c-0.25-0.25-0.44-0.54-0.59-0.87c-0.14-0.33-0.21-0.69-0.21-1.06v-23.39h-4.29v23.39c0,0.96,0.18,1.87,0.55,2.72
			c0.37,0.85,0.87,1.59,1.51,2.23c0.64,0.63,1.39,1.13,2.24,1.5c0.85,0.37,1.76,0.55,2.72,0.55h0.11h1.9h5.9h1.9h5.29
			c0.9,0.95,1.95,1.69,3.13,2.21c1.18,0.53,2.46,0.79,3.83,0.79c1.36,0,2.63-0.27,3.83-0.81c1.2-0.54,2.25-1.27,3.15-2.19h5.29h1.9
			h22.84c0.98,0,1.9-0.18,2.76-0.54c0.86-0.36,1.61-0.85,2.25-1.48c0.64-0.62,1.14-1.36,1.51-2.2c0.37-0.84,0.55-1.75,0.55-2.71
			v-14.96H258.18z M223.9,204.46c0,0.77-0.14,1.5-0.43,2.19c-0.29,0.69-0.68,1.3-1.19,1.82c-0.5,0.52-1.09,0.93-1.76,1.23
			c-0.67,0.3-1.38,0.45-2.14,0.45c-0.75,0-1.47-0.15-2.14-0.45c-0.67-0.3-1.25-0.71-1.75-1.23c-0.5-0.52-0.89-1.13-1.18-1.82
			c-0.29-0.69-0.43-1.44-0.43-2.24v-4.89c0-0.78,0.14-1.52,0.43-2.22c0.29-0.69,0.68-1.3,1.18-1.81c0.5-0.51,1.08-0.92,1.75-1.22
			c0.67-0.3,1.38-0.45,2.14-0.45c0.75,0,1.46,0.15,2.14,0.46c0.67,0.31,1.26,0.72,1.76,1.24c0.5,0.52,0.9,1.12,1.19,1.81
			c0.29,0.69,0.43,1.41,0.43,2.18V204.46z"/>
	</g>
	<g>
		<path class="st0" d="M32.88,238.69l-4.3-1.39c-0.86-0.28-1.47-0.59-1.83-0.94c-0.36-0.34-0.53-0.89-0.53-1.65
			c0-0.5,0.05-0.88,0.16-1.16c0.11-0.28,0.29-0.49,0.55-0.63c0.26-0.14,0.6-0.23,1.02-0.26c0.42-0.03,0.93-0.05,1.53-0.05
			c1.23,0,2.48,0.01,3.75,0.03c1.27,0.02,2.38,0.04,3.33,0.06l0.32-3.26c-1.23-0.37-2.49-0.61-3.78-0.73
			c-1.29-0.12-2.49-0.18-3.59-0.18c-1.47,0-2.72,0.09-3.76,0.26c-1.05,0.17-1.9,0.48-2.55,0.94c-0.66,0.45-1.14,1.08-1.45,1.89
			c-0.31,0.81-0.47,1.86-0.47,3.15c0,1.66,0.36,2.99,1.07,4.01c0.71,1.01,1.92,1.83,3.62,2.46l4.52,1.55
			c0.54,0.15,0.96,0.32,1.28,0.5c0.31,0.18,0.54,0.43,0.68,0.74c0.14,0.31,0.21,0.73,0.21,1.24c0,0.6-0.1,1.07-0.29,1.39
			c-0.19,0.32-0.53,0.54-1.02,0.65c-0.48,0.11-1.16,0.16-2.02,0.16c-0.5,0-1.08-0.01-1.74-0.02c-0.67-0.01-1.47-0.03-2.41-0.06
			c-0.94-0.03-2.04-0.06-3.31-0.08l-0.32,3.49c1.74,0.39,3.3,0.63,4.65,0.73c1.36,0.1,2.4,0.15,3.13,0.15c1.53,0,2.82-0.1,3.88-0.31
			c1.06-0.2,1.91-0.54,2.55-1.02c0.65-0.47,1.12-1.13,1.42-1.97c0.3-0.84,0.45-1.9,0.45-3.17c0-1.68-0.34-3.04-1.03-4.07
			C35.91,240.11,34.67,239.29,32.88,238.69z"/>
		<path class="st0" d="M64.84,228.96h-4.72c-1.08,0-1.72,0.53-1.94,1.58l-2.84,11.18c-0.11,0.54-0.21,1.07-0.31,1.6
			c-0.1,0.53-0.2,1.06-0.31,1.6H54.3c-0.11-0.54-0.2-1.07-0.29-1.6c-0.09-0.53-0.19-1.05-0.32-1.57l-2.88-11.21
			c-0.24-1.06-0.88-1.58-1.94-1.58h-4.62c-1.18,0-1.8,0.6-1.84,1.81l-0.84,20.49h4.59l0.68-18.48h0.55l3.59,13.89
			c0.24,1.03,0.9,1.55,2,1.55h3.1c1.1,0,1.74-0.52,1.94-1.55l3.59-13.89h0.58l0.74,18.48h4.56l-0.84-20.49
			C66.6,229.56,66,228.96,64.84,228.96z"/>
		<path class="st0" d="M84.21,229.32c-0.31-0.24-0.67-0.36-1.08-0.36h-4.69c-0.41,0-0.77,0.12-1.08,0.36
			c-0.31,0.24-0.52,0.55-0.63,0.94l-6.49,21h5.07l1.64-5.88h7.68l1.64,5.88h5.04l-6.46-21C84.73,229.87,84.52,229.55,84.21,229.32z
			 M77.97,241.66l1.89-6.79c0.11-0.37,0.2-0.74,0.27-1.11c0.08-0.38,0.15-0.74,0.21-1.08h0.87c0.06,0.34,0.14,0.71,0.23,1.08
			c0.09,0.38,0.17,0.75,0.26,1.11l1.89,6.79H77.97z"/>
		<path class="st0" d="M109.46,242.45c-0.37-0.46-0.76-0.81-1.18-1.05c-0.42-0.24-0.82-0.39-1.21-0.45v-0.16
			c1.08-0.13,1.93-0.43,2.55-0.9c0.62-0.47,1.07-1.1,1.34-1.89c0.27-0.79,0.4-1.7,0.4-2.73c0-1.7-0.29-3.03-0.86-3.99
			c-0.57-0.96-1.47-1.64-2.68-2.04c-1.22-0.4-2.81-0.6-4.77-0.6c-1.34,0-2.48,0.01-3.42,0.02c-0.95,0.01-1.82,0.04-2.62,0.08
			c-0.8,0.04-1.65,0.12-2.55,0.23v22.29h4.88v-8.74c0.97,0.01,2.14,0.01,3.52,0.01c0.67,0,1.19,0.14,1.57,0.42
			c0.38,0.28,0.66,0.79,0.86,1.52l1.71,6.79h5.2l-1.94-6.95C110.09,243.53,109.82,242.91,109.46,242.45z M106.08,237.56
			c-0.2,0.47-0.56,0.8-1.07,0.99c-0.51,0.18-1.19,0.27-2.05,0.27h-3.62v-6.45c1.07-0.01,2.27-0.01,3.62-0.01
			c0.86,0,1.55,0.09,2.05,0.27c0.51,0.18,0.86,0.51,1.07,0.97c0.2,0.46,0.31,1.13,0.31,1.99
			C106.39,236.42,106.28,237.08,106.08,237.56z"/>
		<polygon class="st0" points="121.02,228.96 114.34,228.96 114.34,232.84 121.02,232.84 121.02,251.26 125.97,251.26 
			125.97,232.84 132.69,232.84 132.69,228.96 125.97,228.96 		"/>
		<path class="st0" d="M166.39,228.96h-4.72c-1.08,0-1.72,0.53-1.94,1.58l-2.84,11.18c-0.11,0.54-0.21,1.07-0.31,1.6
			c-0.1,0.53-0.2,1.06-0.31,1.6h-0.42c-0.11-0.54-0.21-1.07-0.29-1.6c-0.09-0.53-0.19-1.05-0.32-1.57l-2.88-11.21
			c-0.24-1.06-0.88-1.58-1.94-1.58h-4.62c-1.18,0-1.8,0.6-1.84,1.81l-0.84,20.49h4.59l0.68-18.48h0.55l3.59,13.89
			c0.24,1.03,0.9,1.55,2,1.55h3.1c1.1,0,1.74-0.52,1.94-1.55l3.59-13.89h0.58l0.74,18.48h4.56l-0.84-20.49
			C168.15,229.56,167.55,228.96,166.39,228.96z"/>
		<path class="st0" d="M190.35,230.95c-0.74-0.87-1.73-1.5-2.96-1.87c-1.23-0.38-2.73-0.57-4.49-0.57c-1.77,0-3.26,0.19-4.49,0.57
			c-1.23,0.38-2.22,1-2.97,1.87c-0.75,0.87-1.3,2.06-1.65,3.55c-0.34,1.5-0.52,3.37-0.52,5.61c0,2.24,0.17,4.11,0.52,5.61
			c0.34,1.5,0.89,2.68,1.65,3.55c0.75,0.87,1.74,1.5,2.97,1.87c1.23,0.38,2.72,0.57,4.49,0.57c1.77,0,3.26-0.19,4.49-0.57
			c1.23-0.38,2.21-1,2.96-1.87c0.74-0.87,1.29-2.06,1.63-3.55c0.34-1.5,0.52-3.37,0.52-5.61c0-2.24-0.17-4.11-0.52-5.61
			C191.63,233,191.09,231.82,190.35,230.95z M186.89,244.76c-0.27,1.12-0.72,1.91-1.36,2.36c-0.64,0.45-1.51,0.68-2.63,0.68
			c-1.14,0-2.03-0.23-2.67-0.68c-0.64-0.45-1.09-1.24-1.36-2.36c-0.27-1.12-0.4-2.67-0.4-4.65c0-2,0.13-3.56,0.4-4.67
			c0.27-1.11,0.72-1.89,1.36-2.34c0.64-0.45,1.52-0.68,2.67-0.68c1.12,0,2,0.23,2.63,0.68c0.64,0.45,1.09,1.23,1.36,2.34
			c0.27,1.11,0.4,2.67,0.4,4.67C187.29,242.09,187.16,243.64,186.89,244.76z"/>
		<path class="st0" d="M209.59,239.78v-0.19c1.4-0.13,2.41-0.61,3.02-1.44c0.61-0.83,0.92-2.04,0.92-3.63
			c0-1.53-0.26-2.71-0.78-3.55c-0.52-0.84-1.35-1.43-2.5-1.76c-1.15-0.33-2.7-0.5-4.64-0.5c-1.27,0-2.38,0.01-3.33,0.02
			c-0.95,0.01-1.83,0.03-2.63,0.06c-0.81,0.03-1.64,0.09-2.5,0.18v22.29c0.95,0.06,1.87,0.12,2.78,0.16
			c0.9,0.04,1.89,0.07,2.96,0.08c1.07,0.01,2.32,0.02,3.76,0.02c1.79,0,3.24-0.17,4.35-0.5c1.11-0.33,1.93-0.92,2.46-1.76
			c0.53-0.84,0.79-2.02,0.79-3.55c0-1.79-0.34-3.18-1.03-4.18C212.52,240.51,211.31,239.94,209.59,239.78z M205.35,232.29
			c0.88,0,1.57,0.08,2.07,0.23c0.5,0.15,0.85,0.44,1.05,0.86c0.2,0.42,0.31,1.03,0.31,1.83c0,0.78-0.1,1.38-0.29,1.81
			c-0.19,0.43-0.52,0.72-0.99,0.87c-0.46,0.15-1.09,0.24-1.89,0.26h-3.62v-5.85c0.05,0,0.11,0,0.16,0
			C203.08,232.29,204.15,232.29,205.35,232.29z M208.99,246.72c-0.2,0.46-0.57,0.78-1.08,0.95c-0.52,0.17-1.23,0.26-2.13,0.26
			c-1.38,0-2.64-0.01-3.78-0.02v-6.64h3.68c0.93,0.02,1.65,0.13,2.18,0.32c0.53,0.19,0.9,0.53,1.11,1.02
			c0.22,0.48,0.32,1.19,0.32,2.12C209.3,245.59,209.19,246.25,208.99,246.72z"/>
		<rect x="218.76" y="228.96" class="st0" width="4.91" height="22.29"/>
		<path class="st0" d="M235.69,247.28c-0.56,0-0.99-0.14-1.29-0.42c-0.3-0.28-0.45-0.69-0.45-1.23v-16.67h-4.94v17.74
			c0,1.36,0.41,2.47,1.24,3.34c0.83,0.87,2.05,1.31,3.67,1.31c1.66,0,3.32-0.02,4.99-0.05c1.67-0.03,3.27-0.13,4.8-0.31l-0.23-3.72
			H235.69z"/>
		<path class="st0" d="M253.69,247.44c-0.54,0-0.94-0.14-1.21-0.42c-0.27-0.28-0.4-0.69-0.4-1.23v-4.39h8.98v-3.49h-8.98v-3.49
			c0-0.54,0.13-0.95,0.4-1.23c0.27-0.28,0.67-0.42,1.21-0.42h8.56l0.23-3.59c-1.03-0.11-2.14-0.18-3.33-0.23
			c-1.18-0.04-2.39-0.07-3.62-0.08c-1.23-0.01-2.45-0.02-3.65-0.02c-1.42,0-2.57,0.41-3.44,1.23c-0.87,0.82-1.31,1.91-1.31,3.26
			v13.51c0,1.34,0.44,2.42,1.31,3.25c0.87,0.83,2.02,1.24,3.44,1.24c1.21,0,2.42-0.01,3.65-0.02c1.23-0.01,2.43-0.04,3.62-0.1
			c1.18-0.05,2.29-0.12,3.33-0.21l-0.23-3.59H253.69z"/>
	</g>
</g>
</svg>
