<?xml version="1.0" encoding="utf-8"?>
<!-- Generator: Adobe Illustrator 25.0.0, SVG Export Plug-In . SVG Version: 6.00 Build 0)  -->
<svg version="1.1" id="Layer_1" xmlns="http://www.w3.org/2000/svg" xmlns:xlink="http://www.w3.org/1999/xlink" x="0px" y="0px"
	 viewBox="0 0 283.46 283.46" style="enable-background:new 0 0 283.46 283.46;" xml:space="preserve">
<style type="text/css">
	.st0{fill:#D7232A;}
	.st1{fill:#020202;}
	.st2{fill:#268024;}
</style>
<g>
	<g>
		<path class="st0" d="M51.67,101.37c-1.31-1.24-2.21-2.15-2.71-2.7c-0.5-0.55-0.84-0.95-1.01-1.17c-0.17-0.23-0.47-0.48-0.88-0.75
			l-0.25-0.07c-0.54-0.02-1.16,0.16-1.85,0.56c0.08-0.14,0.2-0.27,0.34-0.4c0.15-0.13,0.39-0.24,0.73-0.34
			c0.34-0.1,0.71-0.19,1.11-0.27c0.4-0.08,0.68-0.31,0.86-0.68l0.41-0.62l0,0l1.59-2.19c0.71-1.15,1.68-1.53,2.9-1.15
			c-0.62-0.43-1.18-1.01-1.7-1.73c-0.19-0.3-0.6-0.81-1.23-1.53c-0.63-0.72-1.14-1.22-1.54-1.49c-0.4-0.27-0.88-0.5-1.45-0.69
			c-0.57-0.19-1.17-0.3-1.82-0.34c-0.65-0.04-1.5,0.03-2.56,0.21l1.7,2.87c1.39-0.2,2.62-0.13,3.68,0.22l-2.89,4.64l-3.49,6.8
			c1.06,1.82,1.76,2.9,2.08,3.24l0.89-1.59c1.11-1.58,2.06-2.37,2.85-2.35c0.07,0.87-0.01,1.75-0.24,2.62
			c-0.34,1.16-0.7,2.05-1.07,2.66c-0.51,1.07-1.19,1.88-2.05,2.43c-0.98,0.66-1.9,0.79-2.76,0.38c-0.93-0.44-1.72-1.14-2.37-2.09
			c-0.46-0.65-0.95-1.54-1.47-2.67c-0.09-0.11-0.15-0.1-0.16,0.01c-0.01,0.11,0.19,0.73,0.59,1.85c1.05,2.94,2.53,4.86,4.45,5.77
			c1.29,0.61,2.51,0.56,3.67-0.15c0.95-0.62,1.79-1.61,2.51-2.95c0.45-0.94,0.74-2,0.87-3.17
			C49.62,101.37,50.38,100.32,51.67,101.37z"/>
		<path class="st0" d="M51.66,105.09l0.82,2.9c1.2-0.14,2.14-0.58,2.82-1.31l-0.86-2.8C53.51,104.41,52.58,104.81,51.66,105.09z"/>
		<path class="st0" d="M49.71,109.21l0.83,2.9c1.2-0.14,2.14-0.58,2.82-1.31l-0.86-2.8C51.55,108.53,50.63,108.93,49.71,109.21z"/>
		<path class="st0" d="M38.06,87.24c0.25,0.23,0.54,0.4,0.87,0.5c0.26,0.05,0.5-0.1,0.72-0.42l0.72-1.16l0.35,1.29
			c0.17,0.39,0.38,0.71,0.65,0.95c-0.24-0.91-0.39-1.73-0.46-2.45c-0.04-0.21-0.05-0.38-0.01-0.52c0.03-0.14,0.06-0.29,0.07-0.46
			c0.03-0.32,0.1-0.65,0.21-0.97l0.1-0.24c-0.17-0.19-0.31-0.36-0.4-0.49c-0.09-0.13-0.18-0.25-0.25-0.34
			c-0.02-0.02-0.05-0.04-0.09-0.07l-0.06,0.07l-0.02,0.13l-0.04,0.04l-0.74,1.61c-0.48,0.92-1.05,1.51-1.68,1.77
			c-0.16-0.26-0.26-0.51-0.27-0.75c0-0.89,0.39-1.4,1.17-1.53c-0.14-0.44-0.42-0.78-0.84-1.01c-0.21-0.07-0.39-0.07-0.55,0.02
			c-0.15,0.09-0.27,0.19-0.37,0.32c-0.09,0.13-0.15,0.24-0.19,0.32c-0.14,0.43-0.18,0.84-0.13,1.24c0.06,0.4,0.21,0.8,0.45,1.21
			C37.53,86.69,37.79,87.01,38.06,87.24z"/>
		<path class="st0" d="M76.15,51l0.73-2.83c-1.07-0.05-2.07-0.19-3-0.43l-0.82,2.9C74.16,51.15,75.19,51.27,76.15,51z"/>
		<path class="st0" d="M88.52,53.49l-0.04-0.17l-0.39-1.29l-0.74-1.25l-0.38-0.61l-0.77-1.23l-1.53-2.45l-0.02-3.09
			c-1.52-0.13-2.39-0.21-2.61-0.25c-0.22-0.03-0.43-0.07-0.62-0.13c-0.19-0.05-0.42-0.17-0.68-0.35c-0.26-0.18-0.45-0.36-0.56-0.53
			c-0.12-0.17-0.23-0.23-0.33-0.17l0.06,1.84c0.08,0.87,0.16,1.41,0.26,1.63c0.1,0.22,0.24,0.38,0.43,0.48
			c0.19,0.09,0.35,0.17,0.5,0.23c0.15,0.06,0.36,0.16,0.63,0.32c0.32,0.31,0.58,0.62,0.78,0.92l3.98,5.44l-2.42,1.35l-0.03-0.04
			l-0.58,0.38c-0.47,0.3-0.95,0.5-1.45,0.58c-0.5,0.08-0.84,0-1.05-0.24c-0.2-0.24-0.39-0.53-0.57-0.86
			c-0.18-0.33-0.37-0.49-0.56-0.49c-0.19,0-0.32,0.19-0.38,0.57c-0.06,0.37-0.06,0.84,0.03,1.4c0.08,0.56,0.06,0.98-0.08,1.25
			c-0.14,0.28-0.15,0.24-0.88,0.81l-1.76,1.14l-1.09,0.88c-0.19,0.23-0.63,0.34-1.3,0.35c-0.68,0.01-1.25-0.1-1.71-0.34
			c-0.46-0.23-0.95-0.51-1.49-0.85c-0.53-0.33-0.9-0.51-1.11-0.55c-0.2-0.03-0.41,0.02-0.62,0.15S69.02,58.7,68.82,59
			c-0.2,0.3-0.36,0.72-0.47,1.25c-0.11,0.53-0.17,1.16-0.17,1.88c-0.01,0.72,0.02,1.35,0.08,1.9c0.06,0.55,0.03,0.97-0.07,1.27
			c-0.1,0.3-0.36,0.62-0.76,0.94l-1.72,1.4l-5.92,5.98l-3.35,4l-2.97,3.62c-0.5,0.79-0.98,1.28-1.46,1.47
			c-0.48,0.19-1.05,0.16-1.72-0.08c-0.67-0.25-3.79-2.08-9.37-5.49l1.55,3.18c5.1,3.13,8.16,4.85,9.19,5.18
			c1.53,0.61,2.85,0.27,3.96-1.02l0.8-1.11l2.66-3.32l3.2-3.85l5.75-5.71l1.88-1.52c0.58-0.79,0.65-1.93,0.2-3.4
			c1.63,0.05,2.87,0.02,3.74-0.09c0.87-0.1,1.39-0.23,1.57-0.37c0.18-0.15,0.19-0.77,0.03-1.86c0.91,0.07,1.76-0.2,2.54-0.84
			l1.09-0.88l0,0l2.04-1.33c1.14-0.75,0.78-1.01,0.44-2.24c0.6,0.55,1.13,0.78,1.6,0.7c0.47-0.08,0.94-0.26,1.41-0.54
			c0.22-0.13,0.45-0.27,0.68-0.41l0.01,0.02l1.18-0.66c1.18-0.66,2.21-0.53,3.1,0.39c-0.33-0.68-0.55-1.45-0.65-2.33
			C88.88,54.77,88.75,54.24,88.52,53.49z M69.59,61.88c0.01-0.4,0.08-0.72,0.22-0.95c0.14-0.23,0.31-0.34,0.52-0.33
			c0.21,0.01,0.41,0.08,0.62,0.21c0.2,0.13,0.69,0.44,1.46,0.95C71.16,61.96,70.23,62,69.59,61.88z"/>
		<path class="st0" d="M92.6,49.47c-0.19-0.49-0.5-1.12-0.93-1.88l-0.44-0.69l-0.6-1l-1.29-2.12l-2.05-2.96l-1.42-1.93l-0.03,0.43
			l0.04,0.62c0,0.43,0.02,0.84,0.06,1.23l0.11,0.95c0.09,0.91,0.19,1.46,0.29,1.63l6.63,9.85c0.05-0.38,0.09-0.74,0.11-1.07
			c0.02-0.33,0.01-0.74-0.02-1.2C93.02,50.86,92.87,50.24,92.6,49.47z"/>
		<path class="st0" d="M107.97,50.97c1.66-1.16,2.55-1.06,2.68,0.3c-0.03-1.8-0.02-3.08,0.03-3.83c0.01-0.2,0.02-0.38,0.03-0.55
			c0.02-0.13,0.03-0.28,0.03-0.46c0.03-0.22,0.05-0.4,0.06-0.53c0.04-0.28,0.02-0.66-0.07-1.13c-0.09-0.47-0.22-1.09-0.41-1.86
			c-0.22-0.55-0.83-0.78-1.81-0.7c-0.87,0.17-1.75,0.33-2.61,0.49c-0.96,0.16-1.59,0.12-1.9-0.14c-0.01-0.6,0.33-1.42,1.01-2.48
			c0.7-1.01,1.36-1.69,1.98-2.03c0.22-0.18,0.49-0.27,0.8-0.26c0.31,0,0.57,0.11,0.76,0.31c0.19,0.21,0.32,0.27,0.38,0.18
			c0.07-0.81-0.03-1.62-0.29-2.43c-0.4-0.94-0.96-1.28-1.66-1.03c-1.1,0.54-1.99,1.53-2.68,2.98c-0.61,1.15-0.98,2.43-1.12,3.84
			c-0.21,1.59-0.16,2.88,0.16,3.88c0.25,0.62,0.89,0.87,1.92,0.76c0.39-0.03,1.29-0.24,2.71-0.62c0.9-0.22,1.39-0.23,1.47-0.01
			c-0.37,0.55-1.15,1.21-2.34,1.98c-1.03,0.69-1.95,1.2-2.73,1.52c-0.98,0.4-2.04,0.58-3.17,0.55c-1.4-0.06-2.31-0.51-2.74-1.35
			c-0.57-0.77-0.73-2.35-0.48-4.75c0.08-0.63,0.09-1.01,0.04-1.12c-0.06-0.11-0.17,0.01-0.35,0.35c-0.18,0.34-0.32,0.84-0.42,1.5
			c-0.1,0.66-0.15,1.51-0.15,2.54c-0.04,1.11,0.1,2.27,0.44,3.48c0.86,2.97,3.18,3.86,6.97,2.68
			C105.84,52.53,106.99,51.84,107.97,50.97z"/>
		<path class="st0" d="M106.5,56.26c0.95,0.76,1.92,1.12,2.91,1.1l1.39-2.57c-1.03-0.3-1.96-0.68-2.81-1.14L106.5,56.26z"/>
		<path class="st0" d="M102.2,57.75c0.95,0.76,1.92,1.12,2.91,1.1l1.39-2.57c-1.03-0.3-1.96-0.68-2.81-1.14L102.2,57.75z"/>
		<path class="st0" d="M134.71,46.54c0.7,1.02,1.6,1.67,2.69,1.96l2.27-2c-1.02-0.61-1.87-1.27-2.57-1.97L134.71,46.54z"/>
		<path class="st0" d="M150.66,30.57l2.35-1.75c-0.8-0.71-1.49-1.45-2.06-2.22l-2.46,1.75C149.03,29.43,149.75,30.17,150.66,30.57z"
			/>
		<path class="st0" d="M155.2,31.03l2.35-1.75c-0.81-0.71-1.49-1.45-2.06-2.22l-2.46,1.75C153.56,29.9,154.29,30.64,155.2,31.03z"/>
		<path class="st0" d="M165.25,31.4c-0.15-0.17-0.27-0.34-0.38-0.5c-0.11-0.16-0.2-0.4-0.27-0.71c-0.07-0.31-0.1-0.57-0.07-0.77
			c0.03-0.21-0.02-0.32-0.14-0.35l-1.17,1.42c-0.52,0.7-0.81,1.17-0.88,1.4c-0.08,0.23-0.07,0.45,0,0.64
			c0.08,0.2,0.15,0.36,0.23,0.5c0.07,0.14,0.16,0.36,0.26,0.65c0.03,0.44,0.02,0.85-0.03,1.21l-0.61,6.71l-2.7-0.93l-0.7-0.07
			c-0.46-0.05-0.87-0.28-1.25-0.69c-0.37-0.41-0.72-2.7-1.03-6.86c-0.21-0.06-0.41,0.13-0.58,0.57c-0.18,0.44-0.58,1.11-1.22,2.01
			c-1.55,0.97-2.91,0.96-4.08-0.04c-0.62-0.73-1.08-1.28-1.4-1.64c-0.28,0.41-0.75,1.31-1.41,2.69l-0.19,0.55l0.39,0.48l0.82,0.66
			c0.25,0.23,0.47,0.44,0.67,0.63c0.19,0.19,0.27,0.5,0.23,0.92l-0.54,1c-0.43,0.59-0.77,0.99-1.01,1.21s-0.48,0.41-0.71,0.58
			c-0.23,0.17-0.58,0.33-1.04,0.49c-0.46,0.16-0.89,0.29-1.31,0.38c-0.41,0.09-0.89,0.15-1.44,0.18c-0.55,0.03-1.65-0.05-3.32-0.22
			c-0.18-0.04-0.33-0.07-0.46-0.09c0.09-0.37,0.21-0.75,0.36-1.14c0.15-0.33,0.36-0.95,0.63-1.86s0.41-1.62,0.42-2.1
			c0.01-0.49-0.05-1.02-0.2-1.59c-0.15-0.58-0.38-1.15-0.69-1.72c-0.31-0.57-0.83-1.25-1.55-2.04l-1.5,2.98
			c0.92,1.06,1.52,2.14,1.8,3.22l-4.98,0.06l-7.23,0.61l-4.31,0.41l-2,0.43c-0.45-1.12-1.06-2.11-1.84-2.97
			c-0.77-0.86-1.5-1.32-2.18-1.36c-0.69-0.04-1.29,0.59-1.81,1.88c-0.56,1.6-0.72,3.22-0.49,4.88c0.25,1.54,1.45,2.17,3.62,1.87
			l1.26-0.27c-0.45,1.26-0.9,2.1-1.34,2.52c-0.44,0.42-0.9,0.78-1.38,1.07c-0.48,0.29-1.28,0.65-2.42,1.07l-1.32,0.45l-2.05,0.33
			l1.71,0.22c1.97,0.27,3.84,0.31,5.62,0.13c1.96-0.73,3.03-2.81,3.21-6.22l2.17-0.46l3.81-0.4l7.02-0.54l2.97-0.04
			c1.35-0.02,2.19,0.59,2.53,1.82c0.01-0.29,0.05-0.59,0.11-0.89c0.14,0.09,0.29,0.19,0.48,0.31l1.01,0.62l3.24,1.4l1.33,0.44
			c0.45,0.01,0.86-0.05,1.21-0.18c0.38-0.17,0.72-0.35,1-0.53c0.32-0.23,0.6-0.45,0.82-0.67c0.29-0.3,0.53-0.56,0.7-0.81
			c0.28-0.32,0.5-0.62,0.66-0.88c0.25-0.35,0.71-1.56,1.4-3.63c1.47-0.34,2.55-1.22,3.22-2.64l0.45,3c0.18,2.5,1.08,3.83,2.7,3.99
			l1.02,0.1l1.33,0.29c1.32,0.28,0.95,1.24,1.01,2.52c0.2-0.73,0.55-1.45,1.05-2.18c0.2-0.26,0.45-0.74,0.77-1.45l0.08-0.16
			l0.56-1.23l0.27-1.43l0.12-0.71l0.24-1.44l0.48-2.85l2.03-2.33C165.99,32.21,165.4,31.58,165.25,31.4z M115.48,40.96
			c0.11-0.25,0.25-0.46,0.42-0.63c0.16-0.18,0.35-0.28,0.57-0.32c0.22-0.04,0.48,0.03,0.8,0.21c0.31,0.18,0.65,0.5,1,0.96
			C116.59,41.49,115.66,41.41,115.48,40.96z"/>
		<path class="st0" d="M170.25,31.54c-0.29,0.32-0.54,0.64-0.77,0.96l-0.55,0.78c-0.53,0.74-0.82,1.22-0.86,1.41l-1.54,11.77
			c0.29-0.25,0.56-0.49,0.79-0.73c0.23-0.24,0.5-0.54,0.78-0.91c0.29-0.37,0.58-0.93,0.88-1.69c0.18-0.49,0.37-1.17,0.55-2.02
			l0.13-0.81l0.22-1.15l0.44-2.44l0.42-3.58l0.21-2.39l-0.31,0.31L170.25,31.54z"/>
		<path class="st0" d="M181.61,40.44l2.74-1.04c-0.66-0.93-1.15-1.85-1.49-2.75l-2.84,1.01C180.23,38.86,180.77,39.78,181.61,40.44z
			"/>
		<path class="st0" d="M182.4,45.72c0.24,0.75,0.45,1.59,0.63,2.52c0.2,1.18,0.23,2.03,0.08,2.56c-0.27,0.15-1.06,0.2-2.38,0.15
			c-1.04-0.13-1.82-0.25-2.35-0.38c-0.53-0.13-1.3-0.44-2.31-0.93c-1.22-0.82-1.7-1.8-1.42-2.94c0.48-1.23,1-2.15,1.57-2.77
			c0.64-0.62,1.09-1.1,1.34-1.44c-0.6,0.07-1.41,0.52-2.44,1.36c-1.01,0.76-1.8,1.56-2.37,2.38c-0.57,0.82-0.93,1.63-1.07,2.44
			c-0.55,2.28,1.11,3.97,4.98,5.08c0.56,0.16,1.48,0.24,2.75,0.25c1.27,0.01,2.13-0.11,2.6-0.35c0.78-0.51,1.62-1.42,2.5-2.74
			c0.52-0.67,0.88-1.37,1.08-2.09c0.43-1.53,0.28-3.31-0.42-5.36L182.4,45.72z"/>
		<path class="st0" d="M222.81,65.36c-0.18-1.06-0.26-2.06-0.22-3.02l-3.01-0.18c-0.26,1.18-0.16,2.22,0.3,3.09L222.81,65.36z"/>
		<path class="st0" d="M236.29,93.7c0.23-0.47,0.37-1.15,0.4-2.02c-0.02-0.8-0.21-1.58-0.58-2.34c-0.94-1.54-1.95-2.91-3.04-4.13
			l-2.62-3.06c-3.68-5.18-5.38-7.92-5.08-8.25c0.3,0.13,0.95,0.45,1.94,0.96c0.76,0.37,1.41,0.75,1.95,1.12
			c0.76,0.51,1.51,1.01,2.27,1.5c0.99,0.66,1.54,1.3,1.67,1.91c1.67-0.18,3.08-0.27,4.23-0.27l-1.71-1.38
			c-0.92-0.75-1.92-1.45-2.99-2.1c-2.46-1.45-4.68-2.36-6.68-2.72c-1.82-0.32-3.43,0.02-4.81,1.01l1.1,0.33
			c0.19,0.99,1.42,3.29,3.69,6.9c0.7,1.01,1.6,2.19,2.69,3.55c1.73,2.22,3,3.85,3.79,4.89c0.41,0.66,0.68,1.22,0.81,1.67
			c0.13,0.45,0.1,0.97-0.09,1.56l-14.75-19.2L218,73.14c-0.4-0.39-0.69-0.82-0.87-1.29c-0.19-0.47-0.18-0.82,0.01-1.07
			c0.19-0.25,0.43-0.49,0.72-0.74c0.28-0.25,0.4-0.46,0.36-0.65c-0.04-0.19-0.26-0.27-0.64-0.25c-0.38,0.02-0.83,0.13-1.36,0.33
			c-0.53,0.2-0.94,0.26-1.24,0.19c-0.3-0.08-0.81-0.41-1.52-1l-1.49-1.47l-2.58-2.18c0.62-0.18,1.2-0.42,1.72-0.72
			c0.9-0.48,1.29-1.14,1.19-1.97c-0.1-0.84-0.52-1.64-1.26-2.4c-0.74-0.76-1.42-1.3-2.05-1.62c-0.63-0.31-1.2-0.51-1.73-0.59
			c-1.77,1.04-2.67,1.61-2.71,1.69c-0.04,0.08,0.04,0.17,0.25,0.25c0.21,0.09,0.44,0.27,0.7,0.56c0.26,0.29,0.45,0.62,0.58,0.99
			c0.13,0.37,0.15,0.77,0.07,1.2l-3.11-2.39l-5.17-3.56l0-0.01l-6.18-3.74c-0.85-0.37-1.41-0.78-1.67-1.22
			c-0.26-0.44-0.32-1.01-0.17-1.71c0.14-0.7,1.48-4.06,4.02-10.09l-2.91,2.01c-2.33,5.51-3.57,8.8-3.75,9.86
			c-0.38,1.6,0.16,2.86,1.6,3.76l1.22,0.62l6.01,3.58l0,0.01l5,3.45l1.98,1.57c0.36,0.29,0.8,0.5,1.31,0.63
			c0.52,0.13,1.04,0.13,1.57,0c-0.03,0.54,0.04,1.03,0.21,1.45c0.18,0.42,0.46,0.79,0.85,1.11l2.41,2.03l1.73,1.71
			c0.97,0.96,2.02,1.15,3.15,0.56c-0.41,0.7-0.52,1.27-0.34,1.72c0.18,0.44,0.46,0.87,0.83,1.27c0.37,0.4,0.76,0.81,1.18,1.21
			L229.58,94c0.79,1.1,0.78,2.14-0.04,3.12c0.63-0.41,1.38-0.71,2.24-0.91c0.34-0.07,1.43-0.34,3.27-0.81
			C235.65,94.75,236.06,94.18,236.29,93.7z"/>
		<path class="st0" d="M251.62,130.64c0.77-0.27,1.16-0.49,1.17-0.67c0.01-0.18-0.64-0.67-1.95-1.46c-1.31-0.79-3.11-1.4-5.41-1.84
			l-0.27-1.6l-0.11,0.02l-1.12-4.71l0.07-0.02l-0.38-1.26l-0.28-1.17l-0.07,0.02l-1.39-4.62l0.26-0.11l-0.4-0.96
			c-0.39-0.71-0.4-1.29-0.03-1.74c0.37-0.45,1.09-1.06,2.16-1.84c2.32-1.63,4.01-2.81,5.07-3.54l-3.66,0.02
			c-0.81,0.59-1.41,1.04-1.82,1.34c-0.41,0.3-1.34,0.84-2.8,1.63c-0.65-0.66-1.08-1.17-1.27-1.54c-0.2-0.37-0.38-0.7-0.54-1
			c-0.17-0.3-0.42-0.91-0.77-1.85c-0.35-0.94-0.32-1.49,0.09-1.65c0.41-0.16,0.73-0.28,0.96-0.36c0-0.17-0.47-0.21-1.42-0.13
			c-0.95,0.08-1.78,0.28-2.48,0.61c-0.68,0.39-0.93,0.95-0.77,1.68c0.23,0.76,0.47,1.43,0.73,1.99c0.38,1.02,1.08,2.09,2.1,3.19
			c0.49,0.23,1.38,0.17,2.67-0.17c-1.63,1.33-2.25,2.68-1.85,4.04l-0.08,0.02l2.13,7.07l1.54,6.47l0.02,0.13
			c-0.88,0.15-1.54,0.39-2,0.74c-0.46,0.35-0.87,0.78-1.25,1.3c-0.38,0.52-0.61,1.2-0.69,2.06c-0.08,0.85,0.03,1.54,0.34,2.05
			c0.31,0.51,1.03,0.91,2.14,1.18c0.49,0.13,1.1,0.17,1.84,0.11l0.79-0.41l0.77,7.95l0.02,0l0.02,2.53c0,0.46,0.12,0.93,0.35,1.42
			c0.23,0.48,0.56,0.89,1,1.22c-0.44,0.32-0.77,0.68-0.98,1.09c-0.21,0.41-0.32,0.86-0.32,1.36l0.03,3.24l-0.02,0l-0.13,1.28
			c-0.06,0.56-0.03,1.04,0.08,1.44c0.11,0.4,0.29,0.71,0.56,0.94c0.27,0.23,0.92,0.63,1.97,1.21c-0.87,0.99-1.85,2.36-2.95,4.1
			c0.92,0.84,1.71,1.53,2.37,2.08c1.33,0,2.29-0.02,2.88-0.07c0.59-0.05,1.05-0.11,1.39-0.18c0.34-0.07,0.59-0.14,0.76-0.2
			c0.17-0.06,0.36-0.18,0.58-0.35c0.11-0.14,0.2-0.29,0.25-0.45c0.05-0.45,0.02-0.84-0.07-1.16c-0.09-0.33-0.21-0.63-0.36-0.91
			c-0.15-0.28-0.36-0.6-0.64-0.96c-0.28-0.36-0.69-0.77-1.23-1.24c-0.54-0.46-1.05-0.91-1.51-1.35c-0.46-0.44-0.61-1.36-0.45-2.77
			l0.04-0.44l0.11,0l-0.04-4.07c0.54,0.37,1.08,0.66,1.64,0.87c0.94,0.39,1.7,0.28,2.28-0.34c0.58-0.61,0.93-1.45,1.05-2.5
			s0.1-1.92-0.05-2.61c-0.16-0.68-0.37-1.25-0.64-1.71c-1.93-0.7-2.94-1.04-3.03-1.02c-0.09,0.02-0.1,0.14-0.03,0.36
			c0.07,0.22,0.07,0.52,0.01,0.9c-0.06,0.38-0.19,0.74-0.4,1.08c-0.21,0.34-0.5,0.61-0.88,0.81l-0.05-5.36l-0.22,0l-0.57-5.85
			l0.12-0.02l-0.48-2.88l1.35,0.08C249.49,131.07,250.85,130.91,251.62,130.64z M248.98,159.34c0.13,0.2,0.21,0.42,0.26,0.65
			c0.05,0.24-0.01,0.46-0.18,0.67c-0.37,0.26-0.89,0.4-1.58,0.41C247.9,160.46,248.39,159.88,248.98,159.34z M242.1,130.47
			c-0.11,0.71-0.62,1.4-1.53,2.08c-0.23-0.54-0.18-1.2,0.14-1.98c0.32-0.78,0.79-1.42,1.39-1.92
			C242.21,129.16,242.21,129.76,242.1,130.47z M245.97,128.03c1.13,0.12,2.39,0.65,3.81,1.6l-1.63,0.52
			C247.04,129.74,246.32,129.03,245.97,128.03z"/>
	</g>
	<path class="st1" d="M217.28,122.71h-22.28l-15.76,15.76v12.33h-24.7l2.12-2.56l7.83-9.44h-31.31l7.83,9.44l2.12,2.56H68.55
		l-32.69-32.69v7.66l25.03,25.03H35.85v5.42h30.45l17.32,17.32l3.83,3.83l3.83-3.83l17.32-17.32h70.62v4.54l15.76,15.76h22.28
		l15.76-15.76v-22.28L217.28,122.71z M87.46,169.71l-13.49-13.49h26.98L87.46,169.71z M227.33,158.4l-12.41,12.41h-17.56
		l-12.41-12.41v-17.56l12.41-12.41h17.56l12.41,12.41V158.4z"/>
	<g>
		<path class="st0" d="M122.83,167.61c-0.46-0.09-0.69-0.14-0.68-0.16c0.1-0.15,0.31-0.3,0.64-0.46c0.43-0.21,0.92-0.35,1.46-0.4
			c0.35,0,0.56-0.09,0.64-0.26c0.12-0.25,0.18-0.53,0.18-0.82c-0.03-0.36-0.1-0.64-0.2-0.86c-0.09-0.18-0.17-0.27-0.26-0.27
			c-0.01,0-0.02,0-0.04,0.01c-0.1,0.22-0.17,0.39-0.2,0.52c0.02,0.12,0.06,0.23,0.14,0.34c0.1,0.14,0.16,0.26,0.2,0.36
			c-0.03,0.15-0.18,0.22-0.46,0.22c-0.11,0.01-0.31,0.07-0.59,0.19c-0.32,0.13-0.59,0.28-0.82,0.44c-0.57,0.39-0.92,0.72-1.02,0.99
			c-0.05,0.12-0.07,0.19-0.07,0.21c0,0.11,0.12,0.24,0.35,0.39c0.02,0.01,0.23,0.05,0.66,0.14c0.29,0.06,0.46,0.16,0.53,0.3
			c-0.68,0.5-1.7,0.9-3.05,1.22c-1.44,0.33-3.02,0.5-4.73,0.5c-2.24,0-4.26-0.61-6.06-1.83c-0.2-0.14-0.33-0.2-0.38-0.2
			c-0.02,0-0.03,0.01-0.03,0.03c0,0.05,0.05,0.15,0.16,0.3c0.31,0.46,0.85,0.97,1.61,1.54c0.83,0.37,1.65,0.62,2.47,0.77
			c0.68,0.12,1.48,0.18,2.4,0.18c1.33,0,2.74-0.17,4.22-0.52c1.81-0.43,2.98-0.98,3.51-1.67c0.16-0.33,0.22-0.61,0.21-0.82
			C123.57,167.83,123.32,167.71,122.83,167.61z"/>
		<path class="st0" d="M121.35,170.87c-0.08,0.16-0.12,0.24-0.11,0.27c0.01,0.05,0.09,0.11,0.24,0.2c0.13,0.08,0.22,0.13,0.27,0.13
			c0.05,0,0.09-0.08,0.15-0.22c0.05-0.13,0.07-0.22,0.05-0.27c-0.15-0.18-0.3-0.3-0.46-0.36
			C121.47,170.65,121.42,170.74,121.35,170.87z"/>
		<path class="st0" d="M122.49,170.51c-0.12-0.09-0.2-0.14-0.23-0.14c-0.08,0.04-0.17,0.21-0.27,0.51c0.03,0.06,0.1,0.14,0.2,0.23
			c0.1,0.09,0.19,0.14,0.25,0.15c0.07-0.01,0.13-0.1,0.2-0.25c0.05-0.12,0.07-0.21,0.07-0.25
			C122.7,170.69,122.62,170.61,122.49,170.51z"/>
		<path class="st0" d="M124.07,163.27c-0.25,0.18-0.37,0.31-0.37,0.4c0,0.03,0.02,0.04,0.06,0.05c0.03,0.01,0.08,0,0.15-0.01
			c0.11-0.1,0.31-0.21,0.61-0.34c0.26-0.11,0.43-0.22,0.52-0.34c0.09-0.11,0.14-0.23,0.14-0.34c0-0.04-0.01-0.05-0.04-0.05
			c-0.01,0-0.02,0-0.03,0c-0.04,0.02-0.13,0.09-0.27,0.19c-0.1,0.07-0.21,0.13-0.34,0.17c-0.08-0.02-0.16-0.04-0.25-0.06
			c-0.1-0.02-0.2-0.09-0.3-0.19c0-0.09,0.1-0.14,0.31-0.17c0.01,0,0.02,0.02,0.02,0.05c0,0.04,0.01,0.06,0.03,0.06
			c0.09,0.02,0.15,0.01,0.17-0.01c0.03-0.02,0.05-0.05,0.08-0.08c0.05-0.2,0.05-0.32,0.02-0.36c-0.06-0.07-0.13-0.1-0.23-0.1
			c-0.3,0-0.53,0.27-0.7,0.81c0.05,0.15,0.12,0.24,0.18,0.28C123.82,163.22,123.9,163.24,124.07,163.27z"/>
		<path class="st0" d="M126.43,164.77c0.09,0.82,0.2,1.33,0.32,1.54c0.11,0.18,0.35,0.28,0.73,0.28c0.2,0,0.4-0.16,0.6-0.48
			c0.11,0.13,0.31,0.25,0.62,0.36c0.25,0.09,0.41,0.13,0.49,0.13c0.1,0,0.18-0.03,0.22-0.08c0.03-0.04,0.07-0.12,0.1-0.25
			c0.24,0.18,0.57,0.28,0.98,0.32c0.28,0,0.52-0.1,0.72-0.31c0.02-0.02,0.13-0.17,0.32-0.46c0.13,0.26,0.22,0.42,0.26,0.46
			c0.12,0.09,0.26,0.17,0.44,0.24c0.14,0.05,0.24,0.08,0.31,0.08c0.45-0.03,0.69-0.33,0.74-0.89c0.01-0.09,0.01-0.19,0.01-0.29
			c0-0.38-0.06-0.86-0.19-1.45c-0.1-0.45-0.2-0.9-0.31-1.35c0.08-0.2,0.14-0.37,0.16-0.49c0.01-0.06,0.02-0.13,0.02-0.22
			c0-0.01-0.04-0.03-0.12-0.08c-0.09-0.05-0.15-0.1-0.18-0.14c-0.03-0.04-0.04-0.09-0.05-0.15c-0.01-0.07-0.03-0.11-0.06-0.15
			c-0.03-0.03-0.05-0.05-0.07-0.05c-0.06,0-0.11,0.13-0.15,0.39c-0.05,0.31-0.08,0.46-0.08,0.46c0.07,0.08,0.13,0.19,0.17,0.36
			c0.23,1.3,0.42,2.3,0.57,3c0,0.08-0.05,0.14-0.15,0.2c-0.1,0.06-0.21,0.09-0.33,0.09c-0.12,0-0.28-0.07-0.47-0.22
			c-0.18-0.14-0.28-0.24-0.29-0.31c0-0.05,0-0.1,0.01-0.17c0.01-0.07,0.01-0.11,0.01-0.12c-0.03-0.02-0.05-0.02-0.07-0.02
			c-0.07,0-0.15,0.1-0.26,0.31c-0.12,0.23-0.24,0.37-0.36,0.42c-0.19,0.08-0.39,0.12-0.61,0.12v0.01c-0.3-0.03-0.61-0.18-0.93-0.46
			c-0.11-0.13-0.23-0.25-0.34-0.38c-0.13-0.14-0.26-0.21-0.4-0.21c-0.07,0-0.14,0.02-0.22,0.05c-0.05,0.03-0.13,0.16-0.25,0.4
			c-0.13,0.25-0.26,0.43-0.4,0.55c-0.2,0.04-0.36,0.05-0.46,0.05c-0.26,0-0.44-0.1-0.53-0.31c-0.06-0.14-0.15-0.62-0.26-1.43
			c-0.01-0.05-0.08-0.64-0.22-1.77c-0.09-0.7-0.18-1.19-0.28-1.46c-0.02-0.04-0.03-0.06-0.04-0.06c-0.03,0-0.06,0.09-0.1,0.28
			c-0.03,0.15-0.05,0.3-0.08,0.45c0.08,0.42,0.13,0.7,0.16,0.86C126.24,163.2,126.34,163.99,126.43,164.77z M128.6,165.31
			c0.03-0.07,0.09-0.11,0.18-0.11c0.16,0.01,0.31,0.2,0.46,0.6c-0.48-0.18-0.72-0.27-0.72-0.27
			C128.54,165.46,128.57,165.39,128.6,165.31z"/>
		<path class="st0" d="M131,164.44c0.15,0.06,0.28,0.09,0.37,0.09c0.02,0,0.03,0,0.04-0.01c0.04-0.03,0.07-0.08,0.1-0.15
			c0.01-0.03,0.05-0.15,0.11-0.35c0.01-0.02,0.01-0.04,0.01-0.05c0-0.07-0.05-0.13-0.15-0.18c-0.11-0.05-0.22-0.1-0.33-0.16
			c-0.02-0.01-0.04-0.01-0.06-0.01c-0.06,0-0.12,0.07-0.18,0.2c-0.09,0.2-0.14,0.31-0.15,0.33c-0.02,0.03-0.03,0.05-0.03,0.07
			C130.73,164.3,130.82,164.37,131,164.44z"/>
		<path class="st0" d="M134.34,164.13c0.06,0.6,0.13,1.2,0.2,1.8c0.06,0.49,0.13,0.73,0.2,0.73c0.03,0,0.06-0.04,0.1-0.11
			c0.07-0.15,0.1-0.32,0.09-0.52c-0.04-0.56-0.13-1.35-0.25-2.37c-0.14-1.17-0.22-1.79-0.23-1.86c-0.05-0.34-0.09-0.51-0.13-0.51
			c-0.02,0-0.04,0.03-0.08,0.09c-0.09,0.17-0.14,0.4-0.14,0.68c0,0.07,0.03,0.3,0.08,0.7C134.24,163.31,134.3,163.77,134.34,164.13z
			"/>
		<path class="st0" d="M135.18,170.01c-0.08,0.15-0.12,0.24-0.11,0.27c0.01,0.05,0.09,0.11,0.24,0.2c0.13,0.08,0.22,0.13,0.27,0.13
			c0.05,0,0.09-0.08,0.15-0.22c0.05-0.13,0.07-0.22,0.05-0.27c-0.15-0.18-0.3-0.3-0.46-0.36
			C135.3,169.79,135.25,169.87,135.18,170.01z"/>
		<path class="st0" d="M136.32,169.65c-0.12-0.09-0.2-0.14-0.23-0.14c-0.08,0.04-0.17,0.21-0.27,0.51c0.03,0.06,0.1,0.14,0.2,0.23
			s0.19,0.14,0.25,0.15c0.07-0.01,0.13-0.1,0.2-0.25c0.05-0.12,0.07-0.21,0.07-0.25C136.53,169.83,136.45,169.75,136.32,169.65z"/>
		<path class="st0" d="M141.36,167.75c0,0-0.01-0.01-0.01-0.01l-0.3-0.14c-0.02-0.01-0.04-0.01-0.05-0.01
			c-0.06,0-0.11,0.06-0.16,0.18c-0.08,0.18-0.12,0.28-0.14,0.3c-0.02,0.02-0.02,0.04-0.02,0.06c0,0.07,0.08,0.14,0.23,0.2
			c0.14,0.05,0.25,0.08,0.34,0.08c0.02,0,0.03,0,0.04,0c0.04-0.04,0.1-0.18,0.19-0.44c0.01-0.02,0.01-0.04,0.01-0.05
			c0-0.02-0.01-0.03-0.02-0.05c0.03,0.01,0.07,0.02,0.11,0.03c0.36,0.08,0.72,0.13,1.08,0.17c0.22,0.02,0.39-0.01,0.53-0.1
			c0.3-0.19,0.59-0.51,0.87-0.94c0.21-0.34,0.34-0.6,0.39-0.8c0.08-0.34,0.11-0.57,0.1-0.7c0.19-0.07,0.29-0.1,0.3-0.11
			c0.15-0.11,0.27-0.32,0.35-0.62c0.16,0.65,0.25,1,0.27,1.05c0.16,0.41,0.41,0.65,0.74,0.73c0.1,0.02,0.25,0.04,0.45,0.04
			c0.45-0.03,0.69-0.33,0.74-0.89c0.01-0.09,0.01-0.19,0.01-0.29c0-0.38-0.06-0.86-0.19-1.45c-0.1-0.45-0.2-0.9-0.31-1.35
			c0.08-0.2,0.14-0.37,0.16-0.49c0.01-0.06,0.02-0.13,0.02-0.22c0-0.01-0.04-0.03-0.12-0.08c-0.09-0.05-0.15-0.1-0.18-0.14
			s-0.04-0.09-0.05-0.15c-0.01-0.07-0.03-0.11-0.06-0.15c-0.03-0.03-0.05-0.05-0.07-0.05c-0.06,0-0.11,0.13-0.15,0.39
			c-0.05,0.31-0.08,0.46-0.08,0.46c0.07,0.08,0.13,0.19,0.17,0.36c0.23,1.3,0.42,2.3,0.57,3c0,0.08-0.05,0.14-0.15,0.2
			c-0.1,0.06-0.21,0.09-0.33,0.09v0c-0.35,0-0.63-0.14-0.85-0.43c-0.15-0.21-0.27-0.5-0.36-0.88c-0.05-0.24-0.1-0.48-0.15-0.72
			c-0.02-0.06-0.04-0.1-0.07-0.1c-0.05,0-0.1,0.07-0.15,0.22c-0.05,0.18-0.08,0.32-0.09,0.42c-0.08,0.24-0.25,0.36-0.51,0.36
			c-0.06,0-0.11-0.01-0.17-0.03c-0.01,0-0.04-0.02-0.08-0.05c-0.04-0.03-0.07-0.05-0.1-0.05c-0.05,0-0.08,0.05-0.11,0.15
			c0,0.09-0.01,0.21-0.03,0.34c-0.02,0.13-0.03,0.22-0.03,0.24c0,0.06,0.02,0.09,0.06,0.09c0.19,0.05,0.32,0.14,0.36,0.28
			c0,0.12-0.11,0.34-0.34,0.65c-0.29,0.4-0.66,0.74-1.1,1.02c-0.18,0.11-0.45,0.22-0.82,0.32c-0.26,0.03-0.47,0.04-0.61,0.04
			C141.41,167.73,141.38,167.74,141.36,167.75z"/>
		<path class="st0" d="M144.1,162.37c0.15,0.09,0.25,0.14,0.3,0.15c0.05,0,0.1-0.07,0.15-0.21c0.05-0.13,0.08-0.23,0.08-0.3
			c0-0.02,0-0.03,0-0.04c-0.16-0.18-0.33-0.31-0.51-0.4c-0.21,0.32-0.3,0.51-0.27,0.57C143.85,162.19,143.94,162.27,144.1,162.37z"
			/>
		<path class="st0" d="M145.23,162.2c0.08-0.01,0.15-0.1,0.22-0.28c0.05-0.14,0.08-0.23,0.08-0.29c-0.01-0.06-0.09-0.15-0.24-0.26
			c-0.14-0.1-0.22-0.15-0.25-0.15c-0.04,0.02-0.09,0.1-0.17,0.25c-0.07,0.14-0.12,0.24-0.14,0.32c0.04,0.07,0.11,0.16,0.22,0.25
			C145.06,162.14,145.15,162.2,145.23,162.2z"/>
		<path class="st0" d="M148.43,164.13c0.06,0.6,0.13,1.2,0.2,1.8c0.06,0.49,0.13,0.73,0.2,0.73c0.03,0,0.06-0.04,0.1-0.11
			c0.07-0.15,0.1-0.32,0.09-0.52c-0.04-0.56-0.13-1.35-0.25-2.37c-0.14-1.17-0.22-1.79-0.23-1.86c-0.05-0.34-0.09-0.51-0.13-0.51
			c-0.02,0-0.04,0.03-0.08,0.09c-0.09,0.17-0.14,0.4-0.14,0.68c0,0.07,0.03,0.3,0.08,0.7C148.33,163.31,148.39,163.77,148.43,164.13
			z"/>
		<path class="st0" d="M151.27,164.69c-0.04,0-0.06,0.05-0.06,0.16c0,0.01-0.05,0.12-0.13,0.34c-0.05,0.12-0.07,0.22-0.07,0.3
			c0,0.08,0.02,0.14,0.07,0.2c0.13,0.24,0.27,0.48,0.4,0.72c0.12,0.26,0.18,0.54,0.17,0.82c-0.31,0.53-1.26,1-2.85,1.39
			c-1.52,0.37-3.08,0.56-4.68,0.56c-1.79,0-3.4-0.26-4.85-0.77c0.34-0.16,0.65-0.44,0.95-0.86c0.29-0.41,0.45-0.73,0.47-0.97h0.2
			c0.35,0,0.56-0.09,0.64-0.26c0.12-0.25,0.18-0.53,0.18-0.82c-0.03-0.36-0.1-0.64-0.2-0.86c-0.09-0.18-0.17-0.27-0.26-0.27
			c-0.01,0-0.02,0-0.04,0.01c-0.1,0.22-0.17,0.39-0.2,0.52c0.02,0.12,0.06,0.23,0.14,0.34c0.1,0.14,0.16,0.26,0.2,0.36
			c-0.03,0.15-0.18,0.22-0.46,0.22h-0.15c-0.07-0.29-0.2-0.56-0.38-0.81c-0.18-0.24-0.31-0.35-0.41-0.34
			c-0.17,0.03-0.34,0.2-0.51,0.51c-0.15,0.27-0.22,0.49-0.22,0.66c0,0.5,0.28,0.76,0.85,0.76c0.06,0,0.17-0.01,0.35-0.02
			c-0.09,0.21-0.31,0.48-0.68,0.79c-0.37,0.31-0.68,0.51-0.92,0.58c-0.15,0.04-0.32,0.07-0.52,0.07c-0.1-0.04-0.2-0.08-0.29-0.13
			c0.07-0.16,0.11-0.38,0.14-0.69c0.02-0.35-0.2-0.56-0.66-0.62c-0.19-0.02-0.37-0.04-0.56-0.06c-0.19-0.03-0.35-0.11-0.5-0.22
			c-0.02-0.03-0.02-0.06-0.02-0.1c0-0.19,0.18-0.47,0.54-0.84c0.34-0.34,0.57-0.51,0.69-0.51c0.12,0,0.23,0.07,0.3,0.2
			c0.03,0.06,0.07,0.09,0.1,0.09c0.03,0,0.06-0.03,0.1-0.09c0.13-0.21,0.2-0.42,0.2-0.63c0-0.21-0.12-0.37-0.35-0.48
			c-0.38,0.07-0.79,0.37-1.22,0.89c-0.49,0.58-0.73,1.15-0.73,1.71c0,0.07,0,0.15,0.01,0.22c0.08,0.25,0.31,0.42,0.67,0.51
			c0.21,0.03,0.41,0.06,0.61,0.09c0.26,0.04,0.39,0.09,0.39,0.16c0,0.02-0.01,0.04-0.03,0.06c-0.04,0.03-0.08,0.06-0.13,0.09
			c-0.11-0.06-0.23-0.12-0.34-0.18c-0.21-0.12-0.36-0.19-0.46-0.19c-0.06,0-0.09,0.02-0.09,0.07c0,0.11,0.12,0.27,0.36,0.47
			c0.04,0.03,0.07,0.05,0.1,0.08c-0.55,0.3-1.26,0.57-2.15,0.8c-1.3,0.35-2.58,0.53-3.87,0.55c-2.79,0.04-5.04-0.5-6.74-1.6
			c-0.17-0.11-0.31-0.17-0.41-0.17c-0.06,0-0.09,0.02-0.09,0.07c0,0.06,0.06,0.16,0.17,0.28c0.27,0.29,0.59,0.57,0.95,0.83
			c0.25,0.18,0.51,0.36,0.76,0.53c1.22,0.61,3.01,0.91,5.35,0.91c1.09,0,2.38-0.21,3.88-0.63c1.31-0.37,2.19-0.75,2.66-1.15
			c0.19,0.15,0.33,0.27,0.43,0.34c0.41,0.3,0.78,0.52,1.11,0.65c0.26,0.14,0.83,0.28,1.68,0.42c1.06,0.17,2.16,0.26,3.31,0.25
			c1.52-0.01,2.96-0.17,4.33-0.5c1.38-0.33,2.34-0.75,2.88-1.25c0.43-0.4,0.66-0.99,0.67-1.75c0-0.2-0.1-0.56-0.32-1.07
			C151.51,164.95,151.36,164.69,151.27,164.69z M139.91,165.83c-0.12-0.02-0.21-0.07-0.29-0.13c0.02-0.16,0.08-0.24,0.2-0.25
			c0.08-0.01,0.15,0.03,0.2,0.13c0.05,0.08,0.07,0.16,0.07,0.24C140.07,165.84,140.01,165.85,139.91,165.83z"/>
		<path class="st0" d="M149.85,162.95c0.15,0.09,0.25,0.14,0.3,0.15c0.06,0.01,0.19-0.16,0.38-0.51c0.01-0.01,0.01-0.02,0.01-0.03
			c0-0.06-0.07-0.13-0.21-0.21c-0.11-0.06-0.21-0.12-0.32-0.17c-0.01,0-0.01-0.01-0.02-0.01c-0.05,0-0.12,0.08-0.22,0.24
			c-0.08,0.12-0.13,0.22-0.16,0.3C149.59,162.76,149.67,162.84,149.85,162.95z"/>
		<path class="st0" d="M157.73,164.44c0.15,0.06,0.28,0.09,0.37,0.09c0.02,0,0.03,0,0.04-0.01c0.04-0.03,0.07-0.08,0.1-0.15
			c0.01-0.03,0.05-0.15,0.11-0.35c0.01-0.02,0.01-0.04,0.01-0.05c0-0.07-0.05-0.13-0.15-0.18c-0.11-0.05-0.22-0.1-0.33-0.16
			c-0.02-0.01-0.04-0.01-0.06-0.01c-0.06,0-0.12,0.07-0.18,0.2c-0.09,0.2-0.14,0.31-0.15,0.33c-0.02,0.03-0.03,0.05-0.03,0.07
			C157.47,164.3,157.56,164.37,157.73,164.44z"/>
		<path class="st0" d="M160.76,160.68c-1.2,0.63-1.97,1.12-2.31,1.47c-0.15,0.16-0.24,0.25-0.26,0.28
			c-0.06,0.08-0.09,0.18-0.09,0.29c0,0.33,0.01,0.53,0.03,0.6c0.05,0.19,0.19,0.34,0.42,0.45c0.02,0,0.05-0.02,0.1-0.05
			c0.03-0.02,0.06-0.03,0.08-0.02c0.2,0.05,0.53,0.24,0.99,0.58c0.5,0.37,0.76,0.65,0.78,0.83c0,0.15-0.13,0.31-0.4,0.48
			c-0.28,0.17-0.56,0.26-0.84,0.26c-0.12,0-0.28-0.07-0.47-0.22c-0.18-0.14-0.28-0.24-0.29-0.31c0-0.05,0-0.1,0.01-0.17
			c0.01-0.07,0.01-0.11,0.01-0.12c-0.03-0.02-0.05-0.02-0.07-0.02c-0.07,0-0.15,0.1-0.26,0.31c-0.12,0.23-0.24,0.37-0.36,0.42
			c-0.19,0.08-0.39,0.12-0.61,0.12v0.01c-0.26-0.02-0.5-0.1-0.72-0.25c0.09-0.09,0.18-0.18,0.27-0.28c0.09-0.11,0.14-0.22,0.14-0.34
			c0-0.18-0.16-0.33-0.49-0.45c-0.24-0.09-0.45-0.13-0.61-0.13c-0.35,0-0.61,0.09-0.76,0.27c-0.09,0.14-0.18,0.39-0.26,0.75
			c0.19-0.06,0.32-0.1,0.39-0.1c0.09,0,0.23,0.1,0.42,0.29c-0.25,0.15-0.62,0.22-1.11,0.22c-0.26,0-0.44-0.1-0.53-0.31
			c-0.06-0.14-0.15-0.62-0.26-1.43c-0.01-0.05-0.08-0.64-0.22-1.77c-0.09-0.7-0.18-1.19-0.28-1.46c-0.02-0.04-0.03-0.06-0.04-0.06
			c-0.03,0-0.06,0.09-0.1,0.28c-0.03,0.15-0.05,0.3-0.08,0.45c0.08,0.42,0.13,0.7,0.16,0.86c0.12,0.8,0.22,1.59,0.31,2.37
			c0.09,0.82,0.2,1.33,0.32,1.54c0.11,0.18,0.35,0.28,0.73,0.28c0.27,0,0.52-0.06,0.76-0.19c0.08-0.05,0.3-0.19,0.65-0.44
			c0.28,0.25,0.46,0.41,0.55,0.45c0.19,0.11,0.46,0.17,0.8,0.17v0.01c0.28,0,0.52-0.1,0.72-0.31c0.02-0.02,0.13-0.17,0.32-0.46
			c0.13,0.26,0.22,0.42,0.26,0.46c0.12,0.09,0.26,0.17,0.44,0.24c0.14,0.05,0.24,0.08,0.31,0.08c0.46,0,0.85-0.18,1.18-0.53
			c0.28-0.3,0.42-0.58,0.42-0.85c0-0.57-0.34-1.12-1.01-1.67c-0.42-0.34-0.84-0.59-1.27-0.77c0.19-0.19,0.48-0.4,0.86-0.62
			c0.84-0.5,1.44-0.86,1.78-1.07c0.41-0.22,0.83-0.45,1.24-0.68c0.49-0.27,0.84-0.54,1.05-0.8c0.08-0.15,0.13-0.29,0.16-0.4
			c-0.01-0.04-0.02-0.07-0.04-0.08C162.49,159.73,161.53,160.25,160.76,160.68z"/>
		<path class="st0" d="M174.31,164.7c-0.1-0.24-0.26-0.36-0.47-0.36c-0.12,0-0.25,0.08-0.37,0.23c-0.12,0.15-0.22,0.32-0.28,0.53
			c-0.04,0-0.06,0-0.09,0c-0.02,0.01-0.16,0.18-0.44,0.49c-0.11,0.13-0.3,0.21-0.55,0.24v0.01c-0.26-0.02-0.5-0.1-0.72-0.25
			c0.09-0.09,0.18-0.18,0.27-0.27c0.09-0.11,0.14-0.22,0.14-0.34c0-0.18-0.16-0.33-0.49-0.45c-0.25-0.09-0.45-0.13-0.62-0.13
			c-0.35,0-0.61,0.09-0.77,0.27c-0.09,0.14-0.17,0.39-0.26,0.75c0.19-0.06,0.32-0.1,0.39-0.1c0.09,0,0.23,0.1,0.42,0.29
			c-0.25,0.15-0.62,0.22-1.11,0.22c-0.45,0.02-0.76,0.04-0.92,0.05c0.17-0.16,0.3-0.45,0.38-0.88c0.05-0.25,0.07-0.46,0.07-0.63
			c0-0.23-0.05-0.34-0.15-0.34c-0.02,0-0.05,0.01-0.06,0.02c-0.38,0.38-0.64,0.74-0.78,1.09c-0.07,0.18-0.13,0.36-0.2,0.54
			c-0.07,0.1-0.27,0.15-0.59,0.15c-0.31-0.01-0.62-0.34-0.94-0.97c-0.19-0.45-0.38-0.89-0.57-1.35c-0.06-0.14-0.11-0.21-0.15-0.21
			c-0.04,0-0.06,0.07-0.08,0.21c-0.01,0.1-0.01,0.22,0,0.38c0.07,0.16,0.14,0.4,0.22,0.69c0.07,0.3,0.11,0.5,0.11,0.6
			c0,0.27-0.13,0.5-0.4,0.66c-0.24,0.16-0.52,0.23-0.84,0.23c-0.18,0-0.29-0.04-0.32-0.11c-0.02-0.03-0.02-0.17-0.02-0.41
			c0-0.05-0.02-0.07-0.05-0.06c-0.03,0-0.05,0.03-0.08,0.08c-0.13,0.27-0.19,0.51-0.19,0.7c0,0.16,0.06,0.31,0.17,0.43
			c0.1,0.12,0.23,0.19,0.37,0.19c0.52,0.01,0.93-0.15,1.21-0.48c0.24-0.28,0.36-0.63,0.36-1.05c0-0.05,0-0.09,0-0.14
			c0.17,0.38,0.31,0.66,0.42,0.81c0.24,0.36,0.5,0.54,0.77,0.54v0.21c0.13,0,0.23,0,0.3-0.01c-0.02,0.1-0.03,0.21-0.03,0.32
			c0,0.33,0.08,0.62,0.22,0.84c0.17,0.27,0.42,0.42,0.74,0.46c0.18,0.02,0.33-0.05,0.46-0.22c0.15-0.2,0.22-0.5,0.22-0.9
			c0-0.31-0.09-0.55-0.27-0.7c0.13,0,0.26,0,0.38,0c0.13,0,0.21,0,0.24,0c0.27,0,0.52-0.06,0.76-0.19c0.08-0.05,0.3-0.19,0.65-0.44
			c0.28,0.26,0.46,0.41,0.55,0.46c0.19,0.11,0.46,0.17,0.79,0.17v0.01c0.26-0.05,0.45-0.18,0.56-0.37c0.16-0.28,0.26-0.44,0.3-0.48
			c0.15,0.13,0.37,0.22,0.65,0.27c0.12,0.03,0.26,0.04,0.39,0.05c0.1-0.04,0.2-0.14,0.28-0.31c0.09-0.16,0.13-0.31,0.13-0.45
			C174.42,165.08,174.38,164.87,174.31,164.7z M168.16,165.12c0.18-0.26,0.31-0.38,0.39-0.38c0.03,0,0.04,0.03,0.04,0.08
			c0.01,0.05,0,0.16-0.02,0.35c-0.1,0.1-0.19,0.21-0.28,0.31c-0.14,0.13-0.29,0.21-0.43,0.22
			C167.88,165.57,167.98,165.38,168.16,165.12z M168.46,167.69c-0.04,0-0.07-0.01-0.1-0.02c-0.42-0.15-0.65-0.42-0.68-0.8
			c0.29,0.12,0.48,0.21,0.57,0.26c0.17,0.1,0.31,0.22,0.42,0.37c0.01,0.02,0.02,0.04,0.02,0.05
			C168.68,167.64,168.61,167.69,168.46,167.69z M173.36,165.14c0.03-0.04,0.05-0.07,0.08-0.1c0.05-0.05,0.11-0.09,0.17-0.09
			c0.13-0.01,0.22,0.03,0.26,0.13c0.01,0.02,0.04,0.12,0.07,0.29C173.74,165.34,173.54,165.27,173.36,165.14z"/>
	</g>
	<g>
		<g>
			<path class="st2" d="M36.87,166.29c3.2-0.75,6.07,1.17,6.84,4.47c0.43,1.83,0.12,3.52-0.85,4.81l-1.83-1.23
				c0.65-0.91,0.87-1.9,0.62-2.96c-0.47-1.99-2.19-3.07-4.2-2.6s-3.07,2.21-2.6,4.2c0.25,1.06,0.88,1.86,1.89,2.37l-1.09,1.92
				c-1.46-0.71-2.49-2.09-2.93-3.94C31.96,170.04,33.67,167.04,36.87,166.29z"/>
			<path class="st2" d="M41.57,185.15l-4.52,1.57l-0.75-2.15l0.99-0.34c-0.87-0.18-1.54-0.87-1.94-2.03
				c-0.64-1.85,0.01-3.32,1.37-3.79c1.4-0.48,2.71,0.17,3.55,2.58l0.63,1.82c0.99-0.34,1.36-1.13,0.93-2.37
				c-0.29-0.84-0.87-1.61-1.53-2.03l1.32-1.38c0.92,0.65,1.7,1.82,2.14,3.08C44.61,182.53,43.97,184.32,41.57,185.15z M38.76,183.55
				l0.81-0.28l-0.55-1.57c-0.37-1.07-0.89-1.28-1.42-1.09c-0.57,0.2-0.79,0.82-0.51,1.63C37.37,183,37.95,183.54,38.76,183.55z"/>
			<path class="st2" d="M46.04,195.13l-4.35,2.01l-1.02-2.2l4.01-1.86c1.23-0.57,1.53-1.4,1.08-2.37c-0.49-1.06-1.49-1.52-2.89-0.88
				l-3.76,1.74l-1.02-2.2l7.6-3.52l0.97,2.11l-0.89,0.41c0.92,0.29,1.69,1.02,2.17,2.05C48.78,192.22,48.36,194.06,46.04,195.13z"/>
			<path class="st2" d="M50.94,203.62l-4.12,2.43l-1.16-1.96l0.9-0.53c-0.89,0-1.68-0.55-2.3-1.61c-1-1.69-0.65-3.25,0.6-3.99
				c1.27-0.75,2.69-0.38,3.99,1.83l0.98,1.66c0.9-0.53,1.11-1.38,0.44-2.5c-0.45-0.76-1.17-1.41-1.9-1.68l1.02-1.61
				c1.03,0.46,2.03,1.44,2.71,2.6C53.39,200.46,53.13,202.33,50.94,203.62z M47.87,202.62l0.74-0.44l-0.85-1.44
				c-0.58-0.98-1.12-1.07-1.61-0.79c-0.52,0.31-0.61,0.96-0.18,1.7C46.39,202.35,47.07,202.76,47.87,202.62z"/>
			<path class="st2" d="M56.58,211.61l-3.87,2.8l-1.33-1.84l0.85-0.61c-0.88,0.08-1.72-0.39-2.44-1.39
				c-1.15-1.59-0.95-3.18,0.22-4.02c1.2-0.87,2.64-0.62,4.14,1.45l1.13,1.56c0.85-0.61,0.97-1.47,0.21-2.53
				c-0.52-0.72-1.3-1.29-2.05-1.5l0.86-1.7c1.07,0.36,2.15,1.25,2.94,2.33C58.73,208.23,58.63,210.12,56.58,211.61z M53.42,210.89
				l0.69-0.5l-0.98-1.35c-0.67-0.92-1.22-0.97-1.67-0.64c-0.49,0.36-0.52,1.01-0.02,1.7C51.93,210.76,52.64,211.11,53.42,210.89z"/>
			<path class="st2" d="M63.73,219.88l-3.59,3.18l-1.61-1.82l3.31-2.93c1.01-0.9,1.07-1.78,0.36-2.58
				c-0.77-0.87-1.87-1.03-3.02-0.01l-3.1,2.75l-1.61-1.82l6.27-5.55l1.54,1.74l-0.73,0.65c0.97,0.02,1.91,0.49,2.67,1.34
				C65.52,216.31,65.65,218.19,63.73,219.88z"/>
			<path class="st2" d="M72.86,220.14l1.89,1.68l-7.24,8.15l-1.89-1.68L72.86,220.14z"/>
			<path class="st2" d="M79.4,233.27l-2.9,3.82l-1.93-1.47l2.68-3.52c0.82-1.08,0.7-1.95-0.15-2.6c-0.93-0.71-2.03-0.65-2.97,0.58
				l-2.51,3.3l-1.93-1.47l5.07-6.67l1.85,1.4L76,227.42c0.95-0.17,1.97,0.11,2.88,0.8C80.45,229.41,80.94,231.24,79.4,233.27z"/>
			<path class="st2" d="M78.57,237.54l1.61-1.05c0.38,0.81,1.17,1.68,2.04,2.23c0.95,0.59,1.46,0.56,1.71,0.17
				c0.73-1.16-4.31-2.65-2.54-5.49c0.84-1.35,2.65-1.54,4.72-0.25c0.98,0.61,1.92,1.51,2.35,2.33l-1.6,1.04
				c-0.45-0.83-1.07-1.4-1.72-1.81c-0.93-0.58-1.5-0.53-1.73-0.16c-0.76,1.22,4.27,2.72,2.52,5.52c-0.82,1.32-2.64,1.49-4.77,0.17
				C79.97,239.48,78.96,238.39,78.57,237.54z"/>
			<path class="st2" d="M91.3,245.31c-0.61,0.08-1.34-0.1-2-0.45c-1.75-0.92-2.3-2.35-1.37-4.12l1.6-3.05l-1.14-0.6l0.87-1.65
				l1.14,0.6l0.95-1.81l2.15,1.13l-0.95,1.81l1.85,0.97l-0.87,1.65l-1.85-0.97l-1.59,3.02c-0.33,0.63-0.17,1.16,0.41,1.46
				c0.32,0.17,0.69,0.24,1.01,0.18L91.3,245.31z"/>
			<path class="st2" d="M96.19,238.77l2.21,1.01l-3.48,7.63l-2.21-1.01L96.19,238.77z M96.96,236.35c0.32-0.69,1.12-0.98,1.94-0.61
				c0.82,0.38,1.14,1.14,0.83,1.82c-0.34,0.74-1.13,1.02-1.96,0.65C96.95,237.83,96.65,237.04,96.96,236.35z"/>
			<path class="st2" d="M102.51,250.04c-0.59,0.15-1.34,0.05-2.04-0.23c-1.84-0.72-2.55-2.08-1.82-3.94l1.25-3.21l-1.2-0.47
				l0.68-1.74l1.2,0.47l0.74-1.9l2.26,0.88l-0.74,1.9l1.94,0.76l-0.68,1.74l-1.95-0.76l-1.24,3.18c-0.26,0.67-0.04,1.17,0.57,1.41
				c0.33,0.13,0.71,0.16,1.03,0.07L102.51,250.04z"/>
			<path class="st2" d="M114.64,245.43l-2.37,8.04l-2.21-0.65l0.28-0.96c-0.82,0.52-1.83,0.63-2.81,0.34
				c-2.02-0.59-3.1-2.15-2.37-4.63l1.34-4.54l2.33,0.69l-1.24,4.2c-0.4,1.34,0.03,2.12,1.06,2.42c1.08,0.32,2.06-0.14,2.49-1.62
				l1.17-3.97L114.64,245.43z"/>
			<path class="st2" d="M120.41,254.75c-0.56,0.25-1.31,0.27-2.04,0.12c-1.94-0.39-2.87-1.62-2.47-3.57l0.69-3.37l-1.27-0.26
				l0.37-1.83l1.27,0.26l0.41-2l2.38,0.48l-0.41,2l2.05,0.42l-0.37,1.83l-2.05-0.42l-0.68,3.34c-0.14,0.7,0.16,1.16,0.8,1.29
				c0.35,0.07,0.72,0.04,1.02-0.11L120.41,254.75z"/>
			<path class="st2" d="M130.46,252.96l-6.29-0.77c0.1,1.06,0.91,1.81,2.17,1.96c0.88,0.11,1.55-0.08,2.19-0.55l1.11,1.55
				c-0.88,0.79-2.1,1.11-3.6,0.92c-2.87-0.35-4.52-2.39-4.22-4.87c0.31-2.49,2.43-4.05,4.96-3.74c2.44,0.3,4.13,2.17,3.8,4.84
				C130.57,252.5,130.5,252.76,130.46,252.96z M124.32,250.77l4.1,0.5c-0.04-1.07-0.75-1.85-1.83-1.98
				C125.49,249.16,124.62,249.73,124.32,250.77z"/>
			<path class="st2" d="M136.3,252.59c-0.04-2.52,1.88-4.35,4.54-4.39c2.66-0.04,4.62,1.72,4.67,4.24c0.04,2.52-1.86,4.35-4.52,4.39
				C138.31,256.88,136.34,255.12,136.3,252.59z M143.04,252.48c-0.02-1.45-0.96-2.31-2.17-2.29c-1.22,0.02-2.14,0.91-2.11,2.36
				c0.02,1.45,0.97,2.31,2.19,2.29C142.16,254.82,143.06,253.93,143.04,252.48z"/>
			<path class="st2" d="M149.56,248.01l2.14-0.2l0.17,1.86l-2.08,0.2l0.59,6.29l-2.42,0.23l-0.59-6.29l-1.29,0.12l-0.17-1.86
				l1.29-0.12l-0.03-0.37c-0.18-1.88,0.86-3.21,2.93-3.4c0.68-0.06,1.41,0.01,1.89,0.28l-0.47,1.81c-0.28-0.16-0.63-0.24-1-0.2
				c-0.71,0.07-1.06,0.49-0.99,1.31L149.56,248.01z"/>
			<path class="st2" d="M166.36,242.15l2.46,10.62l-2.02,0.47l-6.79-5.22l1.5,6.45l-2.43,0.56l-2.46-10.62l2.03-0.47l6.77,5.22
				l-1.5-6.45L166.36,242.15z"/>
			<path class="st2" d="M178.37,245.83l-5.98,2.1c0.57,0.91,1.62,1.22,2.82,0.79c0.84-0.29,1.35-0.76,1.72-1.46l1.68,0.89
				c-0.44,1.1-1.39,1.92-2.81,2.42c-2.73,0.96-5.12-0.14-5.94-2.49c-0.83-2.37,0.38-4.71,2.79-5.55c2.32-0.81,4.66,0.11,5.55,2.66
				C178.26,245.37,178.32,245.63,178.37,245.83z M171.89,246.6l3.89-1.37c-0.51-0.94-1.49-1.33-2.52-0.96
				C172.22,244.63,171.69,245.53,171.89,246.6z"/>
			<path class="st2" d="M190.09,234.9l0.96,8.86l-2.1,1.03l-3.98-3.84l0.54,5.53l-2.1,1.03l-6.4-6.19l2.06-1.01l4.27,4.22
				l-0.65-5.99l1.85-0.9l4.28,4.21l-0.66-5.99L190.09,234.9z"/>
			<path class="st2" d="M203.12,227.52c1.42,1.97,0.83,4.26-1.53,5.97l-1.78,1.29l1.76,2.44l-2.05,1.48l-6.38-8.84l3.83-2.76
				C199.33,225.38,201.69,225.54,203.12,227.52z M201.05,229.01c-0.7-0.97-1.74-1.08-2.99-0.18l-1.67,1.2l2.22,3.07l1.67-1.2
				C201.52,231,201.74,229.97,201.05,229.01z"/>
			<path class="st2" d="M212.7,223.65l-4.74,4.21c0.87,0.63,1.96,0.51,2.91-0.33c0.66-0.59,0.97-1.21,1.03-2l1.9,0.19
				c0.01,1.18-0.56,2.31-1.69,3.31c-2.17,1.92-4.78,1.81-6.44-0.05c-1.66-1.88-1.43-4.5,0.48-6.19c1.84-1.63,4.36-1.66,6.15,0.35
				C212.42,223.27,212.57,223.49,212.7,223.65z M206.99,226.82l3.09-2.74c-0.83-0.68-1.88-0.66-2.7,0.06
				C206.56,224.87,206.41,225.9,206.99,226.82z"/>
			<path class="st2" d="M213.98,210.52l8.49,7.84l-1.57,1.71l-0.71-0.66c0.13,0.94-0.21,1.84-0.97,2.66
				c-1.61,1.74-4.08,1.94-6.01,0.15c-1.93-1.78-1.94-4.26-0.33-6c0.7-0.76,1.53-1.17,2.44-1.16l-2.99-2.76L213.98,210.52z
				 M217.78,217.26c-1.06-0.98-2.34-0.89-3.15-0.01c-0.82,0.89-0.82,2.17,0.25,3.15c1.06,0.98,2.34,0.89,3.16-0.01
				C218.85,219.52,218.84,218.24,217.78,217.26z"/>
			<path class="st2" d="M224.95,207.31l3.82,2.88l-1.37,1.82l-0.83-0.63c0.34,0.82,0.14,1.76-0.61,2.74
				c-1.18,1.57-2.76,1.84-3.91,0.97c-1.18-0.89-1.37-2.34,0.16-4.38l1.16-1.54c-0.83-0.63-1.69-0.5-2.48,0.55
				c-0.53,0.71-0.85,1.62-0.83,2.4l-1.88-0.33c0.03-1.13,0.56-2.43,1.37-3.5C221.09,206.25,222.92,205.78,224.95,207.31z
				 M225.19,210.54l-0.68-0.52l-1,1.33c-0.68,0.91-0.56,1.45-0.12,1.79c0.48,0.37,1.12,0.2,1.63-0.49
				C225.51,212,225.63,211.22,225.19,210.54z"/>
			<path class="st2" d="M227.79,196.02l5.96,3.62c2.66,1.62,3.01,3.8,1.44,6.38c-0.83,1.36-1.96,2.47-3.12,2.92l-0.99-1.73
				c0.86-0.31,1.79-1.12,2.35-2.04c0.89-1.46,0.61-2.51-0.68-3.29l-0.31-0.19c0.27,0.91,0.08,1.87-0.48,2.8
				c-1.21,1.98-3.55,2.75-5.64,1.48c-2.09-1.27-2.49-3.7-1.28-5.68c0.61-1,1.44-1.62,2.46-1.75l-0.92-0.56L227.79,196.02z
				 M229.89,200.11c-1.05-0.64-2.23-0.28-2.9,0.81c-0.66,1.09-0.44,2.32,0.61,2.96c1.05,0.64,2.24,0.27,2.91-0.82
				C231.17,201.96,230.95,200.75,229.89,200.11z"/>
			<path class="st2" d="M232.27,196.55c-2.28-1.08-3.06-3.61-1.92-6.02c1.14-2.41,3.59-3.38,5.87-2.3c2.28,1.08,3.07,3.59,1.93,6
				C237,196.64,234.55,197.63,232.27,196.55z M235.16,190.45c-1.31-0.62-2.49-0.16-3.01,0.93c-0.52,1.1-0.13,2.32,1.17,2.94
				c1.31,0.62,2.5,0.15,3.02-0.95C236.87,192.28,236.47,191.08,235.16,190.45z"/>
			<path class="st2" d="M235.84,176.95l6.58,2.33c2.94,1.04,3.73,3.1,2.72,5.95c-0.53,1.5-1.41,2.82-2.46,3.49l-1.32-1.49
				c0.78-0.48,1.52-1.46,1.88-2.47c0.57-1.62,0.09-2.58-1.34-3.08l-0.34-0.12c0.45,0.84,0.47,1.82,0.1,2.84
				c-0.77,2.19-2.91,3.42-5.21,2.6c-2.31-0.81-3.2-3.11-2.42-5.3c0.39-1.1,1.08-1.88,2.05-2.21l-1.01-0.36L235.84,176.95z
				 M238.74,180.52c-1.16-0.41-2.25,0.18-2.67,1.39c-0.43,1.2,0.04,2.36,1.2,2.77c1.16,0.41,2.25-0.2,2.68-1.4
				C240.38,182.07,239.91,180.93,238.74,180.52z"/>
			<path class="st2" d="M238.38,166.86l7.74,5.79c1.77,1.27,2.09,2.53,1.73,4c-0.2,0.83-0.7,1.67-1.3,2.09l-1.47-1.27
				c0.41-0.28,0.73-0.74,0.84-1.21c0.16-0.65-0.04-1.08-0.69-1.58l-0.07-0.05l-9.07,1.52l0.6-2.44l6.08-0.93l-4.96-3.65
				L238.38,166.86z"/>
		</g>
	</g>
</g>
</svg>
