<?xml version="1.0" encoding="utf-8"?>
<!-- Generator: Adobe Illustrator 25.0.0, SVG Export Plug-In . SVG Version: 6.00 Build 0)  -->
<svg version="1.1" id="Layer_1" xmlns="http://www.w3.org/2000/svg" xmlns:xlink="http://www.w3.org/1999/xlink" x="0px" y="0px"
	 viewBox="0 0 283.46 283.46" style="enable-background:new 0 0 283.46 283.46;" xml:space="preserve">
<style type="text/css">
	.st0{fill:#0879BF;}
	.st1{fill:#83C22E;}
</style>
<g>
	<g>
		<path class="st0" d="M49.52,235.79c-1.22,0.81-1.99,2-2.31,3.58c-0.05,0.24-0.07,0.53-0.07,0.87c0,1.18,0.41,2.19,1.24,3.04
			c0.81,0.83,1.82,1.32,3.04,1.46h1.76l1.75-1.75v-7.87c-0.72-0.21-1.39-0.32-2-0.32C51.66,234.8,50.52,235.13,49.52,235.79z
			 M52.56,242.46c-0.04,0.01-0.13,0.01-0.29,0.01c-0.78,0-1.42-0.21-1.9-0.62c-0.53-0.44-0.79-1.04-0.79-1.8
			c0-0.86,0.29-1.56,0.88-2.11c0.54-0.5,1.24-0.79,2.1-0.87V242.46z"/>
		<path class="st0" d="M49.65,233.29c0.4,0,0.75-0.14,1.03-0.43c0.27-0.28,0.4-0.61,0.4-1c0-0.4-0.13-0.73-0.4-1.01
			c-0.28-0.28-0.62-0.42-1.03-0.42c-0.4,0-0.73,0.14-1.01,0.42c-0.28,0.28-0.41,0.62-0.41,1.01c0,0.39,0.14,0.72,0.41,1
			C48.91,233.14,49.25,233.29,49.65,233.29z"/>
		<path class="st0" d="M52.97,233.33c0.4,0,0.73-0.14,1.01-0.43c0.28-0.28,0.41-0.61,0.41-1s-0.14-0.73-0.41-1.01
			c-0.28-0.28-0.61-0.42-1.01-0.42c-0.4,0-0.74,0.14-1.02,0.42c-0.28,0.28-0.41,0.62-0.41,1.01s0.14,0.72,0.41,1
			C52.24,233.18,52.58,233.33,52.97,233.33z"/>
		<path class="st0" d="M60.97,233.06c0.4,0,0.75-0.14,1.03-0.42c0.28-0.28,0.41-0.61,0.41-1c0-0.4-0.14-0.74-0.41-1.02
			s-0.62-0.41-1.03-0.41c-0.4,0-0.73,0.14-1,0.41c-0.28,0.28-0.41,0.62-0.41,1.02c0,0.38,0.14,0.72,0.41,1
			C60.25,232.92,60.58,233.06,60.97,233.06z"/>
		<path class="st0" d="M68.23,234.07c0.4,0,0.75-0.14,1.03-0.43c0.28-0.28,0.41-0.61,0.41-1c0-0.39-0.14-0.73-0.41-1.01
			c-0.28-0.28-0.62-0.42-1.03-0.42c-0.39,0-0.72,0.14-1,0.42c-0.27,0.28-0.4,0.62-0.4,1.01c0,0.39,0.13,0.72,0.4,1
			C67.51,233.92,67.84,234.07,68.23,234.07z"/>
		<path class="st0" d="M68.02,241.43c-0.7-0.41-1.06-0.86-1.06-1.35c0-0.63,0.46-1.21,1.38-1.74c0.99-0.56,2.28-0.92,3.86-1.07
			v-2.49c-1.77,0.1-3.49,0.66-5.15,1.68c-1.81,1.1-2.72,2.3-2.72,3.61c0,0.8,0.36,1.56,1.09,2.29h-2.01h-0.38h-0.8v-7.5l-2.38,0.23
			v9.64c0,0.97-0.7,1.64-2.1,2.02c-0.71,0.19-1.49,0.29-2.34,0.29l1.95,2.34c1.9-0.12,3.26-0.73,4.06-1.85
			c0.53-0.74,0.8-1.66,0.8-2.76v-0.05h0.8h0.38h9.86l0.8-2.37h-3C69.79,242.18,68.77,241.87,68.02,241.43z"/>
		<path class="st0" d="M89.91,246.32H83.7c-0.26-0.01-0.49-0.07-0.69-0.19c-0.46-0.25-0.68-0.71-0.68-1.37v-4.34l-2.38,0.25v4.07
			c-0.01,0.74,0.11,1.4,0.36,1.98c0.54,1.32,1.65,1.98,3.31,1.98h6.93l1.8-1.75v-16.22l-2.42,0.21V246.32z"/>
		<path class="st0" d="M104.4,233.55c0.41,0,0.76-0.14,1.04-0.43c0.28-0.28,0.41-0.61,0.41-1c0-0.4-0.14-0.73-0.41-1.01
			c-0.28-0.29-0.63-0.43-1.04-0.43c-0.39,0-0.72,0.14-1,0.43c-0.27,0.28-0.4,0.62-0.4,1.01c0,0.39,0.13,0.72,0.4,1
			C103.67,233.4,104,233.55,104.4,233.55z"/>
		<path class="st0" d="M117.5,234.89c-1.95,0-3.67,0.85-5.15,2.54v-6.7l-2.43,0.2v11.43h-0.82h-0.38h-0.84v-7.25
			c-0.72-0.21-1.39-0.32-2-0.32c-1.4,0-2.65,0.4-3.74,1.21c-1.33,0.99-2,2.38-2,4.16c0,0.75,0.18,1.48,0.55,2.19h-1.41h-0.38h-2.27
			v-11.43l-2.42-0.2v12.25l1.81,1.75h2.88h0.38h9.44h0.38h13.01l1.81-1.74c0.01-0.1,0.01-0.27,0.01-0.52c0-2.04-0.54-3.78-1.63-5.21
			C121.09,235.68,119.49,234.89,117.5,234.89z M105.51,242.46c-0.05,0.01-0.15,0.01-0.3,0.01c-0.85,0-1.5-0.25-1.97-0.76
			c-0.42-0.45-0.62-1.02-0.62-1.71c0-0.77,0.24-1.44,0.73-2.02c0.53-0.63,1.22-0.94,2.06-0.94h0.11V242.46z M112.35,242.37
			c0.1-1.47,0.67-2.68,1.71-3.62c0.97-0.88,2.08-1.32,3.32-1.32c1.11,0,2.03,0.39,2.76,1.16c0.82,0.88,1.27,2.14,1.34,3.78H112.35z"
			/>
		<polygon class="st0" points="125.56,244.73 128,244.73 128,230.73 125.56,230.93 		"/>
		<path class="st0" d="M126.78,226c0.24-0.32,0.7-0.6,1.37-0.85c0.25-0.09,0.56-0.17,0.94-0.25c-0.05-0.52-0.08-0.96-0.08-1.33
			c0-0.17,0-0.27,0.01-0.32c-0.56,0.06-1.17,0.24-1.82,0.54c-0.27,0.13-0.54,0.29-0.8,0.45c-0.63,0.53-0.94,1.11-0.94,1.72
			c0,0.26,0.06,0.51,0.17,0.75c-0.39,0-0.65,0.01-0.79,0.03c-0.03,0.01-0.03,0.01-0.01,0.02l-0.28,1.59h4.83v-1.63h-1.2
			C127.49,226.61,127.02,226.37,126.78,226z"/>
		<path class="st0" d="M140.43,233.33c0.4,0,0.73-0.14,1.01-0.43c0.28-0.28,0.41-0.61,0.41-1s-0.14-0.73-0.41-1.01
			c-0.28-0.28-0.61-0.42-1.01-0.42c-0.4,0-0.74,0.14-1.02,0.42c-0.28,0.28-0.41,0.62-0.41,1.01s0.14,0.72,0.41,1
			C139.7,233.18,140.04,233.33,140.43,233.33z"/>
		<path class="st0" d="M137.11,233.29c0.4,0,0.75-0.14,1.03-0.43c0.27-0.28,0.4-0.61,0.4-1c0-0.4-0.13-0.73-0.4-1.01
			c-0.28-0.28-0.62-0.42-1.03-0.42c-0.4,0-0.73,0.14-1.01,0.42c-0.28,0.28-0.41,0.62-0.41,1.01c0,0.39,0.14,0.72,0.41,1
			C136.37,233.14,136.71,233.29,137.11,233.29z"/>
		<path class="st0" d="M148.59,230.49c-0.4,0-0.73,0.14-1.01,0.43c-0.28,0.28-0.41,0.62-0.41,1.01c0,0.39,0.14,0.72,0.41,1
			c0.28,0.29,0.61,0.43,1.01,0.43c0.4,0,0.73-0.14,1.01-0.43c0.28-0.28,0.41-0.61,0.41-1c0-0.39-0.14-0.73-0.41-1.01
			C149.32,230.64,148.98,230.49,148.59,230.49z"/>
		<path class="st0" d="M146.93,230.32c0.41,0,0.76-0.14,1.04-0.42c0.28-0.28,0.41-0.61,0.41-1c0-0.4-0.14-0.75-0.41-1.03
			c-0.28-0.28-0.62-0.41-1.04-0.41c-0.39,0-0.72,0.14-1,0.41c-0.27,0.28-0.4,0.62-0.4,1.03c0,0.39,0.13,0.72,0.4,1
			C146.21,230.18,146.54,230.32,146.93,230.32z"/>
		<path class="st0" d="M147.2,242.37h-3.68h-0.38h-0.77v-7.25c-0.72-0.21-1.4-0.32-2.03-0.32c-1.56,0-2.91,0.52-4.03,1.55
			c-1.13,1.05-1.7,2.33-1.7,3.83c0,1.15,0.37,2.16,1.11,3.01c0.79,0.91,1.85,1.43,3.15,1.55h4.27h0.38h4.33l1.79-1.75v-8.12
			l-2.43,0.24V242.37z M139.99,242.46c-0.05,0.01-0.14,0.01-0.29,0.01c-0.78,0-1.42-0.21-1.9-0.62c-0.52-0.44-0.78-1.04-0.78-1.8
			c0-0.86,0.29-1.56,0.87-2.1c0.54-0.5,1.24-0.79,2.11-0.88V242.46z"/>
		<path class="st0" d="M145.22,233.33c0.41,0,0.75-0.14,1.03-0.43c0.27-0.28,0.4-0.61,0.4-1c0-0.4-0.13-0.73-0.4-1.01
			c-0.28-0.28-0.62-0.42-1.03-0.42c-0.4,0-0.73,0.14-1.01,0.42c-0.27,0.28-0.4,0.62-0.4,1.01s0.13,0.72,0.4,1
			C144.49,233.18,144.82,233.33,145.22,233.33z"/>
		<path class="st0" d="M161.28,241.43c-0.7-0.41-1.06-0.86-1.06-1.35c0-0.63,0.46-1.21,1.38-1.74c0.99-0.56,2.28-0.92,3.86-1.07
			v-2.49c-1.77,0.1-3.49,0.66-5.15,1.68c-1.81,1.1-2.72,2.3-2.72,3.61c0,0.8,0.36,1.56,1.09,2.29h-2.01h-0.38h-2.27v-11.43
			l-2.42-0.2v12.25l1.81,1.75h2.88h0.38h9.86l0.8-2.37h-3C163.04,242.18,162.03,241.87,161.28,241.43z"/>
		<path class="st0" d="M161.49,234.07c0.4,0,0.75-0.14,1.03-0.43c0.28-0.28,0.41-0.61,0.41-1c0-0.39-0.14-0.73-0.41-1.01
			c-0.28-0.28-0.62-0.42-1.03-0.42c-0.39,0-0.72,0.14-1,0.42c-0.27,0.28-0.4,0.62-0.4,1.01c0,0.39,0.13,0.72,0.4,1
			C160.77,233.92,161.1,234.07,161.49,234.07z"/>
		<path class="st0" d="M169.94,249.88c0.24-0.32,0.7-0.6,1.38-0.85c0.25-0.09,0.56-0.17,0.94-0.25c-0.05-0.52-0.08-0.96-0.08-1.33
			c0-0.17,0-0.27,0.01-0.32c-0.56,0.06-1.17,0.24-1.82,0.54c-0.27,0.13-0.54,0.29-0.8,0.45c-0.63,0.53-0.94,1.11-0.94,1.72
			c0,0.26,0.06,0.51,0.17,0.75c-0.44,0-0.7,0.01-0.79,0.02c-0.03,0.01-0.03,0.01-0.01,0.02l-0.28,1.6h4.83v-1.63h-1.2
			C170.65,250.49,170.18,250.25,169.94,249.88z"/>
		<polygon class="st0" points="171.39,230.73 168.95,230.93 168.95,244.73 171.39,244.73 		"/>
		<path class="st0" d="M183.91,233.33c0.4,0,0.73-0.14,1.01-0.43c0.28-0.28,0.41-0.61,0.41-1s-0.14-0.73-0.41-1.01
			c-0.28-0.28-0.61-0.42-1.01-0.42c-0.4,0-0.74,0.14-1.02,0.42c-0.28,0.28-0.41,0.62-0.41,1.01s0.14,0.72,0.41,1
			C183.18,233.18,183.52,233.33,183.91,233.33z"/>
		<path class="st0" d="M180.59,233.29c0.4,0,0.75-0.14,1.03-0.43c0.27-0.28,0.4-0.61,0.4-1c0-0.4-0.13-0.73-0.4-1.01
			c-0.28-0.28-0.62-0.42-1.03-0.42c-0.4,0-0.73,0.14-1.01,0.42c-0.28,0.28-0.41,0.62-0.41,1.01c0,0.39,0.14,0.72,0.41,1
			C179.85,233.14,180.19,233.29,180.59,233.29z"/>
		<path class="st0" d="M192.85,246.55c-0.38,0-0.72,0.15-1.02,0.45c-0.28,0.28-0.41,0.61-0.41,0.99s0.13,0.72,0.4,1
			c0.3,0.29,0.64,0.43,1.02,0.43c0.37,0,0.7-0.14,1-0.42c0.29-0.31,0.43-0.65,0.43-1.02c0-0.38-0.14-0.71-0.43-1.01
			C193.56,246.69,193.23,246.55,192.85,246.55z"/>
		<path class="st0" d="M189.6,246.55c-0.41,0-0.75,0.14-1.02,0.43c-0.29,0.27-0.43,0.61-0.43,1.01c0,0.38,0.14,0.72,0.42,1
			c0.28,0.28,0.62,0.42,1.01,0.42c0.4,0,0.74-0.14,1.01-0.42c0.28-0.29,0.41-0.63,0.41-1.02c0-0.39-0.14-0.72-0.41-1
			C190.33,246.69,190,246.55,189.6,246.55z"/>
		<path class="st0" d="M234.34,242.37c-3.38-1.74-6.21-4.37-8.47-7.9l-1.91,1.69c1.66,2.49,3.55,4.56,5.66,6.21h-6.35h-0.38h-2.14
			c0.11-0.6,0.16-1.15,0.16-1.65c0-1.7-0.41-3.14-1.23-4.33c-0.86-1.24-1.95-1.86-3.28-1.87c-1.2-0.01-2.2,0.47-3,1.46
			c-0.54,0.67-1.04,1.67-1.51,3c-0.08,0.24-0.21,0.65-0.38,1.25c-0.14,0.49-0.26,0.86-0.36,1.09c-0.29,0.71-0.69,1.06-1.19,1.06
			h-0.82h-0.38h-3.33c-0.85,0-1.48,0.03-1.88,0.09c-0.23-0.74,0.17-1.55,1.2-2.4c0.97-0.81,1.8-1.17,2.48-1.08l0.65-1.97
			c-2.06-1.37-4.1-2.05-6.1-2.05c-1.47,0-2.96,0.35-4.45,1.05c-0.95,0.44-1.56,0.8-1.83,1.07l0.47,1.94c0.56,0,1.36,0.25,2.39,0.74
			h-0.01c1.31,0.7,1.86,1.62,1.64,2.74c-0.6-0.08-1.22-0.13-1.87-0.13h-3.54h-0.38h-1.24v-7.51l-2.42,0.24v7.27H187h-0.38h-0.77
			v-7.25c-0.72-0.21-1.4-0.32-2.03-0.32c-1.56,0-2.91,0.52-4.03,1.55c-1.13,1.05-1.7,2.33-1.7,3.83c0,1.15,0.37,2.16,1.11,3.01
			c0.79,0.91,1.85,1.43,3.15,1.55h4.27H187h7.21h0.38h1.29c1.67,0,3.12,0.15,4.36,0.44l1.25-0.52c0.19-0.4,0.3-0.64,0.34-0.72
			c0.1,0.22,0.25,0.49,0.45,0.83l1.26,0.41c0.04-0.05,0.24-0.12,0.59-0.24c0.46-0.15,0.87-0.21,1.24-0.2h3.38h0.38h0.94
			c0.8,0,1.41-0.37,1.84-1.13l5.69,1.13h5.28h0.38h12.41l0.77-2.37H234.34z M183.47,242.46c-0.05,0.01-0.14,0.01-0.29,0.01
			c-0.78,0-1.42-0.21-1.9-0.62c-0.52-0.44-0.78-1.04-0.78-1.8c0-0.86,0.29-1.56,0.87-2.1c0.54-0.5,1.24-0.79,2.11-0.88V242.46z
			 M201.86,240.22c-0.43-1.04-1.27-1.9-2.51-2.58c0.78-0.24,1.57-0.36,2.37-0.36c0.74,0,1.48,0.1,2.23,0.31
			C203.04,238.27,202.34,239.14,201.86,240.22z M218.47,242.08l-5.19-0.93c0.39-1.44,0.86-2.55,1.41-3.34c0.5-0.7,1-1.06,1.51-1.06
			c0.65,0,1.21,0.4,1.7,1.21c0.48,0.81,0.72,1.76,0.72,2.86C218.62,241.2,218.57,241.62,218.47,242.08z"/>
		<path class="st0" d="M228.75,246.91c-0.4,0-0.74,0.14-1.02,0.43c-0.28,0.28-0.41,0.62-0.41,1.01c0,0.39,0.14,0.72,0.41,1
			c0.28,0.29,0.62,0.43,1.02,0.43c0.4,0,0.73-0.14,1.01-0.43c0.28-0.28,0.41-0.61,0.41-1c0-0.39-0.14-0.73-0.41-1.01
			C229.48,247.06,229.15,246.91,228.75,246.91z"/>
	</g>
	<g>
		<path class="st1" d="M66,219.82c0-0.29,0.09-0.53,0.27-0.71c0.18-0.18,0.4-0.28,0.65-0.28c0.31,0,0.53,0.16,0.64,0.49
			c0.13,0.44,0.55,0.66,1.27,0.66c0.58,0,1.22-0.14,1.9-0.41c0.68-0.27,1.02-0.64,1.02-1.11c0-0.32-0.13-0.54-0.38-0.66
			c-0.25-0.12-0.8-0.19-1.63-0.2c-0.65-0.01-1.21-0.15-1.69-0.39s-0.71-0.58-0.71-1c0-0.7,0.43-1.38,1.28-2.04
			c0.85-0.66,1.76-0.99,2.73-0.99c0.37,0,0.82,0.09,1.34,0.27c0.52,0.18,0.79,0.38,0.79,0.62c0,0.16-0.08,0.34-0.25,0.52
			c-0.17,0.18-0.37,0.27-0.61,0.27c-0.18,0-0.43-0.04-0.75-0.11c-0.29-0.07-0.54-0.11-0.74-0.11c-0.47,0-0.94,0.12-1.42,0.35
			c-0.48,0.23-0.71,0.49-0.71,0.77c0,0.24,0.23,0.39,0.7,0.46l1.25,0.06c0.49,0.02,0.92,0.12,1.3,0.28
			c0.37,0.16,0.65,0.39,0.84,0.69c0.19,0.29,0.28,0.64,0.28,1.04c0,1-0.48,1.77-1.44,2.31s-2.08,0.8-3.35,0.8
			c-0.82,0-1.45-0.16-1.89-0.47C66.22,220.62,66,220.25,66,219.82z"/>
		<path class="st1" d="M75.11,219.45c0.31,0.37,0.77,0.56,1.38,0.56c0.47,0,0.9-0.1,1.26-0.3c0.33-0.18,0.58-0.26,0.76-0.26
			c0.32,0,0.47,0.14,0.47,0.41c0,0.42-0.28,0.77-0.85,1.04c-0.57,0.27-1.19,0.41-1.86,0.41c-0.83,0-1.48-0.19-1.95-0.56
			c-0.47-0.37-0.7-0.87-0.7-1.5c0-0.88,0.31-1.73,0.94-2.56c0.63-0.83,1.45-1.24,2.49-1.24c0.68,0,1.21,0.11,1.58,0.34
			c0.38,0.22,0.57,0.54,0.57,0.95c0,0.39-0.15,0.72-0.45,0.99c-0.3,0.27-0.87,0.57-1.71,0.91L75.11,219.45z M75.2,218.08l1.3-0.52
			c0.47-0.2,0.89-0.41,1.25-0.62c-0.21-0.13-0.51-0.2-0.9-0.2C76.2,216.75,75.64,217.19,75.2,218.08z"/>
		<path class="st1" d="M82.14,216.1c0.61-0.53,1.2-0.79,1.78-0.79c0.9,0,1.36,0.52,1.36,1.56c0,0.28-0.03,0.62-0.09,1l-0.07,0.39
			c-0.09,0.54-0.13,1.02-0.13,1.43c0,0.49-0.01,0.83-0.04,1.03c-0.02,0.2-0.12,0.37-0.28,0.52c-0.16,0.15-0.35,0.22-0.57,0.22
			c-0.43,0-0.64-0.21-0.64-0.62c0-0.91,0.03-1.57,0.08-2c0.05-0.42,0.14-0.9,0.27-1.42c0.05-0.2,0.08-0.34,0.08-0.42
			c0-0.18-0.06-0.27-0.18-0.27c-0.34,0-0.7,0.2-1.09,0.61c-0.38,0.4-0.67,0.82-0.87,1.24c-0.2,0.42-0.32,0.96-0.36,1.61
			c-0.01,0.31-0.04,0.53-0.09,0.65c-0.04,0.12-0.14,0.23-0.28,0.34c-0.14,0.11-0.32,0.16-0.52,0.16c-0.19,0-0.34-0.05-0.46-0.16
			c-0.12-0.11-0.18-0.25-0.18-0.41l0.04-0.58c0.03-0.39,0.14-1.02,0.34-1.88c0.19-0.8,0.3-1.35,0.33-1.65
			c0.03-0.34,0.06-0.6,0.09-0.77s0.13-0.34,0.29-0.47c0.16-0.13,0.35-0.2,0.57-0.2c0.47,0,0.67,0.28,0.62,0.84V216.1z"/>
		<path class="st1" d="M90.42,215.66c0.27-1.32,0.47-2.18,0.58-2.57s0.38-0.59,0.79-0.59c0.41,0,0.61,0.19,0.61,0.58
			c0,0.19-0.17,1.01-0.51,2.45c-0.28,1.19-0.48,2.21-0.6,3.07c-0.12,0.86-0.17,1.43-0.17,1.71c0,0.17-0.01,0.31-0.04,0.41
			c-0.03,0.1-0.12,0.21-0.27,0.33c-0.15,0.12-0.32,0.18-0.51,0.18c-0.27,0-0.45-0.12-0.54-0.37c-0.52,0.29-1.07,0.44-1.64,0.44
			c-0.75,0-1.34-0.22-1.77-0.66c-0.43-0.44-0.64-0.97-0.64-1.59c0-0.94,0.32-1.79,0.97-2.57c0.64-0.78,1.49-1.17,2.54-1.17
			C89.74,215.32,90.14,215.43,90.42,215.66z M90.05,217.36c-0.17-0.45-0.51-0.67-1.03-0.67c-0.67,0-1.15,0.23-1.46,0.68
			c-0.3,0.46-0.45,0.92-0.45,1.38c0,0.34,0.12,0.62,0.36,0.85c0.24,0.23,0.53,0.34,0.87,0.34c0.47,0,0.94-0.2,1.4-0.61
			C89.74,219.2,89.84,218.55,90.05,217.36z"/>
		<path class="st1" d="M93.11,221.24c-0.2,0-0.35-0.06-0.47-0.17c-0.12-0.11-0.18-0.26-0.18-0.43l0.15-1.1
			c0.1-0.74,0.23-1.46,0.39-2.18c0.13-0.53,0.21-0.93,0.24-1.21c0.03-0.2,0.13-0.37,0.29-0.51c0.17-0.14,0.36-0.21,0.57-0.21
			c0.19,0,0.34,0.06,0.45,0.17c0.12,0.11,0.18,0.26,0.18,0.44c0,0.14-0.08,0.56-0.24,1.24c-0.16,0.69-0.28,1.35-0.36,1.98
			c-0.08,0.64-0.14,1.07-0.18,1.28c-0.04,0.21-0.14,0.39-0.3,0.51C93.49,221.17,93.31,221.24,93.11,221.24z M93.67,213.93
			c0-0.25,0.1-0.46,0.31-0.64c0.2-0.18,0.43-0.27,0.67-0.27c0.21,0,0.38,0.07,0.52,0.2c0.14,0.13,0.22,0.29,0.22,0.48
			c0,0.24-0.1,0.45-0.3,0.64c-0.2,0.18-0.43,0.28-0.69,0.28c-0.21,0-0.38-0.07-0.52-0.2C93.74,214.27,93.67,214.11,93.67,213.93z"/>
		<path class="st1" d="M97.47,216.1c0.61-0.53,1.2-0.79,1.78-0.79c0.9,0,1.36,0.52,1.36,1.56c0,0.28-0.03,0.62-0.09,1l-0.07,0.39
			c-0.09,0.54-0.13,1.02-0.13,1.43c0,0.49-0.01,0.83-0.04,1.03c-0.02,0.2-0.12,0.37-0.28,0.52c-0.16,0.15-0.35,0.22-0.57,0.22
			c-0.43,0-0.64-0.21-0.64-0.62c0-0.91,0.03-1.57,0.08-2c0.05-0.42,0.14-0.9,0.27-1.42c0.05-0.2,0.08-0.34,0.08-0.42
			c0-0.18-0.06-0.27-0.18-0.27c-0.34,0-0.7,0.2-1.09,0.61c-0.38,0.4-0.67,0.82-0.87,1.24c-0.2,0.42-0.32,0.96-0.36,1.61
			c-0.01,0.31-0.04,0.53-0.09,0.65c-0.04,0.12-0.14,0.23-0.28,0.34c-0.14,0.11-0.32,0.16-0.52,0.16c-0.19,0-0.34-0.05-0.46-0.16
			c-0.12-0.11-0.18-0.25-0.18-0.41l0.04-0.58c0.03-0.39,0.14-1.02,0.34-1.88c0.19-0.8,0.3-1.35,0.33-1.65
			c0.03-0.34,0.06-0.6,0.09-0.77c0.03-0.18,0.13-0.34,0.29-0.47c0.16-0.13,0.35-0.2,0.57-0.2c0.47,0,0.67,0.28,0.62,0.84V216.1z"/>
		<path class="st1" d="M104.35,220.79c-0.41,0.37-0.9,0.56-1.45,0.56c-0.65,0-1.16-0.19-1.52-0.56c-0.36-0.37-0.55-0.84-0.55-1.41
			c0-0.97,0.35-1.84,1.06-2.63c0.71-0.79,1.68-1.18,2.91-1.18c0.68,0,1.14,0.16,1.39,0.49c0.38,0.05,0.57,0.25,0.57,0.62
			c0,0.21-0.1,0.6-0.3,1.19c-0.27,0.8-0.5,1.69-0.69,2.67c-0.24,1.32-0.64,2.24-1.22,2.77c-0.57,0.53-1.38,0.79-2.42,0.79
			c-1.3,0-1.95-0.24-1.95-0.73c0-0.19,0.07-0.37,0.21-0.52c0.14-0.16,0.33-0.23,0.57-0.23c0.17,0,0.4,0.03,0.68,0.09
			c0.31,0.07,0.58,0.1,0.8,0.1c0.52,0,0.93-0.16,1.23-0.48C103.96,222.01,104.19,221.49,104.35,220.79z M105.21,217
			c-0.24-0.15-0.46-0.22-0.67-0.22c-0.7,0-1.24,0.25-1.63,0.75c-0.39,0.5-0.59,1.05-0.59,1.67c0,0.59,0.27,0.88,0.8,0.88
			c0.27,0,0.56-0.14,0.87-0.42c0.31-0.28,0.53-0.56,0.65-0.84C104.75,218.54,104.94,217.94,105.21,217z"/>
		<path class="st1" d="M114.01,216.15c0.6-0.52,1.23-0.78,1.91-0.78c0.48,0,0.85,0.11,1.09,0.32c0.24,0.21,0.36,0.56,0.36,1.06
			c0,0.1-0.01,0.22-0.02,0.33c-0.15,1-0.22,1.95-0.22,2.84c0,0.32,0.01,0.55,0.03,0.69c0.02,0.16-0.06,0.33-0.23,0.51
			c-0.17,0.18-0.39,0.27-0.64,0.27c-0.26,0-0.44-0.09-0.54-0.26c-0.09-0.17-0.14-0.57-0.14-1.2c0-0.73,0.08-1.46,0.24-2.18
			c0.06-0.28,0.09-0.49,0.09-0.62c0-0.22-0.08-0.32-0.23-0.32c-0.62,0-1.29,0.53-2.01,1.6c-0.21,1.36-0.41,2.16-0.6,2.41
			c-0.19,0.25-0.42,0.38-0.7,0.38c-0.2,0-0.36-0.06-0.48-0.18c-0.13-0.12-0.19-0.26-0.19-0.41c0-0.12,0.04-0.25,0.12-0.4
			c0.05-0.12,0.18-0.85,0.4-2.22l0.46-2.83l0.04-0.17c0.13-0.5,0.19-0.95,0.19-1.34c0-0.33,0.03-0.56,0.09-0.7
			c0.06-0.14,0.17-0.25,0.31-0.35c0.15-0.09,0.31-0.14,0.49-0.14c0.43,0,0.65,0.28,0.65,0.84c0,0.42-0.09,1.03-0.27,1.81
			C114.14,215.4,114.07,215.75,114.01,216.15z"/>
		<path class="st1" d="M117.98,219.18c0-0.9,0.32-1.73,0.98-2.51c0.65-0.78,1.49-1.17,2.51-1.17c0.59,0,1.05,0.2,1.38,0.6
			c0.34,0.4,0.5,0.93,0.5,1.58c0,0.94-0.31,1.8-0.92,2.56c-0.61,0.76-1.38,1.15-2.3,1.15c-0.64,0-1.16-0.21-1.56-0.63
			C118.18,220.34,117.98,219.82,117.98,219.18z M119.48,218.96c0,0.3,0.07,0.55,0.22,0.73c0.15,0.18,0.36,0.28,0.64,0.28
			c0.47,0,0.84-0.2,1.11-0.59c0.28-0.39,0.41-0.9,0.41-1.51c0-0.63-0.24-0.95-0.73-0.95c-0.47,0-0.87,0.23-1.19,0.69
			C119.64,218.06,119.48,218.51,119.48,218.96z"/>
		<path class="st1" d="M125.24,221.28l-0.34,2.19c-0.03,0.21-0.13,0.39-0.29,0.52c-0.16,0.14-0.35,0.21-0.56,0.21
			c-0.2,0-0.35-0.06-0.47-0.17c-0.12-0.11-0.17-0.26-0.17-0.43c0-0.1,0.11-0.81,0.34-2.14c0.34-2.06,0.55-3.69,0.64-4.9
			c0.03-0.45,0.14-0.8,0.35-1.05c0.2-0.25,0.43-0.37,0.69-0.37c0.2,0,0.36,0.07,0.47,0.2c0.12,0.13,0.16,0.3,0.13,0.49l-0.02,0.05
			c0.52-0.26,1.03-0.39,1.51-0.39c1.22,0,1.83,0.7,1.83,2.09c0,1.23-0.32,2.17-0.95,2.82c-0.63,0.65-1.36,0.97-2.19,0.97
			C125.85,221.39,125.54,221.35,125.24,221.28z M125.79,217.58c-0.06,0.57-0.16,1.3-0.3,2.21c0.3,0.1,0.61,0.16,0.94,0.16
			c0.5,0,0.86-0.22,1.08-0.66c0.22-0.44,0.34-0.94,0.34-1.5c0-0.57-0.19-0.86-0.57-0.86C126.82,216.94,126.33,217.15,125.79,217.58z
			"/>
		<path class="st1" d="M131.04,219.45c0.31,0.37,0.77,0.56,1.38,0.56c0.47,0,0.9-0.1,1.26-0.3c0.33-0.18,0.58-0.26,0.76-0.26
			c0.32,0,0.47,0.14,0.47,0.41c0,0.42-0.28,0.77-0.85,1.04c-0.57,0.27-1.19,0.41-1.86,0.41c-0.83,0-1.48-0.19-1.95-0.56
			c-0.47-0.37-0.7-0.87-0.7-1.5c0-0.88,0.31-1.73,0.94-2.56c0.63-0.83,1.45-1.24,2.49-1.24c0.68,0,1.21,0.11,1.58,0.34
			c0.38,0.22,0.57,0.54,0.57,0.95c0,0.39-0.15,0.72-0.45,0.99c-0.3,0.27-0.87,0.57-1.71,0.91L131.04,219.45z M131.14,218.08
			l1.3-0.52c0.47-0.2,0.89-0.41,1.25-0.62c-0.21-0.13-0.51-0.2-0.9-0.2C132.13,216.75,131.58,217.19,131.14,218.08z"/>
		<path class="st1" d="M144.07,215.54c0.49-0.04,0.84-0.06,1.04-0.06c0.67,0,0.97,0.23,0.9,0.69c-0.08,0.47-0.47,0.7-1.18,0.68
			c-0.23-0.01-0.57,0.01-1.04,0.05c-0.07,0.38-0.15,0.86-0.24,1.45c-0.12,0.85-0.19,1.33-0.21,1.45c-0.1,0.66-0.23,1.18-0.37,1.56
			c-0.14,0.38-0.41,0.58-0.8,0.58c-0.2,0-0.37-0.06-0.49-0.19c-0.13-0.13-0.18-0.29-0.15-0.49c0.01-0.05,0.02-0.09,0.03-0.13
			c0.17-0.51,0.29-1,0.36-1.45l0.43-2.69c-0.07,0-0.18,0.02-0.36,0.04c-0.14,0.02-0.25,0.03-0.32,0.03c-0.22,0-0.39-0.06-0.51-0.19
			c-0.12-0.13-0.17-0.3-0.13-0.51c0.05-0.33,0.26-0.55,0.63-0.66c0.16-0.05,0.48-0.08,0.96-0.09c0.01-0.07,0.07-0.27,0.17-0.61
			c0.23-0.8,0.54-1.4,0.93-1.79c0.5-0.49,1.17-0.73,2.03-0.73c0.66,0,0.95,0.23,0.87,0.7c-0.08,0.47-0.42,0.7-1.03,0.7
			c-0.43,0-0.77,0.15-1.02,0.46c-0.18,0.23-0.34,0.58-0.46,1.06L144.07,215.54z"/>
		<path class="st1" d="M146.2,219.18c0-0.9,0.32-1.73,0.98-2.51c0.65-0.78,1.49-1.17,2.51-1.17c0.59,0,1.05,0.2,1.38,0.6
			c0.34,0.4,0.5,0.93,0.5,1.58c0,0.94-0.31,1.8-0.92,2.56c-0.61,0.76-1.38,1.15-2.3,1.15c-0.64,0-1.16-0.21-1.56-0.63
			C146.4,220.34,146.2,219.82,146.2,219.18z M147.71,218.96c0,0.3,0.07,0.55,0.22,0.73c0.15,0.18,0.36,0.28,0.64,0.28
			c0.47,0,0.84-0.2,1.11-0.59c0.28-0.39,0.41-0.9,0.41-1.51c0-0.63-0.24-0.95-0.73-0.95c-0.47,0-0.87,0.23-1.19,0.69
			C147.87,218.06,147.71,218.51,147.71,218.96z"/>
		<path class="st1" d="M157.15,217.19c-0.03,0.2-0.12,0.39-0.26,0.57c-0.15,0.17-0.35,0.26-0.62,0.26c-0.38,0-0.57-0.17-0.57-0.52
			c0-0.06,0.01-0.12,0.02-0.19l0.05-0.54c-0.82,0.13-1.46,0.54-1.93,1.25l-0.42,2.7c-0.03,0.2-0.13,0.37-0.29,0.51
			c-0.16,0.14-0.35,0.21-0.57,0.21c-0.2,0-0.35-0.07-0.46-0.2c-0.1-0.13-0.14-0.31-0.11-0.52l0.55-3.52l0.13-0.77
			c0.04-0.25,0.09-0.43,0.14-0.54c0.06-0.11,0.15-0.2,0.27-0.27c0.12-0.08,0.27-0.11,0.43-0.11c0.4,0,0.61,0.2,0.62,0.61
			c0.71-0.48,1.45-0.72,2.22-0.72c0.59,0,0.88,0.32,0.88,0.97c0,0.14-0.01,0.29-0.04,0.46L157.15,217.19z"/>
		<path class="st1" d="M166.28,216.83h-0.44c-0.25,0-0.47,0-0.63,0.01c-0.02,0.06-0.04,0.12-0.05,0.17
			c-0.01,0.06-0.03,0.12-0.05,0.18c-0.28,0.94-0.41,1.64-0.41,2.1c0,0.42,0.08,0.63,0.25,0.63s0.35-0.09,0.53-0.29
			c0.18-0.19,0.35-0.28,0.51-0.28c0.15,0,0.29,0.06,0.42,0.18c0.14,0.12,0.21,0.28,0.21,0.48c0,0.35-0.21,0.65-0.62,0.9
			c-0.42,0.25-0.83,0.38-1.25,0.38c-1,0-1.5-0.61-1.5-1.82c0-0.66,0.18-1.53,0.53-2.6c-0.61-0.03-0.98-0.1-1.12-0.22
			c-0.14-0.11-0.21-0.3-0.21-0.57c0-0.22,0.07-0.4,0.22-0.53c0.15-0.14,0.33-0.2,0.56-0.2l0.84,0.08l0.13-1.08
			c0.02-0.19,0.11-0.35,0.26-0.48c0.15-0.13,0.33-0.2,0.53-0.2c0.43,0,0.64,0.3,0.64,0.89c0,0.1-0.04,0.38-0.11,0.83
			c0.1-0.01,0.19-0.02,0.25-0.03c0.2-0.02,0.47-0.01,0.81,0.04c0.34,0.05,0.51,0.27,0.51,0.65c0,0.23-0.08,0.42-0.23,0.56
			S166.49,216.83,166.28,216.83z"/>
		<path class="st1" d="M169.66,216.15c0.6-0.52,1.23-0.78,1.91-0.78c0.48,0,0.85,0.11,1.09,0.32c0.24,0.21,0.36,0.56,0.36,1.06
			c0,0.1-0.01,0.22-0.02,0.33c-0.15,1-0.22,1.95-0.22,2.84c0,0.32,0.01,0.55,0.03,0.69c0.02,0.16-0.06,0.33-0.23,0.51
			c-0.17,0.18-0.39,0.27-0.64,0.27c-0.26,0-0.44-0.09-0.54-0.26c-0.09-0.17-0.14-0.57-0.14-1.2c0-0.73,0.08-1.46,0.24-2.18
			c0.06-0.28,0.09-0.49,0.09-0.62c0-0.22-0.08-0.32-0.23-0.32c-0.62,0-1.29,0.53-2.01,1.6c-0.21,1.36-0.41,2.16-0.6,2.41
			c-0.19,0.25-0.42,0.38-0.7,0.38c-0.2,0-0.36-0.06-0.48-0.18c-0.13-0.12-0.19-0.26-0.19-0.41c0-0.12,0.04-0.25,0.12-0.4
			c0.05-0.12,0.18-0.85,0.4-2.22l0.46-2.83l0.04-0.17c0.13-0.5,0.19-0.95,0.19-1.34c0-0.33,0.03-0.56,0.09-0.7
			c0.06-0.14,0.17-0.25,0.31-0.35c0.15-0.09,0.31-0.14,0.49-0.14c0.43,0,0.65,0.28,0.65,0.84c0,0.42-0.09,1.03-0.27,1.81
			C169.79,215.4,169.72,215.75,169.66,216.15z"/>
		<path class="st1" d="M175.01,219.45c0.31,0.37,0.77,0.56,1.38,0.56c0.47,0,0.9-0.1,1.26-0.3c0.33-0.18,0.58-0.26,0.76-0.26
			c0.32,0,0.47,0.14,0.47,0.41c0,0.42-0.28,0.77-0.85,1.04c-0.57,0.27-1.19,0.41-1.86,0.41c-0.83,0-1.48-0.19-1.95-0.56
			c-0.47-0.37-0.7-0.87-0.7-1.5c0-0.88,0.31-1.73,0.94-2.56c0.63-0.83,1.45-1.24,2.49-1.24c0.68,0,1.21,0.11,1.58,0.34
			c0.38,0.22,0.57,0.54,0.57,0.95c0,0.39-0.15,0.72-0.45,0.99c-0.3,0.27-0.87,0.57-1.71,0.91L175.01,219.45z M175.1,218.08l1.3-0.52
			c0.47-0.2,0.89-0.41,1.25-0.62c-0.21-0.13-0.51-0.2-0.9-0.2C176.1,216.75,175.54,217.19,175.1,218.08z"/>
		<path class="st1" d="M188.03,215.54c0.49-0.04,0.84-0.06,1.04-0.06c0.67,0,0.97,0.23,0.9,0.69c-0.08,0.47-0.47,0.7-1.18,0.68
			c-0.23-0.01-0.57,0.01-1.04,0.05c-0.07,0.38-0.15,0.86-0.24,1.45c-0.12,0.85-0.19,1.33-0.21,1.45c-0.1,0.66-0.23,1.18-0.37,1.56
			c-0.14,0.38-0.41,0.58-0.8,0.58c-0.2,0-0.37-0.06-0.49-0.19c-0.13-0.13-0.18-0.29-0.15-0.49c0.01-0.05,0.02-0.09,0.03-0.13
			c0.17-0.51,0.29-1,0.36-1.45l0.43-2.69c-0.07,0-0.18,0.02-0.36,0.04c-0.14,0.02-0.25,0.03-0.32,0.03c-0.22,0-0.39-0.06-0.51-0.19
			c-0.12-0.13-0.17-0.3-0.13-0.51c0.05-0.33,0.26-0.55,0.63-0.66c0.16-0.05,0.48-0.08,0.96-0.09c0.01-0.07,0.07-0.27,0.17-0.61
			c0.23-0.8,0.54-1.4,0.93-1.79c0.5-0.49,1.17-0.73,2.03-0.73c0.66,0,0.95,0.23,0.87,0.7c-0.08,0.47-0.42,0.7-1.03,0.7
			c-0.43,0-0.77,0.15-1.02,0.46c-0.18,0.23-0.34,0.58-0.46,1.06L188.03,215.54z"/>
		<path class="st1" d="M195.4,217.96l-0.37,2.51c-0.02,0.13-0.03,0.24-0.04,0.34c-0.03,0.2-0.13,0.36-0.29,0.5
			c-0.17,0.13-0.35,0.2-0.56,0.2c-0.3,0-0.5-0.14-0.6-0.41c-0.48,0.17-0.96,0.25-1.45,0.25c-0.45,0-0.82-0.08-1.09-0.24
			c-0.28-0.16-0.46-0.34-0.54-0.55c-0.08-0.21-0.13-0.5-0.13-0.87c0-1,0.09-1.89,0.28-2.68c0.18-0.79,0.35-1.26,0.51-1.43
			c0.15-0.17,0.36-0.25,0.62-0.25c0.19,0,0.35,0.05,0.47,0.16c0.12,0.11,0.18,0.25,0.18,0.42c0,0.13-0.07,0.41-0.2,0.86
			c-0.25,0.8-0.38,1.67-0.38,2.6c0,0.16,0.01,0.3,0.02,0.43c0.14,0.08,0.3,0.12,0.49,0.12c0.41,0,0.86-0.06,1.33-0.17l0.4-2.45
			c0.1-0.58,0.18-1,0.27-1.25c0.08-0.25,0.19-0.43,0.33-0.53c0.14-0.1,0.31-0.15,0.52-0.15c0.19,0,0.35,0.05,0.47,0.16
			c0.12,0.11,0.18,0.25,0.18,0.41c0,0.06-0.07,0.42-0.21,1.09l-0.2,0.94V217.96z"/>
		<path class="st1" d="M200.11,216.83h-0.44c-0.25,0-0.47,0-0.63,0.01c-0.02,0.06-0.04,0.12-0.05,0.17
			c-0.01,0.06-0.03,0.12-0.05,0.18c-0.28,0.94-0.41,1.64-0.41,2.1c0,0.42,0.08,0.63,0.25,0.63s0.35-0.09,0.53-0.29
			c0.18-0.19,0.35-0.28,0.51-0.28c0.15,0,0.29,0.06,0.42,0.18c0.14,0.12,0.21,0.28,0.21,0.48c0,0.35-0.21,0.65-0.62,0.9
			c-0.42,0.25-0.83,0.38-1.25,0.38c-1,0-1.5-0.61-1.5-1.82c0-0.66,0.18-1.53,0.53-2.6c-0.61-0.03-0.98-0.1-1.12-0.22
			c-0.14-0.11-0.21-0.3-0.21-0.57c0-0.22,0.07-0.4,0.22-0.53c0.15-0.14,0.33-0.2,0.56-0.2l0.84,0.08l0.13-1.08
			c0.02-0.19,0.11-0.35,0.26-0.48c0.15-0.13,0.33-0.2,0.53-0.2c0.43,0,0.64,0.3,0.64,0.89c0,0.1-0.04,0.38-0.11,0.83
			c0.1-0.01,0.19-0.02,0.25-0.03c0.2-0.02,0.47-0.01,0.81,0.04c0.34,0.05,0.51,0.27,0.51,0.65c0,0.23-0.08,0.42-0.23,0.56
			C200.51,216.76,200.32,216.83,200.11,216.83z"/>
		<path class="st1" d="M206.32,217.96l-0.37,2.51c-0.02,0.13-0.03,0.24-0.04,0.34c-0.03,0.2-0.13,0.36-0.29,0.5
			c-0.17,0.13-0.35,0.2-0.56,0.2c-0.3,0-0.5-0.14-0.6-0.41c-0.48,0.17-0.96,0.25-1.45,0.25c-0.45,0-0.82-0.08-1.09-0.24
			c-0.28-0.16-0.46-0.34-0.54-0.55c-0.08-0.21-0.13-0.5-0.13-0.87c0-1,0.09-1.89,0.28-2.68c0.18-0.79,0.35-1.26,0.51-1.43
			c0.15-0.17,0.36-0.25,0.62-0.25c0.19,0,0.35,0.05,0.47,0.16c0.12,0.11,0.18,0.25,0.18,0.42c0,0.13-0.07,0.41-0.2,0.86
			c-0.25,0.8-0.38,1.67-0.38,2.6c0,0.16,0.01,0.3,0.02,0.43c0.14,0.08,0.3,0.12,0.49,0.12c0.41,0,0.86-0.06,1.33-0.17l0.4-2.45
			c0.1-0.58,0.18-1,0.27-1.25c0.08-0.25,0.19-0.43,0.33-0.53c0.14-0.1,0.31-0.15,0.52-0.15c0.19,0,0.35,0.05,0.47,0.16
			c0.12,0.11,0.18,0.25,0.18,0.41c0,0.06-0.07,0.42-0.21,1.09l-0.2,0.94V217.96z"/>
		<path class="st1" d="M211.98,217.19c-0.03,0.2-0.12,0.39-0.26,0.57c-0.15,0.17-0.35,0.26-0.62,0.26c-0.38,0-0.57-0.17-0.57-0.52
			c0-0.06,0.01-0.12,0.02-0.19l0.05-0.54c-0.82,0.13-1.46,0.54-1.93,1.25l-0.42,2.7c-0.03,0.2-0.13,0.37-0.29,0.51
			c-0.16,0.14-0.35,0.21-0.57,0.21c-0.2,0-0.35-0.07-0.46-0.2c-0.1-0.13-0.14-0.31-0.11-0.52l0.55-3.52l0.13-0.77
			c0.04-0.25,0.09-0.43,0.14-0.54c0.06-0.11,0.15-0.2,0.27-0.27c0.12-0.08,0.27-0.11,0.43-0.11c0.4,0,0.61,0.2,0.62,0.61
			c0.71-0.48,1.45-0.72,2.22-0.72c0.59,0,0.88,0.32,0.88,0.97c0,0.14-0.01,0.29-0.04,0.46L211.98,217.19z"/>
		<path class="st1" d="M213.49,219.45c0.31,0.37,0.77,0.56,1.38,0.56c0.47,0,0.9-0.1,1.26-0.3c0.33-0.18,0.58-0.26,0.76-0.26
			c0.32,0,0.47,0.14,0.47,0.41c0,0.42-0.28,0.77-0.85,1.04c-0.57,0.27-1.19,0.41-1.86,0.41c-0.83,0-1.48-0.19-1.95-0.56
			c-0.47-0.37-0.7-0.87-0.7-1.5c0-0.88,0.31-1.73,0.94-2.56c0.63-0.83,1.45-1.24,2.49-1.24c0.68,0,1.21,0.11,1.58,0.34
			c0.38,0.22,0.57,0.54,0.57,0.95c0,0.39-0.15,0.72-0.45,0.99c-0.3,0.27-0.87,0.57-1.71,0.91L213.49,219.45z M213.59,218.08
			l1.3-0.52c0.47-0.2,0.89-0.41,1.25-0.62c-0.21-0.13-0.51-0.2-0.9-0.2C214.58,216.75,214.03,217.19,213.59,218.08z"/>
	</g>
	<g>
		<path class="st0" d="M81.98,189.88c0,0.11-0.1,0.17-0.31,0.17c-0.77,0-1.93-0.07-3.49-0.2c-1.56-0.13-2.73-0.2-3.5-0.2
			c-0.98,0-1.55,0.04-1.72,0.11c-0.38,0.17-0.57,0.66-0.57,1.47c0,0.97,0.25,1.52,0.74,1.66c0.2,0.05,0.52,0.08,0.94,0.08
			c0.71,0,1.76-0.04,3.17-0.11c1.4-0.08,2.46-0.12,3.17-0.12c0.34,0,0.51,0.9,0.51,2.7c0,1.56-0.06,2.47-0.17,2.73
			c-0.07,0.18-0.21,0.28-0.41,0.28c0.13,0-0.19-0.04-0.97-0.11c-1.09-0.1-2.75-0.15-4.97-0.15c-0.72,0-1.12,0.01-1.21,0.02
			c-0.52,0.08-0.78,0.3-0.78,0.66c0,1.45,0.06,3.12,0.18,5.01c0.1,1.71,0.15,2.47,0.15,2.28c0,0.27-0.32,0.42-0.97,0.46
			c0.17-0.01-0.28-0.02-1.37-0.02c-1.91,0-3.14-0.07-3.7-0.2c-0.3-0.07-0.44-0.23-0.44-0.48c0-1.13,0.04-2.84,0.11-5.11
			s0.11-3.98,0.11-5.11c0-1.35-0.06-3.05-0.18-5.09c-0.18-3.16-0.28-4.85-0.29-5.09L66,185.33c-0.01-0.26,0.14-0.38,0.46-0.38
			c0.76,0,1.9,0.02,3.43,0.05c1.53,0.03,2.68,0.05,3.44,0.05c0.82,0,2.05-0.06,3.69-0.18c1.64-0.12,2.87-0.18,3.69-0.18
			c0.51,0,0.8,0.21,0.86,0.63c0,0.44,0.02,1.1,0.06,1.98c0.02,0.23,0.09,0.66,0.2,1.3C81.93,189.14,81.98,189.57,81.98,189.88z"/>
		<path class="st0" d="M102.09,198.87c0,2.61-0.31,4.39-0.94,5.34c-1.14,1.74-4,2.61-8.57,2.61c-2.06,0-3.65-0.16-4.77-0.48
			c-1.78-0.51-2.93-1.49-3.47-2.93c-0.27-0.71-0.4-1.96-0.4-3.77c0-0.42,0.01-1.04,0.05-1.87c0.03-0.83,0.05-1.45,0.05-1.86
			c0-1.19-0.06-2.96-0.17-5.34c-0.11-2.37-0.17-4.14-0.17-5.32c0-0.25,0.11-0.37,0.32-0.37c0.62,0,1.57,0.03,2.83,0.08
			c1.26,0.05,2.2,0.08,2.83,0.08c0.26,0,0.38,0.11,0.38,0.34c0,1.35-0.04,3.37-0.13,6.06c-0.09,2.69-0.13,4.71-0.13,6.06
			c0,1.6,0.17,2.69,0.51,3.25c0.45,0.77,1.39,1.15,2.82,1.15c2.1,0,3.14-1.02,3.14-3.05c0-1.48-0.04-3.7-0.11-6.67
			c-0.07-2.96-0.11-5.19-0.11-6.67c0-0.32,0.13-0.48,0.38-0.48c0.6,0,1.51-0.03,2.73-0.08c1.22-0.05,2.13-0.08,2.73-0.08
			c0.3,0,0.44,0.12,0.44,0.37c0,1.18-0.05,2.95-0.15,5.32c-0.1,2.37-0.15,4.15-0.15,5.34c0,0.33,0.01,0.82,0.02,1.48
			C102.09,198.05,102.09,198.54,102.09,198.87z"/>
		<path class="st0" d="M125.63,185.36c0,1.17-0.05,2.92-0.15,5.25c-0.1,2.34-0.15,4.09-0.15,5.27v10.1c0,0.28-0.15,0.41-0.44,0.41
			c-0.25,0-0.62,0.01-1.11,0.03c-0.5,0.02-0.87,0.03-1.11,0.03c-0.27,0-0.66-0.02-1.2-0.06c-0.53-0.04-0.93-0.06-1.2-0.06
			c-0.18,0-0.4-0.17-0.66-0.51c-0.74-0.99-2.39-3.19-4.97-6.59c-0.71-0.95-1.78-2.35-3.22-4.2c-0.04-0.06-0.12-0.12-0.23-0.18
			c-0.08,0.07-0.12,0.18-0.12,0.34c0,1.19,0.03,2.96,0.1,5.34c0.07,2.37,0.1,4.15,0.1,5.34c0,0.36-0.14,0.54-0.41,0.54h-5.31
			c-0.3,0-0.44-0.16-0.44-0.48c0-1.1,0.05-2.77,0.16-5c0.11-2.23,0.16-3.9,0.16-5.01c0-1.17-0.05-2.93-0.15-5.27
			c-0.1-2.34-0.15-4.09-0.15-5.26c0-0.22,0.2-0.34,0.6-0.34c0.59,0,1.32-0.04,2.19-0.12c0.2-0.02,0.61-0.09,1.21-0.2
			c0.51-0.09,0.91-0.14,1.21-0.14c0.12,0,0.31,0.17,0.57,0.52l5.72,7.84c0.51,0.71,1.28,1.74,2.32,3.1
			c0.26,0.32,0.48,0.48,0.66,0.48c0.13,0,0.2-0.4,0.2-1.2c0-1.07-0.06-2.69-0.18-4.85c-0.12-2.16-0.18-3.78-0.18-4.86
			c0-0.38,0.11-0.57,0.32-0.57c0.61,0,1.54-0.03,2.78-0.08c1.24-0.05,2.16-0.08,2.78-0.08
			C125.53,184.88,125.63,185.04,125.63,185.36z"/>
		<path class="st0" d="M148.49,195.52c0,3.01-0.97,5.61-2.9,7.82c-1.71,1.97-4.1,3.01-7.19,3.11c-0.59,0.02-2.22,0.03-4.89,0.03
			c-0.5,0-1.25-0.02-2.26-0.05c-1.01-0.03-1.76-0.05-2.26-0.05c-0.3,0-0.44-0.12-0.44-0.35c0-1.12,0.04-2.81,0.13-5.07
			c0.09-2.25,0.13-3.94,0.13-5.07c0-1.17-0.04-2.94-0.13-5.28c-0.09-2.35-0.13-4.1-0.13-5.27c0-0.21,0.15-0.34,0.44-0.38
			c0.73-0.08,1.92-0.12,3.57-0.12c3.15,0,5.19,0.05,6.12,0.14c2.42,0.25,4.32,0.86,5.69,1.84c1.29,0.92,2.31,2.21,3.05,3.86
			C148.13,192.26,148.49,193.87,148.49,195.52z M142.62,195.52c0-1.73-0.52-3.14-1.55-4.23c-1.04-1.13-2.42-1.7-4.14-1.7
			c-1.57,0-2.36,0.21-2.36,0.63c0,0.6-0.01,1.51-0.03,2.72c-0.02,1.21-0.03,2.12-0.03,2.72c0,0.59,0.01,1.49,0.03,2.68
			c0.02,1.19,0.03,2.09,0.03,2.69c0,0.44,0.82,0.66,2.45,0.66c1.77,0,3.16-0.59,4.17-1.76
			C142.14,198.81,142.62,197.34,142.62,195.52z"/>
		<path class="st0" d="M164.94,195.06c0,1.21,0.03,3.02,0.09,5.44c0.06,2.42,0.09,4.24,0.09,5.44c0,0.2-0.05,0.33-0.14,0.38
			c-0.02,0.01-0.15,0.03-0.4,0.06c-0.66,0.08-1.55,0.12-2.67,0.12c-1.49,0-2.44-0.04-2.85-0.12c-0.3-0.06-0.44-0.22-0.44-0.48
			c0,0.16,0.05-0.74,0.14-2.7c0.18-4.14,0.28-6.86,0.28-8.16c0-1.09-0.04-2.73-0.11-4.92s-0.11-3.83-0.11-4.92
			c0-0.22,0.12-0.34,0.35-0.34c0.32,0,0.79,0.02,1.43,0.05c0.64,0.03,1.12,0.05,1.43,0.05c0.32,0,0.78-0.01,1.4-0.05
			c0.62-0.03,1.09-0.05,1.4-0.05c0.3,0,0.44,0.11,0.44,0.34c0,1.09-0.06,2.73-0.18,4.92C165,192.33,164.94,193.97,164.94,195.06z"/>
		<path class="st0" d="M188.58,185.36c0,1.17-0.05,2.92-0.15,5.25c-0.1,2.34-0.15,4.09-0.15,5.27v10.1c0,0.28-0.15,0.41-0.44,0.41
			c-0.25,0-0.62,0.01-1.11,0.03c-0.5,0.02-0.87,0.03-1.11,0.03c-0.27,0-0.66-0.02-1.2-0.06s-0.93-0.06-1.2-0.06
			c-0.18,0-0.4-0.17-0.66-0.51c-0.74-0.99-2.39-3.19-4.97-6.59c-0.71-0.95-1.78-2.35-3.22-4.2c-0.04-0.06-0.12-0.12-0.23-0.18
			c-0.08,0.07-0.12,0.18-0.12,0.34c0,1.19,0.03,2.96,0.1,5.34c0.07,2.37,0.1,4.15,0.1,5.34c0,0.36-0.14,0.54-0.41,0.54h-5.31
			c-0.3,0-0.44-0.16-0.44-0.48c0-1.1,0.05-2.77,0.16-5c0.11-2.23,0.16-3.9,0.16-5.01c0-1.17-0.05-2.93-0.15-5.27
			c-0.1-2.34-0.15-4.09-0.15-5.26c0-0.22,0.2-0.34,0.6-0.34c0.59,0,1.32-0.04,2.19-0.12c0.2-0.02,0.61-0.09,1.21-0.2
			c0.51-0.09,0.91-0.14,1.21-0.14c0.12,0,0.31,0.17,0.57,0.52l5.72,7.84c0.51,0.71,1.28,1.74,2.32,3.1
			c0.26,0.32,0.48,0.48,0.66,0.48c0.13,0,0.2-0.4,0.2-1.2c0-1.07-0.06-2.69-0.18-4.85c-0.12-2.16-0.18-3.78-0.18-4.86
			c0-0.38,0.11-0.57,0.32-0.57c0.61,0,1.54-0.03,2.78-0.08c1.24-0.05,2.16-0.08,2.78-0.08
			C188.49,184.88,188.58,185.04,188.58,185.36z"/>
		<path class="st0" d="M209.35,202.93c0,0.16-0.11,0.38-0.32,0.64c-1.88,2.24-4.38,3.36-7.5,3.36c-3.19,0-5.78-1.09-7.76-3.27
			c-1.93-2.11-2.9-4.76-2.9-7.97c0-3.11,0.95-5.74,2.84-7.91c1.97-2.27,4.48-3.4,7.53-3.4c3.31,0,5.91,1.02,7.79,3.05
			c0.2,0.23,0.31,0.42,0.31,0.6c0,0.19-0.36,0.91-1.07,2.16c-0.71,1.25-1.16,1.95-1.34,2.1c-0.08,0.08-0.18,0.12-0.31,0.12
			c-0.05,0-0.31-0.2-0.77-0.61c-0.55-0.49-1.09-0.87-1.63-1.15c-0.81-0.41-1.65-0.61-2.51-0.61c-1.5,0-2.7,0.56-3.6,1.69
			c-0.83,1.04-1.24,2.33-1.24,3.86c0,1.55,0.41,2.86,1.24,3.91c0.9,1.14,2.1,1.72,3.6,1.72c0.89,0,1.73-0.19,2.53-0.58
			c0.52-0.25,1.05-0.61,1.59-1.07c0.45-0.39,0.7-0.58,0.75-0.58c0.1,0,0.2,0.06,0.31,0.17c0.16,0.18,0.61,0.82,1.33,1.92
			C208.97,202.19,209.35,202.82,209.35,202.93z"/>
		<path class="st0" d="M217.59,203.04c0,1.01-0.35,1.88-1.05,2.59c-0.7,0.72-1.55,1.07-2.55,1.07s-1.85-0.36-2.55-1.08
			c-0.69-0.72-1.04-1.58-1.04-2.58c0-1,0.35-1.86,1.04-2.58c0.7-0.72,1.54-1.07,2.55-1.07s1.85,0.36,2.55,1.07
			C217.24,201.18,217.59,202.03,217.59,203.04z"/>
	</g>
	<g>
		<g>
			<path class="st0" d="M47.48,115.82c0.3,0.07,0.4,0.27,0.3,0.6c-0.06,0.21-0.37,0.77-0.91,1.69c-0.54,0.92-0.9,1.48-1.05,1.68
				c0.2,2.57-0.03,4.9-0.67,7.01c-1.04,3.39-3.02,5.82-5.94,7.3c-2.88,1.47-6.02,1.68-9.42,0.64c-3.47-1.06-6.04-2.99-7.69-5.77
				c-1.71-2.87-2.04-6.02-0.99-9.45c0.51-1.67,1.31-3.14,2.39-4.41c1.19-1.37,2.56-2.32,4.11-2.84c0.32-0.11,0.53-0.14,0.64-0.11
				c0.35,0.11,0.99,0.84,1.91,2.19c0.92,1.36,1.34,2.18,1.25,2.46c-0.02,0.06-0.32,0.25-0.91,0.55c-0.7,0.37-1.29,0.79-1.75,1.26
				c-0.7,0.7-1.21,1.55-1.52,2.55c-0.5,1.64-0.29,3.14,0.64,4.48c0.85,1.24,2.12,2.12,3.81,2.64c1.79,0.55,3.34,0.51,4.67-0.1
				c1.37-0.64,2.32-1.84,2.86-3.6c0.34-1.12,0.45-2.45,0.31-4.01c-0.37-0.08-1.32-0.26-2.85-0.55c-1.18-0.21-2.13-0.42-2.83-0.63
				c-0.21-0.06-0.31-0.17-0.31-0.33c0-0.06,0.01-0.15,0.05-0.27c0.1-0.32,0.27-0.79,0.53-1.41c0.26-0.62,0.44-1.1,0.54-1.43
				c0.11-0.35,0.24-0.88,0.41-1.6c0.17-0.72,0.3-1.25,0.41-1.6c0.08-0.27,0.31-0.36,0.67-0.25c0.53,0.16,1.31,0.44,2.36,0.82
				c1.04,0.39,1.83,0.66,2.36,0.82c1.41,0.43,3.56,0.98,6.44,1.63L47.48,115.82z"/>
			<path class="st0" d="M59.64,95.2c0.18,0.1,0.23,0.3,0.15,0.59c-0.09,0.34-0.59,1.29-1.49,2.83c-0.83,1.42-1.4,2.3-1.71,2.66
				c-0.27,0.3-0.61,0.38-1.04,0.25c-1.62-0.5-2.54-0.68-2.75-0.55c-0.16,0.12-0.97,1.42-2.43,3.92c-0.98,1.68-1.46,2.6-1.43,2.77
				c0.06,0.26,0.48,0.76,1.26,1.49c0.71,0.67,1.02,1.15,0.94,1.46c-0.12,0.38-0.74,1.53-1.86,3.45c-0.88,1.51-1.47,2.19-1.76,2.02
				c-0.26-0.15-2.77-3.11-7.53-8.89c-5.15-6.26-7.99-9.68-8.52-10.27c-0.31-0.34-0.41-0.59-0.32-0.74c0.16-0.27,0.42-0.67,0.8-1.2
				c0.38-0.53,0.64-0.93,0.81-1.21c0.16-0.27,0.37-0.67,0.64-1.21c0.27-0.54,0.48-0.94,0.63-1.2c0.11-0.19,0.37-0.27,0.79-0.23
				c1.32,0.12,5.71,0.79,13.17,1.99C55.48,94.35,59.37,95.04,59.64,95.2z M39.97,97.83c0.31,0.46,1.05,1.36,2.22,2.71
				c1.23,1.44,1.98,2.23,2.25,2.39c0.18,0.1,0.45-0.14,0.82-0.72c0.2-0.29,0.5-0.79,0.91-1.5c0.38-0.65,0.51-1.06,0.4-1.22
				c-0.04-0.05-0.1-0.1-0.19-0.15c-0.33-0.19-1.36-0.49-3.1-0.89C41.58,98.06,40.48,97.85,39.97,97.83z"/>
			<path class="st0" d="M71.27,83.8c-0.45,0.5-1.15,1.24-2.11,2.2c-0.95,0.96-1.66,1.69-2.11,2.2c-0.64,0.72-1.61,1.78-2.91,3.19
				c-1.3,1.41-2.27,2.47-2.91,3.19c-0.28,0.31-0.53,0.39-0.77,0.26c-0.56-0.47-1.45-1.12-2.66-1.93c-0.51-0.27-0.79-0.43-0.84-0.48
				c-0.04-0.04-0.76-2.57-2.14-7.59c-1.39-5.02-2.2-7.64-2.45-7.86c-0.14-0.12-0.3-0.07-0.5,0.15c-0.54,0.6-1.33,1.51-2.38,2.75
				c-1.05,1.24-1.85,2.16-2.39,2.76c-0.17,0.19-0.35,0.19-0.55,0.02c-0.32-0.28-0.84-0.93-1.58-1.94c-0.74-1.01-1.31-1.7-1.72-2.07
				c-0.14-0.12-0.1-0.3,0.11-0.53c1.06-1.18,2.67-2.92,4.84-5.23c2.17-2.31,3.78-4.06,4.84-5.23c0.16-0.18,0.36-0.21,0.6-0.08
				c0.82,0.46,1.86,1.26,3.14,2.4c0.15,0.14,0.28,0.39,0.37,0.75c0.29,1.23,0.99,3.9,2.1,8.01c1.27,4.68,1.97,7.08,2.12,7.21
				c0.07,0.06,0.17,0.02,0.3-0.12c1.55-1.73,2.72-3.09,3.48-4.08c0.16-0.2,0.48-0.65,0.95-1.37c0.4-0.61,0.71-1.05,0.94-1.31
				c0.11-0.12,0.25-0.1,0.43,0.06c1.39,1.25,2.66,2.62,3.82,4.1C71.43,83.43,71.43,83.62,71.27,83.8z"/>
			<path class="st0" d="M90.61,68c0.12,0.17,0.09,0.37-0.09,0.6c-0.22,0.28-1.05,0.95-2.49,2.01c-1.32,0.97-2.2,1.56-2.63,1.76
				c-0.36,0.17-0.71,0.11-1.05-0.18c-1.29-1.1-2.06-1.63-2.3-1.59c-0.2,0.04-1.46,0.92-3.78,2.64c-1.57,1.15-2.37,1.81-2.41,1.97
				c-0.05,0.26,0.14,0.89,0.57,1.87c0.39,0.89,0.48,1.47,0.28,1.71c-0.26,0.3-1.28,1.12-3.07,2.44c-1.41,1.04-2.22,1.43-2.41,1.16
				c-0.18-0.24-1.31-3.96-3.39-11.15c-2.25-7.78-3.5-12.05-3.75-12.8c-0.15-0.43-0.15-0.7,0-0.81c0.25-0.18,0.65-0.44,1.21-0.78
				c0.56-0.34,0.96-0.6,1.22-0.79c0.25-0.18,0.6-0.47,1.07-0.86c0.46-0.39,0.81-0.67,1.05-0.85c0.17-0.13,0.45-0.1,0.82,0.1
				c1.17,0.64,4.93,2.99,11.3,7.05C87.13,65.58,90.43,67.75,90.61,68z M71.51,62.62c0.11,0.55,0.43,1.67,0.97,3.37
				c0.56,1.81,0.93,2.83,1.12,3.08c0.12,0.17,0.47,0.05,1.03-0.34c0.3-0.19,0.78-0.53,1.43-1.01c0.61-0.45,0.89-0.77,0.85-0.97
				c-0.02-0.06-0.05-0.13-0.12-0.21c-0.22-0.31-1.06-0.99-2.49-2.05C72.9,63.47,71.97,62.84,71.51,62.62z"/>
			<path class="st0" d="M116.65,54.32c0.06,0.17,0.02,0.44-0.11,0.8c-1.17,3.06-3.41,5.16-6.71,6.31c-3.38,1.17-6.52,0.96-9.42-0.62
				c-2.82-1.52-4.82-3.98-5.99-7.39c-1.14-3.29-1.1-6.43,0.11-9.42c1.26-3.13,3.5-5.25,6.73-6.37c3.51-1.21,6.63-1.09,9.37,0.38
				c0.3,0.16,0.48,0.34,0.54,0.52c0.07,0.21-0.04,1.1-0.34,2.68c-0.3,1.58-0.51,2.49-0.65,2.72c-0.06,0.12-0.15,0.2-0.28,0.24
				c-0.05,0.02-0.4-0.1-1.04-0.37c-0.77-0.32-1.48-0.52-2.14-0.62c-1.01-0.14-1.97-0.05-2.89,0.27c-1.59,0.55-2.66,1.59-3.2,3.11
				c-0.5,1.41-0.46,2.93,0.1,4.55c0.57,1.65,1.49,2.88,2.75,3.69c1.37,0.88,2.85,1.05,4.45,0.5c0.94-0.33,1.76-0.84,2.47-1.55
				c0.46-0.46,0.89-1.04,1.3-1.72c0.33-0.58,0.53-0.87,0.58-0.89c0.11-0.04,0.24-0.02,0.39,0.07c0.24,0.13,0.95,0.65,2.12,1.54
				C115.99,53.68,116.61,54.2,116.65,54.32z"/>
			<path class="st0" d="M141.39,54.72c0.03,0.24-0.01,0.39-0.1,0.46c-0.04,0.04-0.2,0.09-0.47,0.14c-0.69,0.14-1.66,0.29-2.93,0.43
				c-1.79,0.2-2.84,0.28-3.16,0.24c-0.32-0.03-0.49-0.17-0.52-0.41c-0.1-0.9-0.2-2.26-0.32-4.07c-0.11-1.81-0.22-3.17-0.32-4.07
				c-0.05-0.44-0.2-0.69-0.46-0.73c-0.4-0.05-1.78,0.06-4.15,0.32c-2.38,0.26-3.77,0.46-4.15,0.59c-0.24,0.08-0.34,0.36-0.29,0.81
				c0.1,0.89,0.27,2.22,0.52,3.98c0.25,1.76,0.43,3.09,0.52,3.98c0.04,0.34-0.1,0.56-0.4,0.65c-0.36,0.11-1.42,0.26-3.2,0.45
				c-1.54,0.17-2.52,0.24-2.95,0.22c-0.34-0.02-0.52-0.18-0.55-0.48c-0.14-1.23-0.28-3.09-0.43-5.59c-0.15-2.5-0.3-4.37-0.43-5.61
				c-0.14-1.32-0.42-3.3-0.82-5.94c-0.4-2.64-0.68-4.61-0.82-5.94c-0.03-0.25,0.08-0.39,0.32-0.42c0.35-0.04,0.89-0.08,1.6-0.12
				c0.72-0.04,1.25-0.09,1.6-0.12c0.36-0.04,0.91-0.12,1.64-0.23c0.73-0.12,1.28-0.19,1.64-0.23c0.19-0.02,0.3,0.07,0.32,0.28
				c0.09,0.85,0.17,2.14,0.23,3.86c0.06,1.72,0.14,3,0.23,3.86c0.04,0.4,0.18,0.62,0.4,0.67c0.31,0.06,1.77-0.06,4.39-0.34
				c2.44-0.27,3.85-0.47,4.22-0.6c0.27-0.1,0.38-0.35,0.33-0.75c-0.09-0.82-0.27-2.05-0.53-3.7c-0.26-1.65-0.44-2.89-0.53-3.72
				c-0.04-0.35,0.08-0.55,0.37-0.58c0.33-0.04,0.84-0.07,1.52-0.11c0.68-0.04,1.19-0.08,1.54-0.12c0.33-0.04,0.83-0.11,1.51-0.22
				c0.67-0.11,1.18-0.18,1.52-0.22c0.33-0.04,0.51,0.08,0.54,0.36c0.14,1.31,0.31,3.29,0.49,5.95c0.18,2.65,0.34,4.64,0.49,5.96
				c0.14,1.24,0.4,3.1,0.79,5.57C140.99,51.64,141.25,53.49,141.39,54.72z"/>
			<path class="st0" d="M151.42,43.65c-0.09,1.35-0.18,3.38-0.29,6.1c-0.11,2.71-0.2,4.75-0.29,6.1c-0.02,0.23-0.08,0.37-0.18,0.42
				c-0.02,0.01-0.17,0.02-0.45,0.04c-0.75,0.04-1.75,0.03-2.99-0.05c-1.67-0.11-2.73-0.22-3.18-0.34c-0.33-0.09-0.48-0.28-0.46-0.56
				c-0.01,0.18,0.1-0.82,0.35-3.01c0.5-4.62,0.8-7.65,0.9-9.11c0.08-1.22,0.16-3.06,0.23-5.52c0.08-2.45,0.16-4.29,0.23-5.52
				c0.02-0.25,0.16-0.37,0.42-0.35c0.36,0.02,0.89,0.07,1.6,0.15c0.71,0.08,1.25,0.13,1.6,0.16c0.36,0.02,0.88,0.04,1.57,0.05
				c0.69,0.01,1.22,0.03,1.57,0.05c0.33,0.02,0.49,0.16,0.47,0.41c-0.08,1.22-0.26,3.06-0.55,5.49
				C151.68,40.59,151.5,42.42,151.42,43.65z"/>
			<path class="st0" d="M168.73,59.85c-0.96-0.2-2.22-0.48-3.76-0.85c-2.01-0.46-3.26-0.75-3.75-0.87l-5.02-1.11
				c-0.51-0.09-1.23-0.27-2.16-0.52c-0.31-0.12-0.44-0.33-0.38-0.62c0.25-1.22,0.65-3.05,1.2-5.48c0.55-2.43,0.95-4.26,1.2-5.48
				c0.27-1.3,0.64-3.26,1.1-5.87c0.46-2.61,0.83-4.57,1.1-5.87c0.05-0.25,0.25-0.34,0.58-0.26c0.34,0.07,0.83,0.19,1.5,0.36
				c0.66,0.17,1.15,0.29,1.48,0.36c0.37,0.08,0.92,0.17,1.66,0.28c0.74,0.11,1.29,0.21,1.66,0.28c0.17,0.04,0.22,0.16,0.17,0.37
				l-0.06,0.22c-0.57,2.08-1.38,5.22-2.43,9.42l-0.94,4.44c-0.3,1.44-0.51,2.49-0.64,3.15c-0.02,0.14-0.03,0.27-0.05,0.41
				c-0.02,0.14,0.05,0.24,0.2,0.31c0.01,0,0.16,0.03,0.44,0.09c1.01,0.21,2.53,0.47,4.57,0.78c2.04,0.31,3.56,0.57,4.57,0.78
				c0.3,0.06,0.43,0.22,0.37,0.48c-0.4,1.92-0.88,3.54-1.45,4.88c-0.12,0.28-0.27,0.43-0.46,0.45
				C169.36,59.98,169.13,59.94,168.73,59.85z"/>
			<path class="st0" d="M196.51,57.79c-1.35,3.09-3.52,5.33-6.49,6.73c-2.64,1.26-5.57,1.25-8.79-0.04
				c-0.62-0.25-2.3-0.97-5.04-2.17c-0.51-0.23-1.28-0.58-2.3-1.07c-1.02-0.48-1.79-0.84-2.3-1.07c-0.3-0.13-0.4-0.32-0.3-0.56
				c0.51-1.15,1.31-2.87,2.41-5.15c1.1-2.28,1.91-3.99,2.41-5.15c0.53-1.21,1.28-3.04,2.24-5.48c0.97-2.45,1.71-4.27,2.24-5.47
				c0.1-0.22,0.31-0.28,0.63-0.19c0.78,0.24,2.02,0.74,3.72,1.48c3.23,1.42,5.31,2.38,6.22,2.9c2.38,1.34,4.05,2.83,5.01,4.45
				c0.91,1.52,1.37,3.3,1.39,5.34C197.61,54.27,197.26,56.09,196.51,57.79z M190.48,55.15c0.78-1.77,0.88-3.46,0.31-5.04
				c-0.56-1.63-1.72-2.84-3.49-3.61c-1.62-0.71-2.52-0.85-2.71-0.42c-0.27,0.62-0.69,1.55-1.26,2.78c-0.57,1.24-0.98,2.16-1.26,2.78
				c-0.27,0.61-0.66,1.53-1.17,2.76c-0.51,1.23-0.91,2.16-1.18,2.78c-0.2,0.45,0.54,1.05,2.22,1.78c1.82,0.8,3.51,0.82,5.08,0.07
				C188.51,58.31,189.66,57.01,190.48,55.15z"/>
			<path class="st0" d="M209.37,81.87c-0.05,0.07-0.17,0.04-0.38-0.07c-0.39-0.2-1.29-0.82-2.7-1.86c-1.21-0.89-2.01-1.52-2.4-1.9
				c-0.18-0.18-0.28-0.28-0.3-0.32c-0.03-0.07-0.03-0.21,0.01-0.42c0.13-0.46,0.32-1.15,0.57-2.05c0.32-1.19,0.76-2.96,1.32-5.33
				c0.1-0.48-0.14-0.96-0.71-1.44c0.26,0.22-0.22-0.12-1.45-1.02c-0.14-0.1-0.38,0.08-0.73,0.55c-0.46,0.63-1.09,1.61-1.9,2.94
				c-0.8,1.33-1.43,2.31-1.9,2.94c-0.12,0.16-0.23,0.22-0.33,0.19c-0.14-0.09-0.27-0.17-0.41-0.26c-0.57-0.36-1.43-0.97-2.59-1.82
				c-1.32-0.97-2.09-1.58-2.32-1.84c-0.23-0.25-0.26-0.49-0.08-0.73c0.75-1.01,1.92-2.51,3.53-4.49c1.61-1.98,2.79-3.48,3.54-4.5
				c2.88-3.9,5.03-7.01,6.47-9.33l0.13-0.2c0.11-0.16,0.33-0.16,0.67,0c0.34,0.16,1.79,1.15,4.35,2.95c1.73,1.22,3.11,2.2,4.12,2.95
				c2.1,1.55,3.47,3.29,4.1,5.22c0.71,2.18,0.33,4.28-1.16,6.3c-0.99,1.35-1.98,2.28-2.96,2.8c-0.98,0.52-2.27,0.77-3.87,0.76
				c-0.32-0.01-0.53,0.05-0.62,0.18c0.01-0.01-0.28,1.56-0.87,4.72C209.93,79.93,209.55,81.63,209.37,81.87z M212.7,65.17
				c0.83-1.13,1.03-2.18,0.62-3.16c-0.33-0.75-1.1-1.58-2.32-2.48c-0.88-0.65-1.44-0.86-1.69-0.63c-0.29,0.27-0.98,1.16-2.08,2.65
				c-0.16,0.21-0.38,0.53-0.68,0.95c-0.3,0.42-0.52,0.73-0.67,0.94c-0.03,0.05,0.08,0.2,0.34,0.46c0.5,0.5,1.06,0.97,1.68,1.43
				C209.92,66.84,211.52,66.78,212.7,65.17z"/>
			<path class="st0" d="M225.52,92.18c-0.36,0.33-1.1,0.87-2.21,1.61c-1.2,0.81-1.95,1.25-2.27,1.32c-0.25,0.04-0.46-0.02-0.62-0.2
				c-0.07-0.08-0.17-0.22-0.31-0.42c-0.48-0.7-2.08-2.54-4.8-5.54c-0.59-0.65-1.47-1.63-2.63-2.93c-1.16-1.3-2.04-2.27-2.62-2.91
				c-0.26-0.28-0.26-0.53-0.01-0.75c0.95-0.86,2.43-2.11,4.43-3.73c2-1.62,3.48-2.87,4.43-3.73c0.97-0.88,2.72-2.57,5.27-5.07
				c0.66-0.64,1.63-1.61,2.91-2.9l0.17-0.17c0.18-0.19,0.37-0.18,0.58,0.05c0.57,0.63,1.41,1.59,2.52,2.88
				c1.11,1.29,1.95,2.25,2.52,2.88c0.56,0.62,1.43,1.54,2.59,2.75c1.17,1.22,2.03,2.13,2.59,2.75c0.4,0.44,0.47,0.85,0.2,1.21
				c-0.16,0.22-0.69,0.82-1.6,1.81c-0.91,0.99-1.47,1.58-1.68,1.77c-0.18,0.16-0.34,0.16-0.5-0.01c-0.05-0.05-0.12-0.14-0.23-0.28
				c-1.86-2.43-3.61-4.54-5.25-6.34c-0.41-0.45-0.77-0.63-1.07-0.54c-0.14,0.05-0.49,0.32-1.04,0.83c-0.58,0.52-0.88,0.95-0.91,1.29
				c-0.03,0.29,0.14,0.64,0.51,1.05c0.08,0.09,0.23,0.24,0.47,0.48c0.24,0.23,0.43,0.43,0.57,0.59c0.97,1.07,1.98,2.12,3.04,3.16
				c0.09,0.09,0.33,0.3,0.7,0.64c0.3,0.26,0.52,0.47,0.68,0.64c0.18,0.2,0.18,0.39-0.02,0.57c0.18-0.16-0.54,0.35-2.15,1.54
				c-0.74,0.55-1.45,1.13-2.13,1.75c-0.17,0.15-0.37,0.11-0.59-0.14l-0.91-1.26c-0.39-0.53-1.36-1.66-2.93-3.38l-1.23-1.35
				c-0.32-0.35-0.59-0.47-0.81-0.38c-0.05,0.03-0.32,0.26-0.8,0.7c-0.65,0.59-1.02,1-1.13,1.26c-0.19,0.44,0.11,1.15,0.91,2.15
				c-0.02-0.02,0.55,0.6,1.69,1.86c0.41,0.45,1.05,1.08,1.94,1.89c0.89,0.81,1.53,1.44,1.93,1.88
				C225.89,91.67,225.82,91.91,225.52,92.18z"/>
			<path class="st0" d="M254.3,104.77c-1.13,0.65-2.87,1.58-5.19,2.78c-2.33,1.21-4.06,2.14-5.21,2.79l-9.83,5.63
				c-0.27,0.15-0.49,0.09-0.65-0.2c-0.14-0.24-0.35-0.59-0.65-1.06c-0.3-0.47-0.51-0.83-0.65-1.07c-0.15-0.26-0.35-0.66-0.61-1.2
				c-0.26-0.54-0.46-0.94-0.61-1.2c-0.1-0.18-0.06-0.49,0.13-0.92c0.55-1.27,1.77-4.1,3.65-8.51c0.53-1.22,1.3-3.04,2.3-5.47
				c0.04-0.07,0.05-0.18,0.05-0.33c-0.12-0.04-0.25-0.02-0.4,0.07c-1.15,0.66-2.87,1.68-5.14,3.07s-3.98,2.41-5.14,3.07
				c-0.35,0.2-0.6,0.16-0.75-0.1l-2.95-5.16c-0.17-0.29-0.09-0.52,0.21-0.7c1.07-0.61,2.73-1.49,4.95-2.63
				c2.23-1.14,3.89-2.01,4.97-2.63c1.14-0.65,2.83-1.68,5.05-3.08s3.9-2.42,5.04-3.07c0.22-0.13,0.44,0.01,0.66,0.39
				c0.33,0.58,0.78,1.27,1.34,2.07c0.13,0.19,0.42,0.54,0.87,1.07c0.37,0.45,0.64,0.81,0.81,1.1c0.07,0.12,0,0.4-0.19,0.84
				l-4.44,9.93c-0.4,0.89-0.98,2.22-1.73,3.98c-0.17,0.43-0.2,0.73-0.1,0.91c0.07,0.13,0.5-0.03,1.27-0.47
				c1.05-0.6,2.58-1.55,4.62-2.87c2.03-1.32,3.58-2.28,4.63-2.88c0.37-0.21,0.61-0.21,0.73,0c0.34,0.6,0.88,1.48,1.62,2.66
				c0.74,1.18,1.28,2.06,1.62,2.66C254.71,104.41,254.6,104.59,254.3,104.77z"/>
			<path class="st0" d="M255.68,116.46c-1.78,0.67-3.87,1-6.25,1c-0.22,0-0.38-0.09-0.46-0.25c-0.14-0.24-0.29-0.58-0.46-1.02
				c-0.12-0.31-0.21-0.63-0.28-0.96c-0.11-0.49,0.74-1.27,2.53-2.36c1.43-0.86,2.58-1.46,3.46-1.79l1.98-0.74
				c0.25-0.09,0.42-0.08,0.51,0.03c0.13,0.16,0.45,0.91,0.96,2.27c0.55,1.46,0.81,2.28,0.81,2.45
				C258.46,115.31,257.53,115.77,255.68,116.46z"/>
			<path class="st0" d="M247.43,135.21c-2.25,0.6-4.43,0.17-6.54-1.29c-1.86-1.28-3.31-3.06-4.33-5.34
				c-0.03-0.09-0.06-0.16-0.07-0.21c-0.07-0.26,0.56-1.03,1.88-2.32c1.32-1.29,2.15-1.98,2.5-2.08c0.12-0.03,0.22,0.03,0.3,0.19
				c0.8,1.51,1.39,2.49,1.78,2.94c0.88,1,1.89,1.34,3.02,1.04c0.72-0.19,1.42-0.78,2.1-1.78c1.16-1.71,1.8-2.64,1.94-2.8
				c0.95-1.07,2.12-1.8,3.51-2.17c2.02-0.54,3.96-0.06,5.8,1.45c1.52,1.23,2.74,2.91,3.67,5.05c0.04,0.12,0.07,0.21,0.09,0.28
				c0.04,0.17-0.05,0.33-0.29,0.51c-0.73,0.5-2.01,1.57-3.84,3.18c-0.06,0.05-0.11,0.08-0.15,0.09c-0.19,0.05-0.31-0.02-0.36-0.22
				c-0.02-0.09-0.05-0.24-0.07-0.46c-0.02-0.22-0.05-0.38-0.08-0.49c-0.21-0.8-0.58-1.45-1.11-1.95c-0.61-0.61-1.3-0.81-2.05-0.61
				c-0.68,0.18-1.4,0.8-2.17,1.86c-1.39,1.88-2.13,2.87-2.2,2.96C249.74,134.17,248.63,134.89,247.43,135.21z"/>
		</g>
	</g>
	<g>
		<g>
			<path class="st0" d="M124.57,106.5c-1.85,0-3.32-0.16-4.22-0.3l-2.57,65h5.7l1.42-25.98l6.88-3.98l0.74,27.41h4.32l1.85-65.91
				C133.61,105.81,128.32,106.5,124.57,106.5z M125.35,136.39l3.19-27.7l3.24,24.88L125.35,136.39z"/>
			<path class="st0" d="M138.85,98.92c-0.04,0.47-0.07,0.94-0.08,1.42l-0.01,0.42c-7.48,5.01-15.93,4.17-18.33,3.79l0.02-0.48
				c0.02-0.53,0.01-1.06-0.06-1.58c0.9,0.13,2.36,0.29,4.19,0.29C128.37,102.78,133.72,102.07,138.85,98.92z"/>
			<path class="st0" d="M157.63,67.76l-13.25,16.97c-2.75,3.53-4.56,7.69-5.27,12.07c-7.99,5.58-17.26,4.28-19.05,3.97
				c-0.83-3.1-2.99-5.74-6-7.13l-14.55-6.74v-6.49c0,0,32.23,22.8,55.03-16.7L157.63,67.76z"/>
			<ellipse class="st0" cx="128.57" cy="73.44" rx="5.81" ry="9.73"/>
		</g>
		<polygon class="st1" points="143.33,99.67 166.33,99.67 166.33,114.21 152.18,160.59 166.33,160.59 166.33,171.2 143.33,171.2 
			143.33,165.7 157.63,114.6 143.33,114.6 		"/>
		<path class="st1" d="M187.92,100.01h-10.61l-9.14,71.19h7.81l1.92-14.74h9.43l1.92,14.74h7.81L187.92,100.01z M178.93,148.94
			l3.68-26.24l3.68,26.24H178.93z"/>
		<path class="st1" d="M112.48,99.67v14.3H99.02c-2.55,0-4.62,2.07-4.62,4.62v36.36c0,2.55,2.07,4.62,4.62,4.62h6.19v-19.06h-7.76
			v-7.66h15.03v38.37H99.14c-6.96,0-12.6-5.64-12.6-12.6v-46.15c0-6.89,5.54-12.51,12.43-12.6L112.48,99.67z"/>
	</g>
</g>
</svg>
