<?xml version="1.0" encoding="utf-8"?>
<!-- Generator: Adobe Illustrator 25.0.0, SVG Export Plug-In . SVG Version: 6.00 Build 0)  -->
<svg version="1.1" id="Layer_1" xmlns="http://www.w3.org/2000/svg" xmlns:xlink="http://www.w3.org/1999/xlink" x="0px" y="0px"
	 viewBox="0 0 283.46 283.46" style="enable-background:new 0 0 283.46 283.46;" xml:space="preserve">
<style type="text/css">
	.st0{fill:#4366A6;}
	.st1{fill:#6F642F;}
	.st2{fill:#388C36;}
</style>
<g>
	<g>
		<g>
			<path class="st0" d="M248.17,183.15c-1.34-1.2-2.83-2.23-4.48-2.96c-4.69-2.1-12.7-3.8-12.25,9.34c0,0-0.08,13.92,12.9,9.6
				c2.67-0.89,5.12-2.33,7.24-4.19c2.48-2.18,7.06-5.75,11.14-6.48C262.72,188.46,254.31,188.65,248.17,183.15z"/>
			<path class="st1" d="M151.96,203.91l-23.12-54.17c-29.22,7.03-41.4-8.75-45.65-17.06c-1.1-2.15,0.47-4.7,2.89-4.7h8.12
				c1.02,0,1.98,0.48,2.59,1.3c7.91,10.52,17.27,8.6,17.27,8.6c-11.32-3.73-12.35-6.75-11.64-8.44c0.38-0.9,1.29-1.46,2.27-1.46
				h17.81c1.37,0,2.72-0.21,4.03-0.61c10.54-3.22,11.26,2.37,11.26,2.37c1.38,6.92,5.11,13.19,5.11,13.19
				c3.96,8.45,19.26,27.37,27.63,37.44C166.42,187.69,160.34,196.56,151.96,203.91z"/>
			<path class="st2" d="M138.84,99.45c0,0,11.32,1.81,11.97,15.45c0.01,0.29,0.03,0.58,0.06,0.87l0.17,1.8c0,0-5.9,1.21-7.56-3.04
				c-0.27-0.69-0.37-1.44-0.35-2.19c0.07-1.77,0.06-6.94-2.07-9.42c-0.09-0.1-0.18-0.19-0.28-0.27
				C140.31,102.28,138.88,100.98,138.84,99.45z"/>
			<path class="st2" d="M141.16,120.11c0,0,11.26,2.18,11.46,15.84c0,0.29,0.01,0.58,0.03,0.87l0.11,1.81c0,0-5.93,1.02-7.46-3.28
				c-0.25-0.7-0.33-1.45-0.27-2.2c0.13-1.77,0.29-6.93-1.76-9.48c-0.08-0.1-0.18-0.19-0.28-0.28
				C142.54,122.98,141.16,121.63,141.16,120.11z"/>
			<path class="st2" d="M166.01,108.56c0,0-11.39,1.31-12.64,14.91c-0.03,0.29-0.06,0.58-0.1,0.86l-0.25,1.79
				c0,0,5.84,1.47,7.69-2.7c0.3-0.68,0.44-1.42,0.44-2.17c0.01-1.78,0.24-6.94,2.48-9.32c0.09-0.1,0.19-0.18,0.3-0.26
				C164.41,111.32,165.9,110.08,166.01,108.56z"/>
			<path class="st2" d="M162.87,85.15c0,0-11.39,1.31-12.64,14.91c-0.03,0.29-0.06,0.58-0.1,0.86l-0.25,1.79c0,0,5.84,1.47,7.69-2.7
				c0.3-0.68,0.44-1.42,0.44-2.17c0.01-1.78,0.24-6.94,2.48-9.32c0.09-0.1,0.19-0.18,0.3-0.26
				C161.27,87.91,162.76,86.68,162.87,85.15z"/>
			<path d="M146.5,79.1l8.72,83.62l2.55,2.98l-9.54-83.68c-0.13-1.16-0.74-2.2-1.69-2.88L146.5,79.1z"/>
			<path class="st0" d="M203.85,156.83c-0.58,0.06-1.15,0.09-1.72,0.09c-6.52,0-12.49-3.93-15.2-9.98c-0.49-1.09-0.94-2.29-1.32-3.6
				c-0.64-2.19-2.1-4.07-4.11-5.16c-0.09-0.05-0.18-0.09-0.27-0.14c-1.43-0.72-2.96-1.05-4.47-1.05c-6.89,0-13.42,6.8-8.71,14.23
				c0.4,0.63,0.87,1.27,1.42,1.92c0,0,2.54,3.42,12.4,3.8c2.05,0.08,4.04,0.77,5.63,2.08c4.96,4.08,9.87,16.08-11.96,50.83
				c0,0-15.81,26.22-70.34,26.22c-15.64,0-34.46-2.16-57.01-7.7c0,0,10.8,0.95,25.63,0.95c19.97,0,47.26-1.72,65.33-9.78
				c5.74-2.56,10.84-5.9,15.35-9.64c9.02-7.5,15.66-16.63,20.25-24.45c2.99-5.09,5.1-9.62,6.44-12.79c0.87-2.06-0.52-4.37-2.75-4.55
				c-6.64-0.53-18.46-4.04-20.53-22.02c-0.83-7.27,2.26-14.49,8.24-18.71c2.54-1.79,5.64-3.09,9.29-3.09c2.19,0,4.58,0.47,7.16,1.58
				c6.18,2.66,10.85,7.94,12.92,14.33c0.57,1.74,0.98,3.62,1.07,5.51c0,0,11.81-30.88-25.03-69.35c-1.71-1.79-3.4-3.59-5.04-5.45
				c-7.32-8.27-35.07-36.24-85.26-48.4c0,0,0.01,0,0.03,0c2.02,0,114.19,0.41,133.17,92.34
				C214.48,114.84,224.9,154.59,203.85,156.83z"/>
			<g>
				<path d="M104.04,100.88c-0.6,0.04-1.15-0.29-1.4-0.82c-0.03-0.05-0.05-0.1-0.06-0.15l-1.92-5.62l-1.56-4.57
					c-0.09-0.27-0.35-0.45-0.64-0.44c-0.36,0.01-0.62,0.31-0.62,0.65c0,0.06,0.01,0.13,0.03,0.2l4.7,14.83
					c0.23,0.74-0.32,1.49-1.09,1.49h-3.76v17.34c0,1.09-0.84,2.02-1.93,2.07c-1.16,0.05-2.12-0.87-2.12-2.02v-16.67
					c0-0.46-0.37-0.83-0.83-0.83h-0.11c-0.23,0-0.44,0.09-0.59,0.24c-0.15,0.15-0.24,0.36-0.24,0.59v16.61
					c0,1.09-0.84,2.02-1.93,2.07c-1.16,0.05-2.12-0.87-2.12-2.02v-17.39H84.1c-0.77,0-1.32-0.75-1.09-1.49l4.7-14.83
					c0.13-0.41-0.17-0.82-0.59-0.84h-0.03c-0.28,0-0.52,0.18-0.61,0.44L83,99.91c-0.2,0.59-0.75,0.98-1.36,0.98
					c-0.04,0-0.07,0-0.1,0c-0.93-0.07-1.55-0.99-1.26-1.87l4.8-15.05c0.61-1.91,2.39-3.21,4.4-3.21h6.63c2.01,0,3.79,1.3,4.4,3.21
					l0.16,0.49l3.19,10l1.45,4.56C105.59,99.89,104.96,100.81,104.04,100.88z"/>
				<circle cx="92.79" cy="74.27" r="4.75"/>
				<circle cx="113.59" cy="70.94" r="5.46"/>
				<path d="M125.22,83.01v15.5c0,0.89-0.73,1.61-1.63,1.6c-0.88-0.02-1.57-0.77-1.57-1.65V85.59c0-0.63-0.52-1.13-1.15-1.12
					c-0.61,0.02-1.08,0.55-1.08,1.16v37.93c0,0.63-0.26,1.2-0.67,1.62c-0.42,0.41-0.99,0.67-1.62,0.67c-1.26,0-2.29-1.02-2.29-2.29
					v-15.98c0-0.36-0.15-0.69-0.38-0.93c-0.24-0.24-0.57-0.38-0.93-0.38h-0.54c-0.72,0-1.31,0.59-1.31,1.31v15.98
					c0,0.63-0.26,1.2-0.67,1.62c-0.42,0.41-0.99,0.67-1.62,0.67c-1.26,0-2.29-1.02-2.29-2.29V85.59c0-0.63-0.52-1.13-1.15-1.12
					c-0.61,0.02-1.08,0.55-1.08,1.16v12.88c0,0.75-0.52,1.38-1.21,1.55c-0.03-0.05-0.05-0.1-0.06-0.15l-1.92-5.62V83.01
					c0-2.6,2.11-4.72,4.72-4.72h13.73C123.11,78.3,125.22,80.41,125.22,83.01z"/>
				<circle cx="130.75" cy="93.91" r="2.8"/>
				<path d="M127.26,97.68h3.51h0.01h3.51c1.33,0,2.42,1.08,2.42,2.42v7.94c0,0.46-0.37,0.83-0.83,0.82
					c-0.45-0.01-0.8-0.39-0.8-0.84v-6.59c0-0.32-0.27-0.58-0.59-0.57c-0.31,0.01-0.55,0.28-0.55,0.6v19.43
					c0,0.65-0.52,1.17-1.17,1.17l0,0c-0.65,0-1.17-0.52-1.17-1.17v-8.18c0-0.37-0.3-0.67-0.67-0.67l0,0l0,0h-0.28l0,0
					c-0.37,0-0.67,0.3-0.67,0.67v8.18c0,0.65-0.52,1.17-1.17,1.17l0,0c-0.65,0-1.17-0.52-1.17-1.17v-19.45
					c0-0.32-0.27-0.58-0.59-0.57l-3.44-0.74l0.22-2.85L127.26,97.68z"/>
			</g>
			<path class="st0" d="M248.04,112.55c0,0,17.32,32.88-5.91,51.94c-1.33,1.09-2.75,2.08-4.22,2.98
				c-3.48,2.14-17.63,11.77-19.51,28.38c-0.17,1.54-0.45,3.08-0.86,4.57c-2.1,7.62-9.36,27.58-28.86,33.4
				c0,0,16.83-14.57,15.41-35.65c-0.05-0.68-0.16-1.35-0.32-2.01c-1.12-4.6-5.31-26.67,14.27-36.17
				C218.04,160,244.42,147.66,248.04,112.55z"/>
		</g>
		<g>
			<g>
				<path d="M47.39,191.89l4.12-20.06h5l-5.84,25.34h-6.28l-3.69-21.05l-3.68,21.05h-6.28l-5.84-25.34h4.97l4.12,20.06l3.56-20.06
					h6.28L47.39,191.89z"/>
				<path d="M67.16,193.26c0.46,0,0.94-0.04,1.45-0.13c0.51-0.08,1-0.19,1.47-0.33c0.47-0.13,0.9-0.3,1.3-0.48
					c0.39-0.19,0.71-0.4,0.94-0.63l1.94,3.9c-0.94,0.52-2.02,0.97-3.25,1.36c-1.23,0.39-2.71,0.58-4.44,0.58
					c-1.4,0-2.68-0.23-3.86-0.7s-2.2-1.12-3.06-1.95c-0.86-0.83-1.53-1.82-2.01-2.95c-0.48-1.13-0.72-2.36-0.72-3.67
					c0-1.35,0.24-2.6,0.73-3.75c0.49-1.15,1.16-2.13,2-2.95c0.84-0.82,1.83-1.46,2.97-1.92c1.14-0.46,2.35-0.69,3.64-0.69
					c1.35,0,2.6,0.24,3.73,0.72c1.14,0.48,2.11,1.18,2.92,2.11c0.81,0.93,1.44,2.06,1.87,3.39c0.44,1.33,0.62,2.84,0.56,4.53H61.41
					c0.29,1.21,0.9,2.1,1.83,2.69c0.93,0.58,2.08,0.88,3.45,0.88H67.16z M69.19,183.64c-0.81-0.54-1.81-0.81-3-0.81
					c-1.19,0-2.19,0.31-3,0.92c-0.81,0.61-1.36,1.39-1.62,2.33h9.18C70.52,184.99,70,184.18,69.19,183.64z"/>
				<path d="M77,179.58h3.31v-1.69c0-2.1,0.56-3.64,1.67-4.61c1.11-0.97,2.89-1.45,5.33-1.45h4.19v4.06h-4.16
					c-0.56,0-1.01,0.06-1.36,0.17s-0.61,0.29-0.81,0.52c-0.2,0.23-0.33,0.52-0.39,0.88c-0.06,0.35-0.09,0.77-0.09,1.25v0.88h6.68
					v4.06h-6.68v13.53h-4.37v-13.53H77V179.58z"/>
				<path d="M101.4,197.54c-1.1,0-2.16-0.1-3.17-0.31c-1.01-0.21-1.9-0.54-2.66-1c-0.76-0.46-1.37-1.06-1.83-1.8
					c-0.46-0.74-0.69-1.65-0.69-2.73c0-0.98,0.2-1.84,0.61-2.59c0.41-0.75,0.97-1.37,1.69-1.88c0.72-0.5,1.58-0.88,2.59-1.12
					c1.01-0.25,2.11-0.38,3.29-0.38c0.48,0,1.01,0.02,1.58,0.05c0.57,0.03,1.19,0.1,1.86,0.2v-0.25c0-1-0.37-1.68-1.12-2.03
					c-0.75-0.35-1.73-0.53-2.94-0.53c-0.46,0-0.96,0.04-1.5,0.13c-0.54,0.08-1.09,0.2-1.64,0.34c-0.55,0.15-1.09,0.31-1.61,0.5
					c-0.52,0.19-1,0.39-1.44,0.59l0.56-4.47c0.71-0.35,1.61-0.66,2.72-0.92c1.1-0.26,2.27-0.39,3.5-0.39c1.12,0,2.17,0.13,3.12,0.38
					c0.96,0.25,1.79,0.65,2.48,1.19c0.7,0.54,1.24,1.26,1.64,2.16c0.39,0.9,0.59,1.98,0.59,3.25v10.25
					c-1.12,0.44-2.35,0.78-3.69,1.01C104.03,197.42,102.71,197.54,101.4,197.54z M104.68,189.54c-0.42-0.1-0.89-0.19-1.44-0.26
					c-0.54-0.07-1.05-0.11-1.53-0.11c-0.56,0-1.09,0.04-1.58,0.11c-0.49,0.07-0.92,0.2-1.3,0.37c-0.37,0.18-0.67,0.41-0.89,0.7
					c-0.22,0.29-0.33,0.65-0.33,1.06c0,0.81,0.37,1.38,1.11,1.7s1.65,0.48,2.73,0.48c0.54,0,1.09-0.04,1.66-0.13
					c0.56-0.08,1.08-0.21,1.56-0.37V189.54z"/>
				<path d="M125.23,197.29c-0.6,0.1-1.16,0.17-1.67,0.2c-0.51,0.03-0.96,0.05-1.36,0.05c-1.5,0-2.86-0.24-4.08-0.72
					c-1.22-0.48-2.27-1.14-3.14-1.97c-0.88-0.83-1.55-1.82-2.02-2.95c-0.47-1.14-0.7-2.36-0.7-3.67c0-1.31,0.23-2.54,0.69-3.67
					c0.46-1.14,1.13-2.11,2.02-2.94c0.88-0.82,1.96-1.47,3.23-1.95c1.27-0.48,2.72-0.72,4.34-0.72c2.54,0,4.89,0.31,7.06,0.94v24.15
					h-4.37V197.29z M116.86,188.23c0,1.69,0.51,2.95,1.53,3.78c1.02,0.83,2.4,1.25,4.12,1.25c0.39,0,0.81-0.03,1.25-0.08
					c0.44-0.05,0.93-0.14,1.47-0.27v-9.31c-0.48-0.1-0.95-0.19-1.4-0.26c-0.46-0.07-0.9-0.11-1.31-0.11c-1.73,0-3.1,0.41-4.12,1.22
					C117.37,185.26,116.86,186.52,116.86,188.23z"/>
			</g>
		</g>
	</g>
	<g>
		<path d="M38.91,248.11c0.28,0.22,0.6,0.32,0.95,0.32c0.36,0,0.67-0.11,0.95-0.32c0.28-0.22,0.42-0.53,0.42-0.95
			c0-0.38-0.13-0.68-0.4-0.91c-0.26-0.23-0.59-0.35-0.97-0.35s-0.71,0.12-0.97,0.35c-0.26,0.23-0.4,0.53-0.4,0.91
			C38.49,247.57,38.63,247.89,38.91,248.11z"/>
		<path d="M58.12,255.39h-0.76H56.7h-0.91v-1.21c0-0.62-0.06-1.19-0.19-1.71c-0.13-0.52-0.36-0.97-0.7-1.32
			c-0.39-0.4-0.84-0.7-1.35-0.87c-0.52-0.18-1.11-0.27-1.78-0.27h-4.22v-4.3h-2.4v9.69H44.4h-0.66h-0.68v-6.11h-2.57
			c-0.74,0-1.42,0.09-2.04,0.28c-0.62,0.19-1.15,0.47-1.6,0.84c-0.45,0.37-0.79,0.82-1.04,1.34c-0.25,0.53-0.37,1.12-0.37,1.78
			c0,0.43,0.06,0.83,0.19,1.18c0.13,0.36,0.23,0.58,0.31,0.68h-1.08H34.2h-1.18v-7.29h0.95v-2.4h-3.35v11.5h-0.97
			c-0.42,0-0.81-0.04-1.16-0.11c-0.35-0.07-0.64-0.2-0.87-0.4c-0.19-0.16-0.33-0.39-0.41-0.66c-0.08-0.28-0.12-0.63-0.12-1.04v-4.66
			h-2.4v4.91c0,0.61,0.07,1.19,0.22,1.75c0.15,0.56,0.42,1.02,0.8,1.37c0.23,0.22,0.48,0.41,0.74,0.57
			c0.26,0.16,0.54,0.29,0.85,0.39c0.31,0.1,0.64,0.17,1,0.22c0.36,0.04,0.76,0.07,1.21,0.07h3.51v-1.81h1.18h0.66h8.87h0.66h12.3
			h0.65h3.16v-9.69h0.94v-2.4h-3.34V255.39z M40.66,255.39h-1.85c-0.28-0.19-0.51-0.45-0.69-0.77c-0.18-0.32-0.27-0.68-0.27-1.1
			c0-0.3,0.06-0.56,0.18-0.79c0.12-0.23,0.28-0.42,0.48-0.58c0.2-0.15,0.43-0.27,0.69-0.35c0.26-0.08,0.53-0.12,0.8-0.12h0.66
			V255.39z M53.39,255.39h-5.85v-3h4.42c0.23,0,0.44,0.05,0.64,0.14c0.19,0.09,0.34,0.21,0.45,0.35c0.12,0.14,0.2,0.31,0.26,0.51
			c0.06,0.2,0.09,0.43,0.09,0.7V255.39z"/>
		<rect x="63.53" y="245.7" width="2.4" height="12.09"/>
		<path d="M70.52,249.57c-0.63,0.19-1.17,0.47-1.62,0.84c-0.46,0.37-0.82,0.81-1.08,1.34c-0.26,0.53-0.39,1.12-0.39,1.78
			c0,0.75,0.13,1.4,0.4,1.94c0.27,0.54,0.64,0.99,1.1,1.33c0.47,0.34,1.01,0.59,1.63,0.75c0.62,0.16,1.29,0.24,2,0.24h0.01
			c-0.01,0.09-0.05,0.19-0.12,0.32c-0.07,0.13-0.17,0.22-0.3,0.29c-0.13,0.07-0.29,0.11-0.48,0.14c-0.2,0.02-0.43,0.04-0.7,0.04
			c-0.33,0-0.65-0.03-0.98-0.09c-0.33-0.06-0.77-0.17-1.33-0.35l0.17,2.44l0.72,0.2c0.17,0.04,0.34,0.07,0.51,0.1
			c0.16,0.03,0.33,0.05,0.5,0.06c0.17,0.01,0.35,0.02,0.56,0.02c0.73,0,1.35-0.1,1.86-0.29c0.51-0.19,0.91-0.46,1.21-0.82
			c0.3-0.35,0.52-0.77,0.64-1.24c0.12-0.48,0.19-1,0.19-1.57l0.01-7.77h-2.47C71.83,249.28,71.15,249.38,70.52,249.57z
			 M72.64,255.39h-0.66c-0.31,0-0.59-0.04-0.86-0.12c-0.26-0.08-0.49-0.2-0.68-0.35s-0.34-0.35-0.45-0.58
			c-0.11-0.23-0.17-0.5-0.17-0.81c0-0.28,0.06-0.53,0.17-0.76c0.12-0.23,0.27-0.42,0.47-0.58c0.2-0.16,0.43-0.28,0.69-0.38
			c0.26-0.09,0.54-0.14,0.82-0.14h0.66V255.39z"/>
		<path d="M85.89,249.28h-0.1c-0.8,0-1.52,0.11-2.15,0.32c-0.64,0.21-1.17,0.51-1.62,0.89c-0.44,0.38-0.78,0.83-1.01,1.35
			c-0.23,0.52-0.35,1.09-0.35,1.7c0,0.71,0.13,1.34,0.39,1.87c0.26,0.53,0.62,0.98,1.08,1.34c0.46,0.36,1,0.62,1.62,0.79
			c0.62,0.17,1.3,0.25,2.04,0.25h2.5v-9.23h-2.4V249.28z M85.89,255.39h-0.69c-0.28,0-0.55-0.04-0.81-0.12
			c-0.26-0.08-0.49-0.2-0.69-0.35s-0.35-0.34-0.47-0.57c-0.12-0.23-0.17-0.49-0.17-0.8c0-0.3,0.06-0.56,0.19-0.79
			c0.13-0.23,0.29-0.42,0.51-0.58c0.21-0.16,0.45-0.28,0.72-0.37c0.27-0.09,0.54-0.13,0.82-0.13h0.59V255.39z"/>
		<path d="M83.75,247.87c0.36,0,0.66-0.11,0.92-0.32s0.39-0.52,0.39-0.91c0-0.37-0.13-0.66-0.38-0.88s-0.57-0.33-0.93-0.33
			c-0.37,0-0.68,0.11-0.93,0.33s-0.38,0.52-0.38,0.88c0,0.39,0.13,0.7,0.39,0.91S83.39,247.87,83.75,247.87z"/>
		<path d="M86.88,247.87c0.36,0,0.66-0.11,0.92-0.32s0.39-0.52,0.39-0.91c0-0.37-0.13-0.66-0.38-0.88s-0.56-0.33-0.94-0.33
			c-0.37,0-0.68,0.11-0.93,0.33s-0.38,0.52-0.38,0.88c0,0.39,0.13,0.7,0.39,0.91S86.53,247.87,86.88,247.87z"/>
		<path d="M91.96,245.07c0.08-0.09,0.24-0.13,0.47-0.13h0.79v-1.03h-0.91c-0.62,0-1.1,0.15-1.47,0.46c-0.36,0.3-0.54,0.81-0.54,1.52
			v0.85h3.38v-1.46h-1.85C91.84,245.22,91.88,245.15,91.96,245.07z"/>
		<rect x="90.81" y="247.45" width="2.4" height="10.34"/>
		<path d="M112.29,255.39h-0.75h-0.66h-0.91c0.04-0.32,0.06-0.56,0.06-0.74c0-0.65-0.12-1.26-0.35-1.82
			c-0.24-0.56-0.56-1.04-0.98-1.46c-0.42-0.41-0.91-0.74-1.46-0.97c-0.55-0.24-1.15-0.35-1.78-0.35c-0.63,0-1.21,0.12-1.76,0.36
			c-0.55,0.24-1.03,0.57-1.43,0.99c-0.4,0.42-0.72,0.91-0.96,1.46s-0.35,1.15-0.35,1.8c0,0.17,0.01,0.42,0.04,0.74h-0.68h-0.66h-0.9
			v-6.11h-2.4v8.06c0,0.46-0.06,0.78-0.19,0.96c-0.13,0.18-0.36,0.27-0.7,0.27c-0.14,0-0.29-0.01-0.43-0.03
			c-0.14-0.02-0.38-0.07-0.73-0.16l0.17,2.41c0.21,0.07,0.41,0.11,0.61,0.14s0.39,0.04,0.59,0.04c1.01,0,1.76-0.27,2.25-0.81
			s0.75-1.33,0.8-2.37h0.92h0.66h1.91c0.39,0.4,0.86,0.73,1.42,0.99c0.56,0.26,1.17,0.38,1.81,0.38c0.65,0,1.27-0.13,1.85-0.38
			s1.06-0.58,1.44-1h2.14h0.66h3.15v-9.69h0.94v-2.4h-3.34V255.39z M107.45,255.48c-0.11,0.26-0.27,0.49-0.46,0.68
			c-0.2,0.19-0.43,0.34-0.7,0.45c-0.27,0.11-0.55,0.16-0.85,0.16c-0.3,0-0.58-0.05-0.84-0.17c-0.26-0.11-0.48-0.26-0.67-0.45
			c-0.19-0.19-0.33-0.41-0.44-0.68c-0.11-0.26-0.16-0.55-0.16-0.85c0-0.3,0.05-0.58,0.16-0.85c0.11-0.27,0.25-0.5,0.44-0.69
			c0.19-0.19,0.41-0.35,0.66-0.46s0.54-0.17,0.84-0.17c0.32,0,0.61,0.06,0.88,0.17c0.27,0.11,0.5,0.26,0.69,0.45
			c0.19,0.19,0.34,0.42,0.45,0.69c0.11,0.27,0.16,0.56,0.16,0.87C107.62,254.93,107.57,255.22,107.45,255.48z"/>
		<rect x="117.7" y="245.7" width="2.4" height="12.09"/>
		<path d="M132.16,247.87c0.36,0,0.66-0.11,0.92-0.32s0.39-0.52,0.39-0.91c0-0.37-0.13-0.66-0.38-0.88s-0.56-0.33-0.94-0.33
			c-0.37,0-0.68,0.11-0.93,0.33c-0.26,0.22-0.38,0.52-0.38,0.88c0,0.39,0.13,0.7,0.39,0.91S131.8,247.87,132.16,247.87z"/>
		<path d="M129.02,247.87c0.36,0,0.66-0.11,0.92-0.32s0.39-0.52,0.39-0.91c0-0.37-0.13-0.66-0.38-0.88
			c-0.26-0.22-0.57-0.33-0.93-0.33c-0.37,0-0.68,0.11-0.93,0.33c-0.26,0.22-0.38,0.52-0.38,0.88c0,0.39,0.13,0.7,0.39,0.91
			C128.36,247.76,128.67,247.87,129.02,247.87z"/>
		<path d="M136.04,258.42c-0.37,0-0.68,0.11-0.93,0.34c-0.26,0.23-0.38,0.52-0.38,0.89c0,0.39,0.13,0.7,0.4,0.9
			c0.26,0.21,0.57,0.31,0.92,0.31c0.35,0,0.65-0.1,0.92-0.31c0.26-0.21,0.4-0.51,0.4-0.9c0-0.37-0.13-0.66-0.38-0.89
			C136.72,258.54,136.41,258.42,136.04,258.42z"/>
		<path d="M139.18,258.42c-0.37,0-0.68,0.11-0.93,0.34c-0.26,0.23-0.38,0.52-0.38,0.89c0,0.39,0.13,0.7,0.4,0.9
			c0.26,0.21,0.57,0.31,0.92,0.31c0.35,0,0.65-0.1,0.92-0.31c0.26-0.21,0.4-0.51,0.4-0.9c0-0.37-0.13-0.66-0.38-0.89
			C139.86,258.54,139.55,258.42,139.18,258.42z"/>
		<path d="M139.67,257.79v-8.51h-2.4v6.11h-2.38h-0.64h-0.69v-6.83h-2.4v0.72h-0.1c-0.8,0-1.52,0.11-2.15,0.32
			c-0.64,0.21-1.17,0.51-1.62,0.89c-0.44,0.38-0.78,0.83-1.01,1.35c-0.23,0.52-0.35,1.09-0.35,1.7c0,0.71,0.13,1.34,0.39,1.87
			c0.26,0.53,0.62,0.98,1.08,1.34c0.46,0.36,1,0.62,1.62,0.79c0.62,0.17,1.3,0.25,2.04,0.25h3.19h0.64H139.67z M131.16,255.39h-0.69
			c-0.28,0-0.55-0.04-0.81-0.12c-0.26-0.08-0.49-0.2-0.69-0.35c-0.2-0.15-0.35-0.34-0.47-0.57c-0.12-0.23-0.17-0.49-0.17-0.8
			c0-0.3,0.06-0.56,0.19-0.79c0.13-0.23,0.29-0.42,0.51-0.58c0.21-0.16,0.45-0.28,0.72-0.37c0.27-0.09,0.54-0.13,0.82-0.13h0.59
			V255.39z"/>
		<path d="M167.84,255.39h-0.76h-0.65h-0.87c0.03-0.16,0.06-0.41,0.09-0.73c0.03-0.32,0.05-0.65,0.05-0.99
			c0-0.76-0.13-1.43-0.38-2.01c-0.25-0.58-0.58-1.08-0.98-1.48c-0.37-0.38-0.8-0.66-1.31-0.87c-0.51-0.2-1.07-0.3-1.69-0.3
			c-0.63,0-1.21,0.08-1.74,0.25c-0.53,0.17-1.1,0.42-1.68,0.76l1.01,2.11c0.47-0.31,0.86-0.51,1.16-0.59c0.3-0.09,0.64-0.13,1-0.13
			c0.67,0,1.2,0.17,1.57,0.51c0.23,0.19,0.4,0.44,0.5,0.74c0.1,0.3,0.15,0.59,0.15,0.87c0,0.3-0.02,0.63-0.06,1
			c-0.04,0.37-0.09,0.66-0.14,0.87h-5.37h-0.66h-0.91c0.04-0.32,0.06-0.56,0.06-0.74c0-0.65-0.12-1.26-0.35-1.82
			c-0.24-0.56-0.56-1.04-0.98-1.46c-0.42-0.41-0.91-0.74-1.46-0.97c-0.55-0.24-1.15-0.35-1.78-0.35c-0.63,0-1.21,0.12-1.76,0.36
			c-0.55,0.24-1.03,0.57-1.43,0.99c-0.4,0.42-0.72,0.91-0.96,1.46s-0.35,1.15-0.35,1.8c0,0.17,0.01,0.42,0.04,0.74h-0.68h-0.66
			h-1.18v-9.69h-2.4v12.09h3.58h0.66h1.91c0.39,0.4,0.86,0.73,1.42,0.99c0.56,0.26,1.17,0.38,1.81,0.38c0.65,0,1.27-0.13,1.85-0.38
			s1.06-0.58,1.44-1h2.14h0.66h8.68h0.65h3.16v-9.69h0.94v-2.4h-3.34V255.39z M153.67,255.48c-0.11,0.26-0.27,0.49-0.46,0.68
			c-0.2,0.19-0.43,0.34-0.7,0.45c-0.27,0.11-0.55,0.16-0.85,0.16c-0.3,0-0.58-0.05-0.84-0.17s-0.48-0.26-0.67-0.45
			c-0.19-0.19-0.33-0.41-0.44-0.68c-0.11-0.26-0.16-0.55-0.16-0.85c0-0.3,0.05-0.58,0.16-0.85c0.11-0.27,0.25-0.5,0.44-0.69
			c0.19-0.19,0.41-0.35,0.66-0.46c0.26-0.12,0.54-0.17,0.84-0.17c0.32,0,0.61,0.06,0.88,0.17c0.27,0.11,0.5,0.26,0.69,0.45
			c0.19,0.19,0.34,0.42,0.45,0.69c0.11,0.27,0.16,0.56,0.16,0.87C153.83,254.93,153.78,255.22,153.67,255.48z"/>
		<path d="M183.32,249.57c-0.63,0.19-1.17,0.47-1.62,0.84c-0.46,0.37-0.82,0.81-1.08,1.34c-0.26,0.53-0.39,1.12-0.39,1.78
			c0,0.75,0.13,1.4,0.4,1.94c0.27,0.54,0.64,0.99,1.11,1.33c0.47,0.34,1.01,0.59,1.63,0.75c0.62,0.16,1.29,0.24,2,0.24h0.07v0.78
			h-4.01c-0.42,0-0.81-0.04-1.16-0.11c-0.35-0.07-0.64-0.2-0.87-0.4c-0.19-0.16-0.33-0.39-0.41-0.66c-0.08-0.28-0.12-0.63-0.12-1.04
			v-3.11h-2.4v3.35c0,0.61,0.08,1.19,0.22,1.75c0.15,0.56,0.42,1.02,0.8,1.37c0.23,0.22,0.48,0.41,0.74,0.57
			c0.26,0.16,0.54,0.29,0.85,0.39c0.31,0.1,0.64,0.17,1,0.22c0.36,0.04,0.76,0.07,1.21,0.07h6.56v-11.68h-2.47
			C184.63,249.28,183.95,249.38,183.32,249.57z M185.45,255.39h-0.66c-0.31,0-0.59-0.04-0.86-0.12c-0.26-0.08-0.49-0.2-0.68-0.35
			s-0.34-0.35-0.45-0.58c-0.11-0.23-0.17-0.5-0.17-0.81c0-0.28,0.06-0.53,0.17-0.76c0.12-0.23,0.27-0.42,0.47-0.58
			c0.2-0.16,0.43-0.28,0.69-0.38c0.26-0.09,0.54-0.14,0.82-0.14h0.66V255.39z"/>
		<path d="M183.29,248.43c0.36,0,0.66-0.11,0.92-0.32c0.26-0.21,0.39-0.52,0.39-0.91c0-0.37-0.13-0.66-0.38-0.88
			c-0.26-0.22-0.57-0.33-0.93-0.33c-0.37,0-0.68,0.11-0.93,0.33c-0.26,0.22-0.38,0.52-0.38,0.88c0,0.39,0.13,0.7,0.39,0.91
			C182.63,248.32,182.94,248.43,183.29,248.43z"/>
		<path d="M186.43,248.43c0.36,0,0.66-0.11,0.92-0.32c0.26-0.21,0.39-0.52,0.39-0.91c0-0.37-0.13-0.66-0.38-0.88
			c-0.25-0.22-0.56-0.33-0.94-0.33c-0.37,0-0.68,0.11-0.93,0.33c-0.26,0.22-0.38,0.52-0.38,0.88c0,0.39,0.13,0.7,0.39,0.91
			C185.76,248.32,186.07,248.43,186.43,248.43z"/>
		<path d="M198.56,248.11c0.28,0.22,0.6,0.32,0.95,0.32c0.36,0,0.67-0.11,0.95-0.32c0.28-0.22,0.42-0.53,0.42-0.95
			c0-0.38-0.13-0.68-0.4-0.91c-0.26-0.23-0.59-0.35-0.98-0.35s-0.71,0.12-0.97,0.35c-0.26,0.23-0.4,0.53-0.4,0.91
			C198.14,247.57,198.28,247.89,198.56,248.11z"/>
		<path d="M198.08,249.56c-0.62,0.19-1.15,0.47-1.6,0.84c-0.45,0.37-0.79,0.82-1.04,1.34c-0.25,0.53-0.37,1.12-0.37,1.78
			c0,0.43,0.06,0.83,0.19,1.18c0.13,0.36,0.23,0.58,0.31,0.68h-1.08h-0.67h-1.18v-9.69h-2.4v12.09h3.58h0.67h8.19v-8.51h-2.57
			C199.38,249.28,198.7,249.38,198.08,249.56z M200.29,255.39h-1.85c-0.28-0.19-0.51-0.45-0.69-0.77c-0.18-0.32-0.27-0.68-0.27-1.1
			c0-0.3,0.06-0.56,0.18-0.79c0.12-0.23,0.28-0.42,0.48-0.58c0.2-0.15,0.43-0.27,0.69-0.35c0.26-0.08,0.53-0.12,0.8-0.12h0.66
			V255.39z"/>
		<path d="M206.85,249.57c-0.63,0.19-1.17,0.47-1.62,0.84c-0.46,0.37-0.82,0.81-1.08,1.34c-0.26,0.53-0.39,1.12-0.39,1.78
			c0,0.75,0.13,1.4,0.4,1.94c0.27,0.54,0.64,0.99,1.11,1.33c0.47,0.34,1.01,0.59,1.63,0.75c0.62,0.16,1.29,0.24,2,0.24h0.01
			c-0.01,0.09-0.05,0.19-0.12,0.32c-0.07,0.13-0.17,0.22-0.3,0.29c-0.13,0.07-0.29,0.11-0.48,0.14c-0.2,0.02-0.43,0.04-0.7,0.04
			c-0.33,0-0.65-0.03-0.98-0.09c-0.33-0.06-0.77-0.17-1.33-0.35l0.17,2.44l0.72,0.2c0.17,0.04,0.34,0.07,0.51,0.1
			c0.16,0.03,0.33,0.05,0.5,0.06c0.17,0.01,0.35,0.02,0.56,0.02c0.73,0,1.35-0.1,1.86-0.29c0.51-0.19,0.91-0.46,1.21-0.82
			c0.3-0.35,0.52-0.77,0.64-1.24c0.13-0.48,0.19-1,0.19-1.57l0.01-7.77h-2.47C208.16,249.28,207.47,249.38,206.85,249.57z
			 M208.97,255.39h-0.66c-0.31,0-0.59-0.04-0.86-0.12c-0.26-0.08-0.49-0.2-0.68-0.35c-0.19-0.15-0.34-0.35-0.45-0.58
			c-0.11-0.23-0.17-0.5-0.17-0.81c0-0.28,0.06-0.53,0.17-0.76c0.12-0.23,0.27-0.42,0.47-0.58c0.2-0.16,0.43-0.28,0.69-0.38
			c0.26-0.09,0.54-0.14,0.82-0.14h0.66V255.39z"/>
		<path d="M220.08,247.87c0.36,0,0.66-0.11,0.92-0.32s0.39-0.52,0.39-0.91c0-0.37-0.13-0.66-0.38-0.88
			c-0.26-0.22-0.57-0.33-0.93-0.33s-0.68,0.11-0.93,0.33c-0.26,0.22-0.38,0.52-0.38,0.88c0,0.39,0.13,0.7,0.39,0.91
			C219.41,247.76,219.72,247.87,220.08,247.87z"/>
		<path d="M223.21,247.87c0.36,0,0.66-0.11,0.92-0.32s0.39-0.52,0.39-0.91c0-0.37-0.13-0.66-0.38-0.88
			c-0.25-0.22-0.56-0.33-0.94-0.33c-0.37,0-0.68,0.11-0.93,0.33c-0.26,0.22-0.38,0.52-0.38,0.88c0,0.39,0.13,0.7,0.39,0.91
			S222.85,247.87,223.21,247.87z"/>
		<path d="M227.83,258.42c-0.37,0-0.68,0.11-0.93,0.34c-0.26,0.23-0.38,0.52-0.38,0.89c0,0.39,0.13,0.7,0.4,0.9
			c0.26,0.21,0.57,0.31,0.92,0.31c0.35,0,0.65-0.1,0.92-0.31c0.26-0.21,0.4-0.51,0.4-0.9c0-0.37-0.13-0.66-0.38-0.89
			C228.51,258.54,228.2,258.42,227.83,258.42z"/>
		<path d="M230.97,258.42c-0.37,0-0.68,0.11-0.93,0.34c-0.26,0.23-0.38,0.52-0.38,0.89c0,0.39,0.13,0.7,0.4,0.9
			c0.26,0.21,0.57,0.31,0.92,0.31c0.35,0,0.65-0.1,0.92-0.31c0.26-0.21,0.4-0.51,0.4-0.9c0-0.37-0.13-0.66-0.38-0.89
			C231.65,258.54,231.34,258.42,230.97,258.42z"/>
		<path d="M258.25,258.34c-0.39,0-0.71,0.12-0.97,0.35c-0.26,0.23-0.4,0.53-0.4,0.91c0,0.41,0.14,0.73,0.42,0.95
			c0.28,0.22,0.6,0.33,0.95,0.33s0.67-0.11,0.95-0.33c0.28-0.22,0.42-0.53,0.42-0.95c0-0.38-0.13-0.68-0.4-0.91
			C258.96,258.45,258.63,258.34,258.25,258.34z"/>
		<path d="M262.35,251.66c-0.25-0.58-0.58-1.08-0.98-1.48c-0.37-0.38-0.8-0.66-1.31-0.87c-0.51-0.2-1.07-0.3-1.69-0.3
			c-0.63,0-1.21,0.08-1.74,0.25s-1.1,0.42-1.68,0.76l1.01,2.11c0.47-0.31,0.86-0.51,1.16-0.59c0.3-0.09,0.64-0.13,1-0.13
			c0.67,0,1.2,0.17,1.57,0.51c0.23,0.19,0.4,0.44,0.5,0.74c0.1,0.3,0.15,0.59,0.15,0.87c0,0.3-0.02,0.63-0.06,1
			c-0.04,0.37-0.09,0.66-0.14,0.87h-5.37h-0.66h-0.91c0.04-0.32,0.06-0.56,0.06-0.74c0-0.65-0.12-1.26-0.35-1.82
			c-0.24-0.56-0.56-1.04-0.98-1.46c-0.42-0.41-0.91-0.74-1.46-0.97c-0.55-0.24-1.15-0.35-1.78-0.35c-0.63,0-1.21,0.12-1.76,0.36
			c-0.55,0.24-1.03,0.57-1.43,0.99s-0.72,0.91-0.96,1.46c-0.24,0.55-0.35,1.15-0.35,1.8c0,0.17,0.01,0.42,0.04,0.74h-0.68h-0.66
			h-1.91l1.68-4.45c-0.73-0.67-1.48-1.21-2.23-1.6c-0.76-0.39-1.57-0.59-2.43-0.59c-0.43,0-0.85,0.05-1.25,0.16
			c-0.4,0.11-0.78,0.25-1.16,0.44c-0.37,0.19-0.73,0.41-1.09,0.66c-0.36,0.26-0.74,0.56-1.16,0.92l1.73,4.46h-1.69h-0.67h-1.99
			v-6.11h-2.4v6.11h-2.37h-0.65h-0.68v-6.83h-2.4v0.72h-0.1c-0.8,0-1.52,0.11-2.15,0.32c-0.64,0.21-1.17,0.51-1.62,0.89
			c-0.44,0.38-0.78,0.83-1.01,1.35c-0.23,0.52-0.35,1.09-0.35,1.7c0,0.71,0.13,1.34,0.39,1.87c0.26,0.53,0.62,0.98,1.08,1.34
			c0.46,0.36,1,0.62,1.62,0.79c0.62,0.17,1.3,0.25,2.04,0.25h3.18h0.65h6.76h0.67h9.5h0.66h1.91c0.38,0.4,0.86,0.73,1.42,0.99
			c0.56,0.26,1.17,0.38,1.81,0.38c0.65,0,1.27-0.13,1.85-0.38c0.58-0.25,1.06-0.58,1.44-1h2.14h0.66h7.22
			c0.09-0.3,0.17-0.6,0.26-0.89c0.09-0.29,0.16-0.62,0.23-0.97c0.07-0.35,0.13-0.72,0.17-1.1c0.05-0.38,0.07-0.77,0.07-1.16
			C262.72,252.91,262.6,252.24,262.35,251.66z M222.21,255.39h-0.69c-0.28,0-0.55-0.04-0.81-0.12c-0.26-0.08-0.49-0.2-0.69-0.35
			c-0.2-0.15-0.35-0.34-0.47-0.57c-0.12-0.23-0.17-0.49-0.17-0.8c0-0.3,0.06-0.56,0.19-0.79c0.13-0.23,0.29-0.42,0.51-0.58
			c0.21-0.16,0.45-0.28,0.72-0.37c0.27-0.09,0.54-0.13,0.82-0.13h0.59V255.39z M238.72,255.39h-1.47l-1.23-3.47
			c0.28-0.2,0.58-0.36,0.9-0.48c0.32-0.12,0.67-0.18,1.05-0.18c0.39,0,0.74,0.06,1.05,0.17c0.3,0.11,0.61,0.27,0.92,0.48
			L238.72,255.39z M250.69,255.48c-0.11,0.26-0.26,0.49-0.46,0.68c-0.2,0.19-0.43,0.34-0.7,0.45c-0.27,0.11-0.55,0.16-0.85,0.16
			c-0.3,0-0.58-0.05-0.84-0.17s-0.48-0.26-0.67-0.45c-0.19-0.19-0.33-0.41-0.44-0.68c-0.11-0.26-0.16-0.55-0.16-0.85
			c0-0.3,0.05-0.58,0.16-0.85c0.11-0.27,0.25-0.5,0.44-0.69c0.19-0.19,0.41-0.35,0.66-0.46c0.26-0.12,0.54-0.17,0.84-0.17
			c0.32,0,0.61,0.06,0.88,0.17c0.27,0.11,0.5,0.26,0.69,0.45c0.19,0.19,0.34,0.42,0.45,0.69c0.11,0.27,0.16,0.56,0.16,0.87
			C250.85,254.93,250.8,255.22,250.69,255.48z"/>
	</g>
</g>
</svg>
