<svg id="Layer_1" data-name="Layer 1" xmlns="http://www.w3.org/2000/svg" viewBox="0 0 283.46457 79.5006"><defs><style>.cls-1{fill:#fff;}</style></defs><path class="cls-1" d="M62.4711,79.16H62.471v.33448H77.95712V64.00837h-.33447A15.15159,15.15159,0,0,1,62.4711,79.16Z"/><path class="cls-1" d="M15.589,40.52033H0A39.02959,39.02959,0,0,0,38.9802,79.50056V63.89643A23.40818,23.40818,0,0,1,15.589,40.52033Z"/><polygon class="cls-1" points="37.44 15.589 62.371 15.589 62.371 40.52 77.961 40.52 77.961 0 37.44 0 37.44 15.589"/><path class="cls-1" d="M115.33615,57.89277a5.89022,5.89022,0,0,1,4.60132,2.14423l2.7171-2.50995a9.4429,9.4429,0,0,0-7.527-3.24133c-5.69843,0-9.93268,3.94775-9.93268,9.46264s4.23425,9.46131,9.90631,9.46131a9.401,9.401,0,0,0,7.5534-3.26642l-2.7171-2.51a5.8324,5.8324,0,0,1-4.60132,2.16925,5.85489,5.85489,0,0,1,0-11.70978Z"/><path class="cls-1" d="M133.96952,54.28572c-5.77637,0-10.01056,4.02563-10.01056,9.46264,0,5.43707,4.23419,9.46131,10.01056,9.46131,5.75128,0,10.01055-3.99921,10.01055-9.46131C143.98007,58.28492,139.7208,54.28572,133.96952,54.28572Zm0,15.31683a5.85637,5.85637,0,1,1,5.72485-5.85419A5.58069,5.58069,0,0,1,133.96952,69.60255Z"/><polygon class="cls-1" points="159.766 65.709 150.67 54.6 147.167 54.6 147.167 72.897 151.35 72.897 151.35 61.788 160.472 72.897 163.948 72.897 163.948 54.6 159.766 54.6 159.766 65.709"/><path class="cls-1" d="M171.42111,59.77558c0-1.15.96643-2.09137,3.47638-2.09137a10.32191,10.32191,0,0,1,5.07,1.43781l1.30713-3.215a12.2676,12.2676,0,0,0-6.35065-1.62133c-5.202,0-7.712,2.58776-7.712,5.69842,0,6.79559,10.6391,4.44421,10.6391,7.86774,0,1.12353-1.01929,1.96069-3.52924,1.96069a10.7644,10.7644,0,0,1-6.03778-1.90784l-1.43781,3.18854a13.04672,13.04672,0,0,0,7.44916,2.1164c5.22846,0,7.76343-2.61286,7.76343-5.67206C182.05881,60.82124,171.42111,63.14765,171.42111,59.77558Z"/><path class="cls-1" d="M197.19077,64.68977c0,3.47638-1.48926,4.91278-4.07709,4.91278-2.5614,0-4.07849-1.4364-4.07849-4.91278V54.59992H184.801V64.84553c0,5.38416,3.08423,8.36414,8.28625,8.36414s8.28632-2.98,8.28632-8.36414V54.59992h-4.1828Z"/><polygon class="cls-1" points="209.786 54.6 205.552 54.6 205.552 72.897 218.961 72.897 218.961 69.447 209.786 69.447 209.786 54.6"/><polygon class="cls-1" points="217.573 58.05 223.429 58.05 223.429 72.897 227.663 72.897 227.663 58.05 233.517 58.05 233.517 54.6 217.573 54.6 217.573 58.05"/><rect class="cls-1" x="235.78964" y="54.59992" width="4.23419" height="18.29688"/><polygon class="cls-1" points="256.961 65.709 247.865 54.6 244.362 54.6 244.362 72.897 248.545 72.897 248.545 61.788 257.667 72.897 261.143 72.897 261.143 54.6 256.961 54.6 256.961 65.709"/><path class="cls-1" d="M274.60123,57.89277a6.189,6.189,0,0,1,4.73065,2.06494l2.71851-2.50854a9.75212,9.75212,0,0,0-7.65778-3.16345c-5.82916,0-10.06335,3.94775-10.06335,9.46264s4.23419,9.46131,9.98413,9.46131a12.61828,12.61828,0,0,0,7.3977-2.32642V63.46052h-3.86853v5.35779a6.71418,6.71418,0,0,1-3.29278.78424,5.85586,5.85586,0,1,1,.05145-11.70978Z"/><path class="cls-1" d="M125.6276,6.2909H107.43784V12.102h10.99505V26.98365c0,3.44159-1.51989,5.18537-4.42474,5.18537-2.23462,0-4.11182-1.16248-5.8111-3.44159l-4.02142,4.8266a12.58359,12.58359,0,0,0,10.18988,4.55816c7.37409,0,11.26209-3.79895,11.26209-11.53039Z"/><path class="cls-1" d="M138.18424,30.873h14.52429l2.77136,6.70385h7.598L149.0889,6.2909h-7.15015l-13.94445,31.286h7.41857Zm7.28509-17.475,4.96009,11.97675h-9.92157Z"/><path class="cls-1" d="M197.79984,21.93458c0-9.47522-7.01673-15.64368-17.25257-15.64368H166.33591v31.286h14.21136C190.78311,37.57685,197.79984,31.4084,197.79984,21.93458Zm-24.22473,9.69769V12.23548h6.6148c6.213,0,10.28034,3.71,10.28034,9.6991,0,5.98767-4.06732,9.69769-10.28034,9.69769Z"/><polygon class="cls-1" points="217.505 37.577 224.611 16.392 231.494 37.577 239.27 37.577 249.505 6.291 242.578 6.291 235.293 28.459 228.142 6.291 221.438 6.291 214.064 28.281 207.002 6.291 199.494 6.291 209.772 37.577 217.505 37.577"/><path class="cls-1" d="M255.79959,37.57685,258.571,30.873h14.52569l2.77,6.70385h7.598L269.47568,6.2909h-7.15021L248.381,37.57685ZM265.85605,13.398l4.96008,11.97675h-9.92157Z"/></svg>